<?xml version="1.0" encoding="UTF-8" standalone="no"?>
<!-- Created with Inkscape (http://www.inkscape.org/) -->

<svg
   xmlns:dc="http://purl.org/dc/elements/1.1/"
   xmlns:cc="http://creativecommons.org/ns#"
   xmlns:rdf="http://www.w3.org/1999/02/22-rdf-syntax-ns#"
   xmlns:svg="http://www.w3.org/2000/svg"
   xmlns="http://www.w3.org/2000/svg"
   xmlns:sodipodi="http://sodipodi.sourceforge.net/DTD/sodipodi-0.dtd"
   xmlns:inkscape="http://www.inkscape.org/namespaces/inkscape"
   width="300"
   height="300"
   id="svg5949"
   version="1.1"
   inkscape:version="0.48.4 r9939"
   sodipodi:docname="detergent2.svg">
  <defs
     id="defs5951">
    <clipPath
       clipPathUnits="userSpaceOnUse"
       id="clipPath262">
      <path
         inkscape:connector-curvature="0"
         d="m 5370.94,4078.32 -553.34,0 c -62.74,0 -113.79,-51.05 -113.79,-113.78 l 0,-257.15 c 39.89,-12.19 83.01,-18.36 128.53,-18.36 63.23,0 130.64,11.87 200.32,35.25 174.27,58.5 333.51,125.53 452.06,175.78 l 0,64.48 c 0,62.73 -51.04,113.78 -113.78,113.78 l 0,0"
         id="path264" />
    </clipPath>
    <linearGradient
       x1="0"
       y1="0"
       x2="1"
       y2="0"
       gradientUnits="userSpaceOnUse"
       gradientTransform="matrix(-4e-6,-84.4207,415.773,-2e-5,301.54,408.9)"
       spreadMethod="pad"
       id="linearGradient266">
      <stop
         style="stop-color:#38bff3;stop-opacity:1;"
         offset="0"
         id="stop268" />
      <stop
         style="stop-opacity:1;stop-color:#90dbf8"
         offset="0.0484848"
         id="stop270" />
      <stop
         style="stop-opacity:1;stop-color:#299cca"
         offset="1"
         id="stop272" />
    </linearGradient>
    <clipPath
       clipPathUnits="userSpaceOnUse"
       id="clipPath228">
      <path
         inkscape:connector-curvature="0"
         d="m 4832.34,3689.03 c -45.52,0 -88.64,6.17 -128.53,18.36 l 0,257.15 c 0,62.73 51.05,113.78 113.79,113.78 l 553.34,0 c 62.74,0 113.78,-51.05 113.78,-113.78 l 0,-64.48 c -118.55,-50.25 -277.79,-117.28 -452.06,-175.78 -69.68,-23.38 -137.09,-35.25 -200.32,-35.25 l 0,0 z m 538.6,424.49 -553.34,0 c -82.29,0 -148.97,-66.7 -148.97,-148.98 l 0,-553.34 c 0,-82.28 66.68,-148.99 148.97,-148.99 l 553.34,0 c 82.27,0 148.98,66.71 148.98,148.99 l 0,553.34 c 0,82.28 -66.71,148.98 -148.98,148.98 l 0,0"
         id="path230" />
    </clipPath>
    <linearGradient
       x1="0"
       y1="0"
       x2="1"
       y2="0"
       gradientUnits="userSpaceOnUse"
       gradientTransform="matrix(-4e-6,-84.4207,422.813,-2e-5,298.021,408.9)"
       spreadMethod="pad"
       id="linearGradient232">
      <stop
         style="stop-opacity:1;stop-color:#38bff3"
         offset="0"
         id="stop234" />
      <stop
         style="stop-opacity:1;stop-color:#7fd6f7"
         offset="0.0484848"
         id="stop236" />
      <stop
         style="stop-opacity:1;stop-color:#0084ba"
         offset="1"
         id="stop238" />
    </linearGradient>
  </defs>
  <sodipodi:namedview
     id="base"
     pagecolor="#ffffff"
     bordercolor="#666666"
     borderopacity="1.0"
     inkscape:pageopacity="0.0"
     inkscape:pageshadow="2"
     inkscape:zoom="0.98994949"
     inkscape:cx="360.2627"
     inkscape:cy="53.176172"
     inkscape:document-units="px"
     inkscape:current-layer="layer1"
     showgrid="false"
     fit-margin-top="0"
     fit-margin-left="0"
     fit-margin-right="0"
     fit-margin-bottom="0"
     inkscape:window-width="1855"
     inkscape:window-height="1056"
     inkscape:window-x="65"
     inkscape:window-y="24"
     inkscape:window-maximized="1" />
  <metadata
     id="metadata5954">
    <rdf:RDF>
      <cc:Work
         rdf:about="">
        <dc:format>image/svg+xml</dc:format>
        <dc:type
           rdf:resource="http://purl.org/dc/dcmitype/StillImage" />
        <dc:title></dc:title>
      </cc:Work>
    </rdf:RDF>
  </metadata>
  <g
     inkscape:label="Layer 1"
     inkscape:groupmode="layer"
     id="layer1"
     transform="translate(-118.22296,-231.28329)">
    <g
       transform="matrix(0.35240635,0,0,-0.35239807,-1527.0319,1680.8798)"
       id="g224">
      <g
         id="g226"
         clip-path="url(#clipPath228)">
        <path
           inkscape:connector-curvature="0"
           d="m 4832.34,3689.03 c -45.52,0 -88.64,6.17 -128.53,18.36 l 0,257.15 c 0,62.73 51.05,113.78 113.79,113.78 l 553.34,0 c 62.74,0 113.78,-51.05 113.78,-113.78 l 0,-64.48 c -118.55,-50.25 -277.79,-117.28 -452.06,-175.78 -69.68,-23.38 -137.09,-35.25 -200.32,-35.25 l 0,0 z m 538.6,424.49 -553.34,0 c -82.29,0 -148.97,-66.7 -148.97,-148.98 l 0,-553.34 c 0,-82.28 66.68,-148.99 148.97,-148.99 l 553.34,0 c 82.27,0 148.98,66.71 148.98,148.99 l 0,553.34 c 0,82.28 -66.71,148.98 -148.98,148.98 l 0,0"
           style="fill:url(#linearGradient232);fill-opacity:1;fill-rule:nonzero;stroke:none"
           id="path240" />
      </g>
    </g>
    <g
       id="g258"
       transform="matrix(0.37232605,0,0,-0.44943818,-1625.1748,2071.002)">
      <g
         id="g260"
         clip-path="url(#clipPath262)">
        <path
           d="m 5370.94,4078.32 -553.34,0 c -62.74,0 -113.79,-51.05 -113.79,-113.78 l 0,-257.15 c 39.89,-12.19 83.01,-18.36 128.53,-18.36 63.23,0 130.64,11.87 200.32,35.25 174.27,58.5 333.51,125.53 452.06,175.78 l 0,64.48 c 0,62.73 -51.04,113.78 -113.78,113.78 l 0,0"
           style="fill:url(#linearGradient266);fill-opacity:1;fill-rule:nonzero;stroke:none"
           id="path274"
           inkscape:connector-curvature="0" />
      </g>
    </g>
    <path
       style="fill:#ffffff;fill-opacity:1"
       id="path3"
       d="m 195.51905,322.84561 24.92677,43.17635 c -6.70177,3.33867 -14.22735,5.26133 -22.22286,5.26133 -27.6123,0 -50,-22.38769 -50,-49.99999 0,-26.55644 20.72148,-48.21777 46.875,-49.8414 v 49.8414 c -2e-4,0.53692 0.14023,1.07402 0.42109,1.56231 z m 52.54513,-4.6875 H 201.34776 V 271.4417 c 25.10998,1.55645 45.15998,21.60644 46.71642,46.71641 z m -40.46642,-6.25 h 33.3008 c -3.63164,-16.59551 -16.70528,-29.66914 -33.3008,-33.30079 v 33.30079 z m 18.27404,51.01932 c 12.65253,-8.4168 21.19746,-22.44277 22.19238,-38.51933 h -44.42755 l 22.23517,38.51933 z"
       inkscape:connector-curvature="0" />
    <path
       style="fill:#ffffff;fill-opacity:1"
       id="path3-9"
       d="m 158.47296,405.6774 h -6.25 v 93.75 6.25 h 6.25 93.75001 v -6.25 h -18.75 v -6.25 h -6.25 v 6.25 h -12.50001 v -6.25 h -6.25 v 6.25 h -12.5 v -6.25 h -6.25 v 6.25 h -12.5 v -6.25 h -6.25 v 6.25 h -12.5 v -93.75 z m 93.75001,68.75 v 12.5 h -87.50001 v -12.5 h 87.50001 z m -18.75,-18.75 v 12.5 h -68.75001 v -12.5 h 68.75001 z m -18.75001,-18.75 v 12.5 h -50 v -12.5 h 50 z m -18.75,-18.75 v 12.5 h -31.25 v -12.5 h 31.25 z"
       inkscape:connector-curvature="0" />
    <path
       inkscape:connector-curvature="0"
       d="m 295.48311,500.03329 h 93.75 v 6.25 h -100 v -100 h 6.25 6.25 v 6.25 h -6.25 v 12.5 h 6.25 v 6.25 h -6.25 v 12.5 h 6.25 v 6.25 h -6.25 v 12.5 h 6.25 v 6.25 h -6.25 v 12.5 h 6.25 v 6.25 h -6.25 v 12.5 z m 18.75,-12.5 c 3.45156,0 6.25,-2.79551 6.25,-6.25 0,-2.05684 -1.05898,-3.79648 -2.59395,-4.9377 l 8.08711,-20.21484 c 0.25938,0.0305 0.48828,0.15254 0.75684,0.15254 0.71406,0 1.37637,-0.1832 2.01719,-0.40293 l 5.85937,8.78301 c -0.98262,1.10488 -1.62656,2.52695 -1.62656,4.11992 0,3.45469 2.79844,6.25 6.25,6.25 3.45156,0 6.25,-2.79551 6.25,-6.25 0,-2.18516 -1.19023,-4.01621 -2.89004,-5.13301 l 8.73106,-26.20234 c 0.14042,0.0121 0.2625,0.0854 0.40898,0.0854 1.15352,0 2.17285,-0.39668 3.10059,-0.94004 l 10.33945,10.3394 c -0.54336,0.92774 -0.94004,1.94707 -0.94004,3.10059 0,3.45469 2.79551,6.25 6.25,6.25 3.45449,0 6.25,-2.79551 6.25,-6.25 0,-2.18516 -1.19023,-4.01621 -2.89316,-5.13926 l 8.73418,-26.19629 c 0.14042,0.0123 0.2625,0.0855 0.40898,0.0855 3.45469,0 6.25,-2.79551 6.25,-6.25 0,-3.45449 -2.79531,-6.25 -6.25,-6.25 -3.45469,0 -6.25,2.79551 -6.25,6.25 0,2.18516 1.19023,4.01621 2.89316,5.13926 l -8.73418,26.19629 c -0.14043,-0.0123 -0.2625,-0.0855 -0.40898,-0.0855 -1.15352,0 -2.17285,0.39668 -3.10059,0.94004 l -10.33945,-10.33945 c 0.54316,-0.92774 0.94004,-1.94707 0.94004,-3.10059 0,-3.45469 -2.79551,-6.25 -6.25,-6.25 -3.45449,0 -6.25,2.79551 -6.25,6.25 0,2.18516 1.19023,4.01621 2.89316,5.13926 l -8.73711,26.19023 c -0.14062,-0.006 -0.26269,-0.0795 -0.40605,-0.0795 -0.71406,0 -1.37637,0.1832 -2.01719,0.40898 l -5.85937,-8.79511 c 0.98261,-1.09864 1.62656,-2.51465 1.62656,-4.11387 0,-3.45469 -2.79844,-6.25 -6.25,-6.25 -3.45156,0 -6.25,2.79551 -6.25,6.25 0,2.06309 1.05898,3.79648 2.59394,4.93164 l -8.0871,20.2209 c -0.25938,-0.0305 -0.48829,-0.15254 -0.75684,-0.15254 -3.45156,0 -6.25,2.79551 -6.25,6.25 0,3.45449 2.79844,6.25 6.25,6.25 z"
       id="path3284"
       style="fill:#ff0000;fill-opacity:0" />
    <path
       style="fill:#ffffff;fill-opacity:1"
       id="path3-9-9"
       d="m 393.27373,363.25839 0,6.25 -93.75,0 -6.25,0 0,-6.25 0,-93.75001 6.25,0 0,18.75 6.25,0 0,6.25 -6.25,0 0,12.5 6.25,0 0,6.25 -6.25,0 0,12.5 6.25,0 0,6.25 -6.25,0 0,12.5 6.25,0 0,6.25 -6.25,0 0,12.5 93.75,0 z m -68.75,-93.75001 -12.5,0 0,87.5 12.5,0 0,-87.5 z m 18.75,18.75 -12.5,0 0,68.75 12.5,0 0,-68.75 z m 18.75,18.75 -12.5,0 0,50 12.5,0 0,-50 z m 18.75,18.75 -12.5,0 0,31.25 12.5,0 0,-31.25 z"
       inkscape:connector-curvature="0" />
    <path
       style="fill:#ffffff;fill-opacity:1"
       id="path3-9-9-0"
       d="m 388.22296,498.01296 0,6.25 -93.75,0 -6.25,0 0,-6.25 0,-93.75001 6.25,0 0,18.75 6.25,0 0,6.25 -6.25,0 0,12.5 6.25,0 0,6.25 -6.25,0 0,12.5 6.25,0 0,6.25 -6.25,0 0,12.5 6.25,0 0,6.25 -6.25,0 0,12.5 z"
       inkscape:connector-curvature="0"
       sodipodi:nodetypes="ccccccccccccccccccccccccc" />
    <path
       d="m 312.93933,487.81691 c 3.45156,0 6.25,-2.79551 6.25,-6.25 0,-2.05684 -1.05898,-3.79649 -2.59394,-4.9377 l 8.08711,-20.21484 c 0.25937,0.0305 0.48828,0.15254 0.75683,0.15254 0.71406,0 1.37637,-0.1832 2.01719,-0.40293 l 5.85937,8.78301 c -0.98261,1.10488 -1.62656,2.52695 -1.62656,4.11992 0,3.45469 2.79844,6.25 6.25,6.25 3.45156,0 6.25,-2.79551 6.25,-6.25 0,-2.18516 -1.19023,-4.01621 -2.89004,-5.13301 l 8.73106,-26.20234 c 0.14043,0.0121 0.2625,0.0854 0.40898,0.0854 1.15352,0 2.17285,-0.39668 3.10059,-0.94004 l 10.33945,10.3394 c -0.54336,0.92774 -0.94004,1.94707 -0.94004,3.10059 0,3.45469 2.79551,6.25 6.25,6.25 3.45449,0 6.25,-2.79551 6.25,-6.25 0,-2.18516 -1.19023,-4.01621 -2.89316,-5.13926 l 8.73418,-26.19629 c 0.14043,0.0123 0.2625,0.0855 0.40898,0.0855 3.45469,0 6.25,-2.79551 6.25,-6.25 0,-3.45449 -2.79531,-6.25 -6.25,-6.25 -3.45469,0 -6.25,2.79551 -6.25,6.25 0,2.18516 1.19024,4.01621 2.89317,5.13926 l -8.73418,26.19629 c -0.14043,-0.0123 -0.2625,-0.0855 -0.40899,-0.0855 -1.15351,0 -2.17285,0.39668 -3.10058,0.94003 l -10.33946,-10.33945 c 0.54317,-0.92773 0.94004,-1.94707 0.94004,-3.10058 0,-3.45469 -2.79551,-6.25 -6.25,-6.25 -3.45449,0 -6.25,2.79551 -6.25,6.25 0,2.18515 1.19024,4.01621 2.89317,5.13926 l -8.73711,26.19023 c -0.14063,-0.006 -0.2627,-0.0795 -0.40606,-0.0795 -0.71406,0 -1.37637,0.1832 -2.01719,0.40898 l -5.85937,-8.79511 c 0.98262,-1.09864 1.62656,-2.51465 1.62656,-4.11387 0,-3.45469 -2.79844,-6.25 -6.25,-6.25 -3.45156,0 -6.25,2.79551 -6.25,6.25 0,2.06309 1.05899,3.79648 2.59395,4.93164 l -8.08711,20.2209 c -0.25938,-0.0305 -0.48828,-0.15254 -0.75684,-0.15254 -3.45156,0 -6.25,2.79551 -6.25,6.25 0,3.45449 2.79844,6.25 6.25,6.25 z"
       id="path3-5"
       inkscape:connector-curvature="0"
       style="fill:#ffffff;fill-opacity:1" />
  </g>
</svg>
