<?xml version="1.0" encoding="UTF-8" standalone="no"?>
<!-- Created with Inkscape (http://www.inkscape.org/) -->

<svg
   xmlns:dc="http://purl.org/dc/elements/1.1/"
   xmlns:cc="http://creativecommons.org/ns#"
   xmlns:rdf="http://www.w3.org/1999/02/22-rdf-syntax-ns#"
   xmlns:svg="http://www.w3.org/2000/svg"
   xmlns="http://www.w3.org/2000/svg"
   xmlns:sodipodi="http://sodipodi.sourceforge.net/DTD/sodipodi-0.dtd"
   xmlns:inkscape="http://www.inkscape.org/namespaces/inkscape"
   width="300"
   height="300"
   id="svg5759"
   version="1.1"
   inkscape:version="0.48.4 r9939"
   sodipodi:docname="New document 32">
  <defs
     id="defs5761">
    <clipPath
       clipPathUnits="userSpaceOnUse"
       id="clipPath418">
      <path
         inkscape:connector-curvature="0"
         d="m 3956.33,4078.32 -553.34,0 c -62.76,0 -113.79,-51.05 -113.79,-113.78 l 0,-257.15 c 39.88,-12.19 83.01,-18.36 128.51,-18.36 l 0.02,0 c 63.23,0 130.63,11.87 200.31,35.25 174.28,58.5 333.51,125.53 452.08,175.78 l 0,64.48 c 0,62.73 -51.06,113.78 -113.79,113.78 l 0,0"
         id="path420" />
    </clipPath>
    <linearGradient
       x1="0"
       y1="0"
       x2="1"
       y2="0"
       gradientUnits="userSpaceOnUse"
       gradientTransform="matrix(-4e-6,-84.4207,415.775,-2e-5,160.079,408.9)"
       spreadMethod="pad"
       id="linearGradient422">
      <stop
         style="stop-color:#f57d14;stop-opacity:1;"
         offset="0"
         id="stop424" />
      <stop
         style="stop-opacity:1;stop-color:#fabb23"
         offset="0.0484848"
         id="stop426" />
      <stop
         style="stop-opacity:1;stop-color:#f57a28"
         offset="1"
         id="stop428" />
    </linearGradient>
    <clipPath
       clipPathUnits="userSpaceOnUse"
       id="clipPath384">
      <path
         inkscape:connector-curvature="0"
         d="m 3417.71,3689.03 c -45.5,0 -88.63,6.17 -128.51,18.36 l 0,257.15 c 0,62.73 51.03,113.78 113.79,113.78 l 553.34,0 c 62.73,0 113.79,-51.05 113.79,-113.78 l 0,-64.48 c -118.57,-50.25 -277.8,-117.28 -452.08,-175.78 -69.68,-23.38 -137.08,-35.25 -200.31,-35.25 l -0.02,0 0,0 z m 538.62,424.49 -553.34,0 c -82.29,0 -148.99,-66.7 -148.99,-148.98 l 0,-553.34 c 0,-82.28 66.7,-148.99 148.99,-148.99 l 553.34,0 c 82.28,0 148.96,66.71 148.96,148.99 l 0,553.34 c 0,82.28 -66.68,148.98 -148.96,148.98 l 0,0"
         id="path386" />
    </clipPath>
    <linearGradient
       x1="0"
       y1="0"
       x2="1"
       y2="0"
       gradientUnits="userSpaceOnUse"
       gradientTransform="matrix(-4e-6,-84.4207,422.812,-2e-5,156.559,408.9)"
       spreadMethod="pad"
       id="linearGradient388">
      <stop
         style="stop-opacity:1;stop-color:#f57d14"
         offset="0"
         id="stop390" />
      <stop
         style="stop-opacity:1;stop-color:#f9a70d"
         offset="0.0484848"
         id="stop392" />
      <stop
         style="stop-opacity:1;stop-color:#f2521b"
         offset="1"
         id="stop394" />
    </linearGradient>
  </defs>
  <sodipodi:namedview
     id="base"
     pagecolor="#ffffff"
     bordercolor="#666666"
     borderopacity="1.0"
     inkscape:pageopacity="0.0"
     inkscape:pageshadow="2"
     inkscape:zoom="0.35"
     inkscape:cx="222.49135"
     inkscape:cy="73.206909"
     inkscape:document-units="px"
     inkscape:current-layer="layer1"
     showgrid="false"
     fit-margin-top="0"
     fit-margin-left="0"
     fit-margin-right="0"
     fit-margin-bottom="0"
     inkscape:window-width="1855"
     inkscape:window-height="1056"
     inkscape:window-x="2625"
     inkscape:window-y="24"
     inkscape:window-maximized="1" />
  <metadata
     id="metadata5764">
    <rdf:RDF>
      <cc:Work
         rdf:about="">
        <dc:format>image/svg+xml</dc:format>
        <dc:type
           rdf:resource="http://purl.org/dc/dcmitype/StillImage" />
        <dc:title></dc:title>
      </cc:Work>
    </rdf:RDF>
  </metadata>
  <g
     inkscape:label="Layer 1"
     inkscape:groupmode="layer"
     id="layer1"
     transform="translate(-152.50865,-305.56909)">
    <g
       transform="matrix(0.35240635,0,0,-0.35239807,-994.22161,1755.1656)"
       id="g380">
      <g
         id="g382"
         clip-path="url(#clipPath384)">
        <path
           inkscape:connector-curvature="0"
           d="m 3417.71,3689.03 c -45.5,0 -88.63,6.17 -128.51,18.36 l 0,257.15 c 0,62.73 51.03,113.78 113.79,113.78 l 553.34,0 c 62.73,0 113.79,-51.05 113.79,-113.78 l 0,-64.48 c -118.57,-50.25 -277.8,-117.28 -452.08,-175.78 -69.68,-23.38 -137.08,-35.25 -200.31,-35.25 l -0.02,0 0,0 z m 538.62,424.49 -553.34,0 c -82.29,0 -148.99,-66.7 -148.99,-148.98 l 0,-553.34 c 0,-82.28 66.7,-148.99 148.99,-148.99 l 553.34,0 c 82.28,0 148.96,66.71 148.96,148.99 l 0,553.34 c 0,82.28 -66.68,148.98 -148.96,148.98 l 0,0"
           style="fill:url(#linearGradient388);fill-opacity:1;fill-rule:nonzero;stroke:none"
           id="path396" />
      </g>
    </g>
    <g
       id="g414"
       transform="matrix(0.3751714,0,0,-0.43231347,-1080.2116,2075.4477)">
      <g
         id="g416"
         clip-path="url(#clipPath418)">
        <path
           d="m 3956.33,4078.32 -553.34,0 c -62.76,0 -113.79,-51.05 -113.79,-113.78 l 0,-257.15 c 39.88,-12.19 83.01,-18.36 128.51,-18.36 l 0.02,0 c 63.23,0 130.63,11.87 200.31,35.25 174.28,58.5 333.51,125.53 452.08,175.78 l 0,64.48 c 0,62.73 -51.06,113.78 -113.79,113.78 l 0,0"
           style="fill:url(#linearGradient422);fill-opacity:1;fill-rule:nonzero;stroke:none"
           id="path430"
           inkscape:connector-curvature="0" />
      </g>
    </g>
    <path
       inkscape:connector-curvature="0"
       d="m 215.31619,346.33933 0,36.7516 179.3854,-24.77711 0,-11.97449 -179.3854,0"
       style="fill:#ffffff;fill-opacity:1;fill-rule:nonzero;stroke:none"
       id="path858" />
    <path
       inkscape:connector-curvature="0"
       d="m 215.31619,566.18287 179.3854,0 0,-39.36639 -179.3854,24.77358 0,14.59281"
       style="fill:#ffffff;fill-opacity:1;fill-rule:nonzero;stroke:none"
       id="path860" />
    <path
       inkscape:connector-curvature="0"
       d="m 275.10545,424.7479 -7.20319,0.21144 c 0.22921,1.92409 0.81406,3.7319 1.69508,5.37407 l 5.8147,-1.43073 c -0.16577,-1.35321 -0.26783,-2.74166 -0.30659,-4.15478"
       style="fill:#ffffff;fill-opacity:1;fill-rule:nonzero;stroke:none"
       id="path862" />
    <path
       inkscape:connector-curvature="0"
       d="m 238.501,394.38176 -1.54354,-0.65546 c -0.77177,0.66603 -1.41667,1.48007 -1.86423,2.39983 l 3.0166,0.53212 c 0.0812,-0.78585 0.21849,-1.54703 0.39117,-2.27649"
       style="fill:#ffffff;fill-opacity:1;fill-rule:nonzero;stroke:none"
       id="path864" />
    <path
       inkscape:connector-curvature="0"
       d="m 235.66413,403.84365 c 0.40174,0.57793 0.87749,1.08891 1.41667,1.53293 l 1.46601,-0.54974 c -0.11981,-0.52155 -0.23963,-1.06424 -0.32421,-1.61398 l -2.55847,0.63079"
       style="fill:#ffffff;fill-opacity:1;fill-rule:nonzero;stroke:none"
       id="path866" />
    <path
       inkscape:connector-curvature="0"
       d="m 275.23584,419.11306 -6.54419,-1.15587 c -0.58147,1.61751 -0.90568,3.35483 -0.90568,5.1732 0,0.0564 0.003,0.10572 0.003,0.15872 l 7.27366,-0.21143 c 0,-1.34616 0.0671,-2.67118 0.17282,-3.96448"
       style="fill:#ffffff;fill-opacity:1;fill-rule:nonzero;stroke:none"
       id="path868" />
    <path
       inkscape:connector-curvature="0"
       d="m 249.72867,491.46038 -15.14643,0.44755 c 0.4828,4.04905 1.72679,7.86552 3.58045,11.3155 l 12.2285,-3.01653 c -0.34183,-2.84033 -0.56385,-5.76523 -0.66252,-8.74652"
       style="fill:#ffffff;fill-opacity:1;fill-rule:nonzero;stroke:none"
       id="path870" />
    <path
       inkscape:connector-curvature="0"
       d="m 252.04398,466.46479 -6.52304,-2.74519 c -3.24919,2.80509 -5.94158,6.23393 -7.86924,10.11735 l 12.71482,2.2483 c 0.40175,-3.32311 0.96912,-6.53346 1.67746,-9.62046"
       style="fill:#ffffff;fill-opacity:1;fill-rule:nonzero;stroke:none"
       id="path872" />
    <path
       inkscape:connector-curvature="0"
       d="m 237.9442,400.30557 -3.5875,0.10572 c 0.11616,0.96205 0.40879,1.86419 0.85283,2.6888 l 2.90382,-0.71889 c -0.088,-0.67661 -0.13729,-1.36731 -0.16915,-2.07563"
       style="fill:#ffffff;fill-opacity:1;fill-rule:nonzero;stroke:none"
       id="path874" />
    <path
       inkscape:connector-curvature="0"
       d="m 276.19086,412.87914 -3.09413,-1.30388 c -1.54354,1.32854 -2.8122,2.95662 -3.73198,4.80319 l 6.03672,1.06072 c 0.1903,-1.57522 0.45813,-3.09758 0.78939,-4.56003"
       style="fill:#ffffff;fill-opacity:1;fill-rule:nonzero;stroke:none"
       id="path876" />
    <path
       inkscape:connector-curvature="0"
       d="m 238.0182,397.49344 -3.26328,-0.57794 c -0.2925,0.81052 -0.4546,1.67742 -0.4546,2.58308 0,0.0254 0.006,0.053 0.006,0.0775 l 3.62626,-0.10572 c 0,-0.66956 0.0254,-1.32854 0.0846,-1.97695"
       style="fill:#ffffff;fill-opacity:1;fill-rule:nonzero;stroke:none"
       id="path878" />
    <path
       inkscape:connector-curvature="0"
       d="m 270.51007,431.83463 c 0.81053,1.14529 1.76908,2.18487 2.84392,3.07291 l 2.94259,-1.09948 c -0.25035,-1.05015 -0.47927,-2.12849 -0.64843,-3.23854 l -5.13808,1.26511"
       style="fill:#ffffff;fill-opacity:1;fill-rule:nonzero;stroke:none"
       id="path880" />
    <path
       inkscape:connector-curvature="0"
       d="m 361.02211,429.12116 c 0.40527,0.57089 0.88454,1.08891 1.41668,1.53293 l 1.46248,-0.55326 c -0.11982,-0.52155 -0.2292,-1.06072 -0.31716,-1.61046 l -2.562,0.63079"
       style="fill:#ffffff;fill-opacity:1;fill-rule:nonzero;stroke:none"
       id="path882" />
    <path
       inkscape:connector-curvature="0"
       d="m 363.30923,425.58309 -3.59807,0.10571 c 0.12687,0.95853 0.41936,1.86067 0.85635,2.68175 l 2.89678,-0.71184 c -0.0775,-0.6766 -0.13392,-1.37083 -0.15506,-2.07562"
       style="fill:#ffffff;fill-opacity:1;fill-rule:nonzero;stroke:none"
       id="path884" />
    <path
       inkscape:connector-curvature="0"
       d="m 363.37266,422.77095 -3.26328,-0.57793 c -0.28193,0.80346 -0.45813,1.67389 -0.45813,2.57955 0,0.0254 0.006,0.053 0.006,0.0812 l 3.64036,-0.10572 c 0,-0.67308 0.0197,-1.33206 0.0741,-1.97695"
       style="fill:#ffffff;fill-opacity:1;fill-rule:nonzero;stroke:none"
       id="path886" />
    <path
       inkscape:connector-curvature="0"
       d="m 363.45724,421.93929 c 0.0987,-0.78937 0.23964,-1.55408 0.39469,-2.28354 l -1.54354,-0.64841 c -0.76472,0.66251 -1.4061,1.47302 -1.86422,2.39278 l 3.01307,0.53917"
       style="fill:#ffffff;fill-opacity:1;fill-rule:nonzero;stroke:none"
       id="path888" />
    <path
       inkscape:connector-curvature="0"
       d="m 332.88952,404.95723 c 0.80701,1.14881 1.76203,2.18486 2.84392,3.07291 l 2.93554,-1.09948 c -0.25035,-1.05015 -0.47575,-2.12849 -0.64843,-3.23502 l -5.13103,1.26159"
       style="fill:#ffffff;fill-opacity:1;fill-rule:nonzero;stroke:none"
       id="path890" />
    <path
       inkscape:connector-curvature="0"
       d="m 337.60119,392.23918 -6.52657,-1.15939 c -0.59204,1.62103 -0.91273,3.35835 -0.91273,5.1732 0,0.053 0,0.10206 0,0.15844 l 7.27719,-0.21482 c 0,-1.34264 0.0601,-2.66413 0.16211,-3.95743"
       style="fill:#ffffff;fill-opacity:1;fill-rule:nonzero;stroke:none"
       id="path892" />
    <path
       inkscape:connector-curvature="0"
       d="m 337.4708,397.8705 -7.18909,0.21144 c 0.22216,1.92409 0.81406,3.73894 1.70212,5.37759 l 5.80061,-1.43426 c -0.15872,-1.34968 -0.26783,-2.73813 -0.31364,-4.15477"
       style="fill:#ffffff;fill-opacity:1;fill-rule:nonzero;stroke:none"
       id="path894" />
    <path
       inkscape:connector-curvature="0"
       d="m 338.57383,385.99821 -3.09765,-1.30387 c -1.55059,1.33206 -2.82277,2.96014 -3.73903,4.80671 l 6.03672,1.06776 c 0.19735,-1.57874 0.46518,-3.10462 0.79996,-4.5706"
       style="fill:#ffffff;fill-opacity:1;fill-rule:nonzero;stroke:none"
       id="path896" />
    <path
       inkscape:connector-curvature="0"
       d="m 250.00707,479.60219 -13.75795,-2.43508 c -1.22989,3.40065 -1.92413,7.05854 -1.92413,10.88206 0,0.11615 0.0141,0.22553 0.0141,0.34182 l 15.32263,-0.45107 c 0.003,-2.8368 0.12687,-5.61722 0.34536,-8.33773"
       style="fill:#ffffff;fill-opacity:1;fill-rule:nonzero;stroke:none"
       id="path898" />
    <path
       inkscape:connector-curvature="0"
       d="m 240.08331,506.37739 c 1.69507,2.42098 3.70379,4.60232 5.98738,6.47708 l 6.17063,-2.32231 c -0.5286,-2.20953 -0.98673,-4.47898 -1.36028,-6.8189 l -10.79773,2.66413"
       style="fill:#ffffff;fill-opacity:1;fill-rule:nonzero;stroke:none"
       id="path900" />
    <path
       inkscape:connector-curvature="0"
       d="m 323.89963,463.61741 -11.07613,0.32773 c 0.35593,2.96367 1.25809,5.75466 2.61838,8.27431 l 8.93702,-2.20249 c -0.25035,-2.07915 -0.40879,-4.21821 -0.47927,-6.39955"
       style="fill:#ffffff;fill-opacity:1;fill-rule:nonzero;stroke:none"
       id="path902" />
    <path
       inkscape:connector-curvature="0"
       d="m 324.10755,454.94489 -10.06825,-1.77961 c -0.89511,2.48793 -1.40258,5.16263 -1.40258,7.96067 0,0.0812 0.0113,0.16211 0.0113,0.24668 l 11.19948,-0.33125 c 0,-2.0721 0.0916,-4.10544 0.26078,-6.09649"
       style="fill:#ffffff;fill-opacity:1;fill-rule:nonzero;stroke:none"
       id="path904" />
    <path
       inkscape:connector-curvature="0"
       d="m 325.58413,445.335 -4.76101,-2.00515 c -2.37169,2.05096 -4.34164,4.56356 -5.75832,7.40036 l 9.30001,1.6457 c 0.28192,-2.43859 0.71186,-4.77852 1.21932,-7.04091"
       style="fill:#ffffff;fill-opacity:1;fill-rule:nonzero;stroke:none"
       id="path906" />
    <path
       inkscape:connector-curvature="0"
       d="m 316.84798,474.52765 c 1.23695,1.77257 2.70648,3.36893 4.37689,4.73976 l 4.51432,-1.69856 c -0.3806,-1.61398 -0.72595,-3.27378 -0.99731,-4.98643 l -7.8939,1.94523"
       style="fill:#ffffff;fill-opacity:1;fill-rule:nonzero;stroke:none"
       id="path908" />
    <path
       inkscape:connector-curvature="0"
       d="m 367.376,498.48367 -5.98739,0.17987 c 0.19735,1.59636 0.69072,3.1011 1.4202,4.46488 l 4.83149,-1.1911 c -0.13758,-1.12415 -0.23259,-2.2765 -0.26416,-3.45351"
       style="fill:#ffffff;fill-opacity:1;fill-rule:nonzero;stroke:none"
       id="path910" />
    <path
       inkscape:connector-curvature="0"
       d="m 368.28168,488.62005 -2.56904,-1.08186 c -1.27924,1.10653 -2.3435,2.45974 -3.10118,3.99267 l 5.01122,0.881 c 0.16211,-1.3074 0.38413,-2.57603 0.659,-3.79181"
       style="fill:#ffffff;fill-opacity:1;fill-rule:nonzero;stroke:none"
       id="path912" />
    <path
       inkscape:connector-curvature="0"
       d="m 367.48524,493.80383 -5.43058,-0.96205 c -0.48984,1.34616 -0.75415,2.78747 -0.75415,4.29573 0,0.0457 0,0.0916 0,0.1373 l 6.0473,-0.17987 c 0,-1.1171 0.0493,-2.21658 0.13729,-3.29139"
       style="fill:#ffffff;fill-opacity:1;fill-rule:nonzero;stroke:none"
       id="path914" />
    <path
       inkscape:connector-curvature="0"
       d="m 306.81497,405.08761 c 0.38412,0.54622 0.84225,1.0431 1.35677,1.47303 l 1.40962,-0.5286 c -0.11615,-0.5004 -0.22554,-1.01843 -0.31364,-1.55055 l -2.45275,0.60612"
       style="fill:#ffffff;fill-opacity:1;fill-rule:nonzero;stroke:none"
       id="path916" />
    <path
       inkscape:connector-curvature="0"
       d="m 213.31619,545.07775 179.3854,-24.77711 0,-155.46746 -179.3854,24.77006 0,155.47451 z m 120.82956,-56.49999 c -15.16052,0 -27.44893,-12.29164 -27.44893,-27.45181 0,-15.16016 12.28841,-27.4518 27.44893,-27.4518 15.16052,0 27.45245,12.29164 27.45245,27.4518 0,15.16017 -12.29193,27.45181 -27.45245,27.45181 z m 52.65303,8.55975 c 0,8.18621 -6.63229,14.81834 -14.81516,14.81834 -8.1864,0 -14.81164,-6.63213 -14.81164,-14.81834 0,-8.18268 6.62524,-14.81481 14.81164,-14.81481 8.18287,0 14.81516,6.63213 14.81516,14.81481 z m -12.61262,-72.36494 c 0,4.91595 -3.98924,8.90158 -8.90531,8.90158 -4.90902,0 -8.89826,-3.98563 -8.89826,-8.90158 0,-4.91595 3.98924,-8.89805 8.89826,-8.89805 4.91607,0 8.90531,3.9821 8.90531,8.89805 z m -30.75803,-46.34739 c 9.84623,0 17.83176,7.97829 17.83176,17.82781 0,9.84601 -7.98553,17.82782 -17.83176,17.82782 -9.84975,0 -17.82823,-7.98181 -17.82823,-17.82782 0,-9.84952 7.97848,-17.82781 17.82823,-17.82781 z m -32.60463,13.95144 c 4.71167,0 8.54233,3.82351 8.54233,8.54212 0,4.71509 -3.83066,8.53861 -8.54233,8.53861 -4.72225,0 -8.54585,-3.82352 -8.54585,-8.53861 0,-4.71861 3.8236,-8.54212 8.54585,-8.54212 z m -29.77129,12.92596 c 9.84976,0 17.82471,7.97829 17.82471,17.82781 0,9.84601 -7.97495,17.8243 -17.82471,17.8243 -9.84623,0 -17.82471,-7.97829 -17.82471,-17.8243 0,-9.84952 7.97848,-17.82781 17.82471,-17.82781 z m -41.13287,-14.70205 c 4.91607,0 8.90531,3.9821 8.90531,8.89805 0,4.91595 -3.98924,8.90158 -8.90531,8.90158 -4.91959,0 -8.90178,-3.98563 -8.90178,-8.90158 0,-4.91595 3.98219,-8.89805 8.90178,-8.89805 z m 24.5451,59.91824 c 20.73912,0 37.54538,16.80234 37.54538,37.5304 0,20.73158 -16.80626,37.53744 -37.54538,37.53744 -20.72149,0 -37.53127,-16.80586 -37.53127,-37.53744 0,-20.72806 16.80978,-37.5304 37.53127,-37.5304"
       style="fill:#ffffff;fill-opacity:1;fill-rule:nonzero;stroke:none"
       id="path918" />
    <path
       inkscape:connector-curvature="0"
       d="m 309.0739,398.99465 -3.12937,-0.55326 c -0.28193,0.76822 -0.43699,1.60693 -0.43699,2.47735 0,0.0254 0,0.0493 0,0.0739 l 3.4853,-0.10206 c 0,-0.64136 0.0282,-1.2792 0.0812,-1.8959"
       style="fill:#ffffff;fill-opacity:1;fill-rule:nonzero;stroke:none"
       id="path920" />
    <path
       inkscape:connector-curvature="0"
       d="m 363.57001,504.37577 c 0.66957,0.95147 1.45896,1.81485 2.36112,2.55136 l 2.43513,-0.91271 c -0.21144,-0.87395 -0.39822,-1.76904 -0.53566,-2.69584 l -4.26059,1.05719"
       style="fill:#ffffff;fill-opacity:1;fill-rule:nonzero;stroke:none"
       id="path922" />
    <path
       inkscape:connector-curvature="0"
       d="m 309.01046,401.6905 -3.45006,0.10233 c 0.10939,0.92329 0.39118,1.79018 0.81406,2.57603 l 2.78754,-0.6907 c -0.0775,-0.64489 -0.13025,-1.30739 -0.1514,-1.98752"
       style="fill:#ffffff;fill-opacity:1;fill-rule:nonzero;stroke:none"
       id="path924" />
    <path
       inkscape:connector-curvature="0"
       d="m 309.53202,396.00632 -1.4801,-0.62727 c -0.73653,0.63784 -1.34972,1.42016 -1.7867,2.30468 l 2.88973,0.51098 c 0.0916,-0.75766 0.21849,-1.48712 0.37707,-2.18839"
       style="fill:#ffffff;fill-opacity:1;fill-rule:nonzero;stroke:none"
       id="path926" />
  </g>
</svg>
