<?xml version="1.0" encoding="UTF-8" standalone="no"?>
<!-- Created with Inkscape (http://www.inkscape.org/) -->

<svg
   xmlns:dc="http://purl.org/dc/elements/1.1/"
   xmlns:cc="http://creativecommons.org/ns#"
   xmlns:rdf="http://www.w3.org/1999/02/22-rdf-syntax-ns#"
   xmlns:svg="http://www.w3.org/2000/svg"
   xmlns="http://www.w3.org/2000/svg"
   xmlns:sodipodi="http://sodipodi.sourceforge.net/DTD/sodipodi-0.dtd"
   xmlns:inkscape="http://www.inkscape.org/namespaces/inkscape"
   width="300"
   height="300"
   id="svg6254"
   version="1.1"
   inkscape:version="0.48.4 r9939"
   sodipodi:docname="New document 46">
  <defs
     id="defs6256">
    <clipPath
       clipPathUnits="userSpaceOnUse"
       id="clipPath158">
      <path
         inkscape:connector-curvature="0"
         d="m 2541.7,2641.63 -553.32,0 c -62.76,0 -113.79,-51.04 -113.79,-113.79 l 0,-257.13 c 39.88,-12.2 82.99,-18.37 128.5,-18.37 l 0.03,0 c 63.23,0 130.63,11.88 200.31,35.25 174.27,58.5 333.52,125.54 452.06,175.79 l 0,64.46 c 0,62.75 -51.03,113.79 -113.79,113.79 l 0,0"
         id="path160" />
    </clipPath>
    <linearGradient
       x1="0"
       y1="0"
       x2="1"
       y2="0"
       gradientUnits="userSpaceOnUse"
       gradientTransform="matrix(-4e-6,-84.4207,415.773,-2e-5,18.6172,265.275)"
       spreadMethod="pad"
       id="linearGradient162">
      <stop
         style="stop-color:#393536;stop-opacity:1;"
         offset="0"
         id="stop164" />
      <stop
         style="stop-opacity:1;stop-color:#5d5a5b"
         offset="0.0484848"
         id="stop166" />
      <stop
         style="stop-opacity:1;stop-color:#343131"
         offset="1"
         id="stop168" />
    </linearGradient>
    <clipPath
       clipPathUnits="userSpaceOnUse"
       id="clipPath124">
      <path
         inkscape:connector-curvature="0"
         d="m 2003.09,2252.34 c -45.51,0 -88.62,6.17 -128.5,18.37 l 0,257.13 c 0,62.75 51.03,113.79 113.79,113.79 l 553.32,0 c 62.76,0 113.79,-51.04 113.79,-113.79 l 0,-64.46 c -118.54,-50.25 -277.79,-117.29 -452.06,-175.79 -69.68,-23.37 -137.08,-35.25 -200.31,-35.25 l -0.03,0 0,0 z m 538.61,424.5 -553.34,0 c -82.28,0 -148.98,-66.7 -148.98,-149 l 0,-553.33 c 0,-82.28 66.7,-148.98 148.98,-148.98 l 553.34,0 c 82.27,0 148.98,66.7 148.98,148.98 l 0,553.33 c 0,82.3 -66.71,149 -148.98,149 l 0,0"
         id="path126" />
    </clipPath>
    <linearGradient
       x1="0"
       y1="0"
       x2="1"
       y2="0"
       gradientUnits="userSpaceOnUse"
       gradientTransform="matrix(-4e-6,-84.4207,422.813,-2e-5,15.0967,265.275)"
       spreadMethod="pad"
       id="linearGradient128">
      <stop
         style="stop-opacity:1;stop-color:#393536"
         offset="0"
         id="stop130" />
      <stop
         style="stop-opacity:1;stop-color:#4f4c4d"
         offset="0.0484848"
         id="stop132" />
      <stop
         style="stop-opacity:1;stop-color:#231f20"
         offset="1"
         id="stop134" />
    </linearGradient>
  </defs>
  <sodipodi:namedview
     id="base"
     pagecolor="#ffffff"
     bordercolor="#666666"
     borderopacity="1.0"
     inkscape:pageopacity="0.0"
     inkscape:pageshadow="2"
     inkscape:zoom="0.35"
     inkscape:cx="153.92053"
     inkscape:cy="-169.65023"
     inkscape:document-units="px"
     inkscape:current-layer="layer1"
     showgrid="false"
     fit-margin-top="0"
     fit-margin-left="0"
     fit-margin-right="0"
     fit-margin-bottom="0"
     inkscape:window-width="1855"
     inkscape:window-height="1056"
     inkscape:window-x="2625"
     inkscape:window-y="24"
     inkscape:window-maximized="1" />
  <metadata
     id="metadata6259">
    <rdf:RDF>
      <cc:Work
         rdf:about="">
        <dc:format>image/svg+xml</dc:format>
        <dc:type
           rdf:resource="http://purl.org/dc/dcmitype/StillImage" />
        <dc:title></dc:title>
      </cc:Work>
    </rdf:RDF>
  </metadata>
  <g
     inkscape:label="Layer 1"
     inkscape:groupmode="layer"
     id="layer1"
     transform="translate(-221.07947,-62.71195)">
    <g
       transform="matrix(0.35240221,0,0,-0.35239807,-427.12211,1006.0252)"
       id="g120">
      <g
         id="g122"
         clip-path="url(#clipPath124)">
        <path
           inkscape:connector-curvature="0"
           d="m 2003.09,2252.34 c -45.51,0 -88.62,6.17 -128.5,18.37 l 0,257.13 c 0,62.75 51.03,113.79 113.79,113.79 l 553.32,0 c 62.76,0 113.79,-51.04 113.79,-113.79 l 0,-64.46 c -118.54,-50.25 -277.79,-117.29 -452.06,-175.79 -69.68,-23.37 -137.08,-35.25 -200.31,-35.25 l -0.03,0 0,0 z m 538.61,424.5 -553.34,0 c -82.28,0 -148.98,-66.7 -148.98,-149 l 0,-553.33 c 0,-82.28 66.7,-148.98 148.98,-148.98 l 553.34,0 c 82.27,0 148.98,66.7 148.98,148.98 l 0,553.33 c 0,82.3 -66.71,149 -148.98,149 l 0,0"
           style="fill:url(#linearGradient128);fill-opacity:1;fill-rule:nonzero;stroke:none"
           id="path136" />
      </g>
    </g>
    <g
       id="g154"
       transform="matrix(0.36947626,0,0,-0.45514641,-468.01769,1271.8099)">
      <g
         id="g156"
         clip-path="url(#clipPath158)">
        <path
           d="m 2541.7,2641.63 -553.32,0 c -62.76,0 -113.79,-51.04 -113.79,-113.79 l 0,-257.13 c 39.88,-12.2 82.99,-18.37 128.5,-18.37 l 0.03,0 c 63.23,0 130.63,11.88 200.31,35.25 174.27,58.5 333.52,125.54 452.06,175.79 l 0,64.46 c 0,62.75 -51.03,113.79 -113.79,113.79 l 0,0"
           style="fill:url(#linearGradient162);fill-opacity:1;fill-rule:nonzero;stroke:none"
           id="path170"
           inkscape:connector-curvature="0" />
      </g>
    </g>
    <path
       inkscape:connector-curvature="0"
       d="m 327.47673,238.77351 c -0.003,0 -0.003,0 -0.003,0 -10.74122,0 -20.84107,-4.18297 -28.43886,-11.77362 -3.34782,-3.34778 -5.99084,-7.22064 -7.9502,-11.37541 -19.85095,3.95391 -36.73102,18.80044 -42.26373,39.69412 -7.7458,29.23494 9.67344,59.20992 38.90872,66.95211 29.23881,7.74923 59.21062,-9.66981 66.95642,-38.90827 4.64114,-17.49304 0.2574,-35.24686 -10.27605,-48.35254 -5.24374,2.43507 -10.98085,3.76361 -16.93292,3.76361 z m -54.19593,56.95458 -9.57477,0.95852 c -2.51263,-3.48874 -4.53189,-7.31579 -6.01198,-11.37189 l 16.21755,0.28192 c -0.3524,3.44293 -0.54975,6.82243 -0.6308,10.13145 z m 1.2475,-15.25884 -18.37072,-0.31364 c -1.32151,-5.55027 -1.64925,-11.41065 -0.8211,-17.29569 l 21.53177,5.02872 c -0.9832,4.24287 -1.76201,8.44698 -2.33995,12.58061 z m 3.55927,-17.57409 -21.77494,-5.08511 c 0.0389,-0.1621 0.0671,-0.3242 0.10572,-0.48278 1.43076,-5.39522 3.77423,-10.29003 6.78022,-14.64214 l 18.50817,8.58441 c -1.34266,3.76009 -2.55844,7.63295 -3.61917,11.62562 z m 5.42347,-16.45347 -17.09504,-7.91838 c 4.17245,-4.7609 9.25056,-8.58442 14.88547,-11.32608 l 8.16516,6.30088 c -2.14613,4.09839 -4.1513,8.40117 -5.95559,12.94358"
       style="fill:#ffffff;fill-opacity:1;fill-rule:nonzero;stroke:none"
       id="path966" />
    <path
       inkscape:connector-curvature="0"
       d="m 360.10213,190.38221 c -8.86996,0 -17.20075,-3.44998 -23.47351,-9.72267 -1.95583,-1.95228 -3.5945,-4.1301 -4.98649,-6.43831 -2.35405,1.51531 -4.70809,3.15044 -7.0269,4.97939 l -7.2172,-10.32174 c 3.58746,-1.20873 7.34759,-1.70561 11.0901,-1.5858 -0.55327,-1.73027 -0.94091,-3.52398 -1.20169,-5.3353 -9.30694,0.0493 -18.60332,3.61913 -25.70422,10.71642 -14.29696,14.29679 -14.29696,37.47401 0,51.77433 14.30048,14.30031 37.4815,14.30031 51.77846,0 9.28932,-9.28569 12.4997,-22.29975 9.72982,-34.21433 -0.99025,0.0916 -1.98402,0.14801 -2.98837,0.14801 z m -57.95254,13.86686 -5.86045,-2.66061 c -0.27487,-2.86147 -0.16211,-5.75466 0.34183,-8.59146 l 9.28227,5.61018 c -1.35322,1.86771 -2.60072,3.75656 -3.76365,5.64189 z m 5.84635,-8.39412 -10.51216,-6.35726 c 1.09597,-3.65789 2.87208,-7.14664 5.32832,-10.27945 l 10.75884,10.14554 c -1.99107,2.12143 -3.85528,4.28868 -5.575,6.49117 z m 7.95724,-8.96853 -10.87513,-10.25479 c 0.0775,-0.0809 0.14434,-0.16548 0.22215,-0.24301 2.6395,-2.63594 5.63844,-4.68689 8.83473,-6.18106 l 7.8198,11.17102 c -2.03688,1.72675 -4.04205,3.55569 -6.00141,5.50798"
       style="fill:#ffffff;fill-opacity:1;fill-rule:nonzero;stroke:none"
       id="path968" />
    <path
       inkscape:connector-curvature="0"
       d="m 339.18001,136.26091 c -11.55527,11.55866 -11.55527,30.29566 0,41.84727 11.55879,11.56218 30.29602,11.55513 41.84776,0 11.55527,-11.55161 11.55527,-30.28861 0.003,-41.84727 -11.56231,-11.55866 -30.29249,-11.55161 -41.85128,0 z m 0.4546,25.52419 -4.73628,-2.14963 c -0.22554,-2.31525 -0.12687,-4.65517 0.27825,-6.94224 l 7.50265,4.53184 c -1.09598,1.50827 -2.10737,3.03767 -3.04476,4.56003 z m 4.72924,-6.79423 -8.49994,-5.13444 c 0.88805,-2.9531 2.32585,-5.77228 4.3134,-8.3025 l 8.69024,8.19678 c -1.60696,1.71618 -3.11524,3.4676 -4.5037,5.24016 z m 6.42781,-7.24178 -8.78891,-8.2884 c 0.0668,-0.0671 0.11982,-0.13392 0.17959,-0.1903 2.13556,-2.13553 4.55656,-3.7918 7.14319,-5.00758 l 6.31857,9.03901 c -1.65276,1.3814 -3.26677,2.87205 -4.85258,4.44727 z m 6.99871,-6.20926 -5.82873,-8.34126 c 3.23505,-1.09596 6.65335,-1.50474 10.02584,-1.25806 l 2.10032,5.16968 c -2.11089,1.32854 -4.21825,2.79804 -6.29743,4.42964"
       style="fill:#ffffff;fill-opacity:1;fill-rule:nonzero;stroke:none"
       id="path970" />
    <path
       inkscape:connector-curvature="0"
       d="m 312.04152,144.18634 c 8.58099,-8.58089 8.58099,-22.49357 0,-31.07093 -8.57747,-8.5809 -22.48679,-8.5809 -31.06778,0 -8.57747,8.57736 -8.57747,22.49004 0,31.07093 8.58099,8.5809 22.49383,8.5809 31.06778,0 z m -14.13485,-34.27776 1.56114,3.83409 c -1.56467,0.98672 -3.13286,2.07563 -4.67638,3.28435 l -4.3275,-6.18458 c 2.40338,-0.81757 4.93716,-1.12063 7.44274,-0.93386 z m -14.70222,5.43398 c 1.57876,-1.57874 3.38306,-2.80861 5.30365,-3.7037 l 4.69047,6.70261 c -1.21931,1.03253 -2.42805,2.12848 -3.59802,3.29492 l -6.53002,-6.14582 c 0.0493,-0.0457 0.088,-0.095 0.13392,-0.14801 z m -1.49067,1.70913 6.45601,6.07887 c -1.19464,1.27216 -2.3188,2.5725 -3.34782,3.88695 l -6.31152,-3.81295 c 0.65899,-2.18839 1.72677,-4.28516 3.20333,-6.15287 z m -3.71079,8.25669 5.57148,3.36188 c -0.81405,1.13472 -1.56114,2.26239 -2.26242,3.39711 l -3.51345,-1.59636 c -0.16577,-1.71618 -0.0987,-3.4535 0.20439,-5.16263"
       style="fill:#ffffff;fill-opacity:1;fill-rule:nonzero;stroke:none"
       id="path972" />
    <path
       inkscape:connector-curvature="0"
       d="m 462.69346,251.70299 c -7.21367,0 -14.07847,-2.10381 -20.01644,-6.09296 -1.63515,1.15234 -3.2703,2.35754 -4.89135,3.63675 l -9.65229,-13.79991 c 1.25103,-0.4264 2.52672,-0.77527 3.80947,-1.07129 -1.25103,-2.06505 -2.28357,-4.2323 -3.09762,-6.47003 -8.00658,2.14963 -15.5797,6.32907 -21.86656,12.61585 -19.12134,19.12112 -19.12486,50.12863 0,69.24975 19.12839,19.12817 50.13274,19.11759 69.25056,0 17.23599,-17.23579 18.89228,-44.10262 5.05345,-63.23431 -5.52567,3.33016 -11.90062,5.16615 -18.58922,5.16615 z m -54.95712,31.05685 -7.83743,-3.55922 c -0.37002,-3.8341 -0.2151,-7.6999 0.45813,-11.49875 l 12.41513,7.5096 c -1.81488,2.50203 -3.48526,5.02167 -5.03583,7.54837 z m 7.82333,-11.24503 -14.0679,-8.49279 c 1.47304,-4.89128 3.84823,-9.56056 7.13967,-13.74 l 14.37801,13.56028 c -2.65711,2.83328 -5.1486,5.72999 -7.44978,8.67251 z m 10.64254,-11.98858 -14.55068,-13.71181 c 0.10572,-0.10572 0.19368,-0.21848 0.30306,-0.31716 3.52402,-3.53455 7.53789,-6.27621 11.81605,-8.2743 l 10.44872,14.9452 c -2.71702,2.30468 -5.40232,4.75033 -8.01715,7.35807"
       style="fill:#ffffff;fill-opacity:1;fill-rule:nonzero;stroke:none"
       id="path974" />
    <path
       inkscape:connector-curvature="0"
       d="m 421.67737,191.72132 c 3.13285,2.43507 6.5864,4.17239 10.1668,5.30359 0.72243,-1.20873 1.50828,-2.39278 2.39634,-3.53455 6.88241,-8.85577 17.27475,-13.93382 28.50229,-13.93382 2.72054,0 5.3847,0.32068 7.98191,0.90566 6.70269,-13.53561 3.20333,-30.36966 -9.18713,-40.00775 -14.16304,-11.00539 -34.55303,-8.44698 -45.5656,5.70885 -11.002,14.15935 -8.45061,34.54558 5.70539,45.55802 z m 18.5434,-53.37069 2.98837,5.33883 c -2.11793,1.72675 -4.20768,3.61561 -6.24809,5.67714 l -7.48502,-8.28841 c 3.37249,-1.62455 7.03395,-2.53726 10.74474,-2.72756 z m -20.56619,10.67766 c 2.02984,-2.61479 4.44379,-4.75032 7.09386,-6.42069 l 8.10877,8.97206 c -1.60695,1.73732 -3.16457,3.57684 -4.66933,5.50798 L 419.4819,149.2644 c 0.0634,-0.0846 0.11277,-0.16915 0.17282,-0.23625 z m -1.87126,2.75928 10.57559,7.73514 c -1.5118,2.09677 -2.91436,4.20058 -4.18653,6.33259 l -9.95184,-4.44374 c 0.56384,-3.33016 1.74087,-6.60041 3.56278,-9.62399 z m -3.92223,12.7991 8.77834,3.92219 c -0.98321,1.7937 -1.87478,3.59093 -2.68883,5.37407 l -5.44814,-1.69151 c -0.56032,-2.48441 -0.77528,-5.04987 -0.64137,-7.60475"
       style="fill:#ffffff;fill-opacity:1;fill-rule:nonzero;stroke:none"
       id="path976" />
    <path
       inkscape:connector-curvature="0"
       d="m 437.08792,195.70342 c -11.00552,14.14878 -8.45766,34.55615 5.69834,45.55802 14.15952,11.00892 34.54951,8.45051 45.55856,-5.70533 11.00904,-14.1523 8.45765,-34.54558 -5.69834,-45.56154 -14.15953,-11.00539 -34.54952,-8.44698 -45.55856,5.70885 z m 3.97157,27.72315 -5.45166,-1.68798 c -0.55327,-2.49146 -0.76824,-5.05339 -0.63785,-7.60828 l 8.78539,3.91867 c -0.98673,1.79723 -1.88535,3.58741 -2.69588,5.37759 z m 4.22178,-8.03115 -9.94832,-4.44021 c 0.5568,-3.33721 1.73735,-6.60042 3.55927,-9.624 l 10.57911,7.73514 c -1.51533,2.0862 -2.91437,4.19354 -4.19006,6.32907 z m 6.01198,-8.77119 -10.69893,-7.82323 c 0.0634,-0.0812 0.11277,-0.16577 0.16915,-0.2433 2.03689,-2.60422 4.44732,-4.73975 7.09738,-6.41364 l 8.10878,8.9791 c -1.59991,1.73732 -3.16105,3.57684 -4.67638,5.50093 z m 6.78022,-7.72104 -7.48855,-8.28135 c 3.37249,-1.62456 7.03747,-2.53375 10.74827,-2.72756 l 2.99189,5.3353 c -2.1285,1.73028 -4.21473,3.61561 -6.25161,5.67361"
       style="fill:#ffffff;fill-opacity:1;fill-rule:nonzero;stroke:none"
       id="path978" />
  </g>
</svg>
