<?xml version="1.0" encoding="UTF-8" standalone="no"?>
<!-- Created with Inkscape (http://www.inkscape.org/) -->

<svg
   xmlns:dc="http://purl.org/dc/elements/1.1/"
   xmlns:cc="http://creativecommons.org/ns#"
   xmlns:rdf="http://www.w3.org/1999/02/22-rdf-syntax-ns#"
   xmlns:svg="http://www.w3.org/2000/svg"
   xmlns="http://www.w3.org/2000/svg"
   xmlns:sodipodi="http://sodipodi.sourceforge.net/DTD/sodipodi-0.dtd"
   xmlns:inkscape="http://www.inkscape.org/namespaces/inkscape"
   width="300"
   height="300"
   id="svg5949"
   version="1.1"
   inkscape:version="0.48.4 r9939"
   sodipodi:docname="New document 36">
  <defs
     id="defs5951">
    <clipPath
       clipPathUnits="userSpaceOnUse"
       id="clipPath262">
      <path
         inkscape:connector-curvature="0"
         d="m 5370.94,4078.32 -553.34,0 c -62.74,0 -113.79,-51.05 -113.79,-113.78 l 0,-257.15 c 39.89,-12.19 83.01,-18.36 128.53,-18.36 63.23,0 130.64,11.87 200.32,35.25 174.27,58.5 333.51,125.53 452.06,175.78 l 0,64.48 c 0,62.73 -51.04,113.78 -113.78,113.78 l 0,0"
         id="path264" />
    </clipPath>
    <linearGradient
       x1="0"
       y1="0"
       x2="1"
       y2="0"
       gradientUnits="userSpaceOnUse"
       gradientTransform="matrix(-4e-6,-84.4207,415.773,-2e-5,301.54,408.9)"
       spreadMethod="pad"
       id="linearGradient266">
      <stop
         style="stop-color:#38bff3;stop-opacity:1;"
         offset="0"
         id="stop268" />
      <stop
         style="stop-opacity:1;stop-color:#90dbf8"
         offset="0.0484848"
         id="stop270" />
      <stop
         style="stop-opacity:1;stop-color:#299cca"
         offset="1"
         id="stop272" />
    </linearGradient>
    <clipPath
       clipPathUnits="userSpaceOnUse"
       id="clipPath228">
      <path
         inkscape:connector-curvature="0"
         d="m 4832.34,3689.03 c -45.52,0 -88.64,6.17 -128.53,18.36 l 0,257.15 c 0,62.73 51.05,113.78 113.79,113.78 l 553.34,0 c 62.74,0 113.78,-51.05 113.78,-113.78 l 0,-64.48 c -118.55,-50.25 -277.79,-117.28 -452.06,-175.78 -69.68,-23.38 -137.09,-35.25 -200.32,-35.25 l 0,0 z m 538.6,424.49 -553.34,0 c -82.29,0 -148.97,-66.7 -148.97,-148.98 l 0,-553.34 c 0,-82.28 66.68,-148.99 148.97,-148.99 l 553.34,0 c 82.27,0 148.98,66.71 148.98,148.99 l 0,553.34 c 0,82.28 -66.71,148.98 -148.98,148.98 l 0,0"
         id="path230" />
    </clipPath>
    <linearGradient
       x1="0"
       y1="0"
       x2="1"
       y2="0"
       gradientUnits="userSpaceOnUse"
       gradientTransform="matrix(-4e-6,-84.4207,422.813,-2e-5,298.021,408.9)"
       spreadMethod="pad"
       id="linearGradient232">
      <stop
         style="stop-opacity:1;stop-color:#38bff3"
         offset="0"
         id="stop234" />
      <stop
         style="stop-opacity:1;stop-color:#7fd6f7"
         offset="0.0484848"
         id="stop236" />
      <stop
         style="stop-opacity:1;stop-color:#0084ba"
         offset="1"
         id="stop238" />
    </linearGradient>
  </defs>
  <sodipodi:namedview
     id="base"
     pagecolor="#ffffff"
     bordercolor="#666666"
     borderopacity="1.0"
     inkscape:pageopacity="0.0"
     inkscape:pageshadow="2"
     inkscape:zoom="0.35"
     inkscape:cx="256.77704"
     inkscape:cy="-1.0788906"
     inkscape:document-units="px"
     inkscape:current-layer="layer1"
     showgrid="false"
     fit-margin-top="0"
     fit-margin-left="0"
     fit-margin-right="0"
     fit-margin-bottom="0"
     inkscape:window-width="1855"
     inkscape:window-height="1056"
     inkscape:window-x="2625"
     inkscape:window-y="24"
     inkscape:window-maximized="1" />
  <metadata
     id="metadata5954">
    <rdf:RDF>
      <cc:Work
         rdf:about="">
        <dc:format>image/svg+xml</dc:format>
        <dc:type
           rdf:resource="http://purl.org/dc/dcmitype/StillImage" />
        <dc:title></dc:title>
      </cc:Work>
    </rdf:RDF>
  </metadata>
  <g
     inkscape:label="Layer 1"
     inkscape:groupmode="layer"
     id="layer1"
     transform="translate(-118.22296,-231.28329)">
    <g
       transform="matrix(0.35240635,0,0,-0.35239807,-1527.0319,1680.8798)"
       id="g224">
      <g
         id="g226"
         clip-path="url(#clipPath228)">
        <path
           inkscape:connector-curvature="0"
           d="m 4832.34,3689.03 c -45.52,0 -88.64,6.17 -128.53,18.36 l 0,257.15 c 0,62.73 51.05,113.78 113.79,113.78 l 553.34,0 c 62.74,0 113.78,-51.05 113.78,-113.78 l 0,-64.48 c -118.55,-50.25 -277.79,-117.28 -452.06,-175.78 -69.68,-23.38 -137.09,-35.25 -200.32,-35.25 l 0,0 z m 538.6,424.49 -553.34,0 c -82.29,0 -148.97,-66.7 -148.97,-148.98 l 0,-553.34 c 0,-82.28 66.68,-148.99 148.97,-148.99 l 553.34,0 c 82.27,0 148.98,66.71 148.98,148.99 l 0,553.34 c 0,82.28 -66.71,148.98 -148.98,148.98 l 0,0"
           style="fill:url(#linearGradient232);fill-opacity:1;fill-rule:nonzero;stroke:none"
           id="path240" />
      </g>
    </g>
    <g
       id="g258"
       transform="matrix(0.37232605,0,0,-0.44943818,-1625.1748,2071.002)">
      <g
         id="g260"
         clip-path="url(#clipPath262)">
        <path
           d="m 5370.94,4078.32 -553.34,0 c -62.74,0 -113.79,-51.05 -113.79,-113.78 l 0,-257.15 c 39.89,-12.19 83.01,-18.36 128.53,-18.36 63.23,0 130.64,11.87 200.32,35.25 174.27,58.5 333.51,125.53 452.06,175.78 l 0,64.48 c 0,62.73 -51.04,113.78 -113.78,113.78 l 0,0"
           style="fill:url(#linearGradient266);fill-opacity:1;fill-rule:nonzero;stroke:none"
           id="path274"
           inkscape:connector-curvature="0" />
      </g>
    </g>
    <path
       inkscape:connector-curvature="0"
       d="m 296.57366,303.78219 c 0,-2.56193 -2.08258,-4.63755 -4.63767,-4.63755 l -48.13504,0 c -2.56214,0 -4.63429,2.07562 -4.63429,4.63755 l 0,2.69585 57.407,0 0,-2.69585"
       style="fill:#ffffff;fill-opacity:1;fill-rule:nonzero;stroke:none"
       id="path848" />
    <path
       inkscape:connector-curvature="0"
       d="m 289.8145,292.84728 c 0,-4.67632 -4.44032,-4.97586 -4.44032,-4.97586 l -35.00804,0 c 0,0 -4.43327,0.29954 -4.43327,4.97586 0,2.91433 0,3.70018 0,3.88343 l 43.88163,0 c 0,-0.18325 0,-0.9691 0,-3.88343"
       style="fill:#ffffff;fill-opacity:1;fill-rule:nonzero;stroke:none"
       id="path850" />
    <path
       inkscape:connector-curvature="0"
       d="m 283.8766,267.94684 c 0,-5.77229 -5.4764,-6.1423 -5.4764,-6.1423 l -21.05642,0 c 0,0 -5.48682,0.37001 -5.48682,6.1423 0,5.76523 0,17.55999 0,17.55999 l 32.01964,0 c 0,0 0,-11.79476 0,-17.55999"
       style="fill:#ffffff;fill-opacity:1;fill-rule:nonzero;stroke:none"
       id="path852" />
    <path
       inkscape:connector-curvature="0"
       d="m 340.52944,361.24422 c -5.41662,-34.55967 -43.58561,-52.39807 -43.58561,-52.39807 l -58.1541,0 c 0,0 -38.16561,17.8384 -43.59267,52.39807 -7.22799,46.10777 6.11411,123.69525 6.11411,123.69525 4.05972,18.13793 12.1335,22.31032 12.1335,22.31032 l 108.85465,0 c 0,0 8.07377,-4.17239 12.14054,-22.31032 0,0 13.32434,-77.58748 6.08958,-123.69525 z m -48.57935,-40.87465 2.17787,0 c 7.26323,3.99267 31.29368,18.88149 35.01876,42.65779 2.23425,14.1805 2.38226,31.7264 1.56806,48.97981 -25.57765,-10.99482 -43.48694,-36.40272 -43.48694,-66.01121 0,-9.03196 1.67407,-17.66572 4.72225,-25.62639 z m 34.94461,163.07926 c -0.0536,0.23258 -0.10995,0.43697 -0.15788,0.65193 l -117.73896,0 c -0.0479,-0.2151 -0.0987,-0.41935 -0.15224,-0.65193 -0.41217,-2.45269 -4.63767,-28.07908 -6.81554,-57.61709 l 131.68016,0 c -2.17082,29.54153 -6.40308,55.1644 -6.81554,57.61709"
       style="fill:#ffffff;fill-opacity:1;fill-rule:nonzero;stroke:none"
       id="path854" />
    <path
       inkscape:connector-curvature="0"
       d="m 320.08987,476.24581 c 1.26162,-8.29545 3.48883,-24.17098 5.10623,-42.55912 l -114.65893,0 c 1.63517,18.46566 3.86942,34.36939 5.11356,42.55912 l 104.43914,0"
       style="fill:#ffffff;fill-opacity:1;fill-rule:nonzero;stroke:none"
       id="path856" />
  </g>
</svg>
