<?xml version="1.0" encoding="UTF-8" standalone="no"?>
<!-- Created with Inkscape (http://www.inkscape.org/) -->

<svg
   xmlns:dc="http://purl.org/dc/elements/1.1/"
   xmlns:cc="http://creativecommons.org/ns#"
   xmlns:rdf="http://www.w3.org/1999/02/22-rdf-syntax-ns#"
   xmlns:svg="http://www.w3.org/2000/svg"
   xmlns="http://www.w3.org/2000/svg"
   xmlns:sodipodi="http://sodipodi.sourceforge.net/DTD/sodipodi-0.dtd"
   xmlns:inkscape="http://www.inkscape.org/namespaces/inkscape"
   width="300"
   height="300"
   id="svg5087"
   version="1.1"
   inkscape:version="0.48.4 r9939"
   sodipodi:docname="New document 12">
  <defs
     id="defs5089">
    <clipPath
       clipPathUnits="userSpaceOnUse"
       id="clipPath574">
      <path
         inkscape:connector-curvature="0"
         d="m 2541.7,5515.02 -553.34,0 c -62.74,0 -113.79,-51.05 -113.79,-113.79 l 0,-257.14 c 39.9,-12.19 83.02,-18.36 128.52,-18.36 l 0.02,0 c 63.23,0 130.63,11.86 200.31,35.25 174.28,58.49 333.51,125.52 452.07,175.77 l 0,64.48 c 0,62.74 -51.04,113.79 -113.79,113.79 l 0,0"
         id="path576" />
    </clipPath>
    <linearGradient
       x1="0"
       y1="0"
       x2="1"
       y2="0"
       gradientUnits="userSpaceOnUse"
       gradientTransform="matrix(-4e-6,-84.4207,415.774,-2e-5,18.6167,552.713)"
       spreadMethod="pad"
       id="linearGradient578">
      <stop
         style="stop-color:#f57d14;stop-opacity:1;"
         offset="0"
         id="stop580" />
      <stop
         style="stop-opacity:1;stop-color:#fabb23"
         offset="0.0484848"
         id="stop582" />
      <stop
         style="stop-opacity:1;stop-color:#f57a28"
         offset="1"
         id="stop584" />
    </linearGradient>
    <clipPath
       clipPathUnits="userSpaceOnUse"
       id="clipPath540">
      <path
         inkscape:connector-curvature="0"
         d="m 2003.09,5125.73 c -45.5,0 -88.62,6.17 -128.52,18.36 l 0,257.14 c 0,62.74 51.05,113.79 113.79,113.79 l 553.34,0 c 62.75,0 113.79,-51.05 113.79,-113.79 l 0,-64.48 c -118.56,-50.25 -277.79,-117.28 -452.07,-175.77 -69.68,-23.39 -137.08,-35.25 -200.31,-35.25 l -0.02,0 0,0 z m 538.61,424.48 -553.34,0 c -82.27,0 -148.97,-66.7 -148.97,-148.98 l 0,-553.34 c 0,-82.27 66.7,-148.98 148.97,-148.98 l 553.34,0 c 82.28,0 148.98,66.71 148.98,148.98 l 0,553.34 c 0,82.28 -66.7,148.98 -148.98,148.98 l 0,0"
         id="path542" />
    </clipPath>
    <linearGradient
       x1="0"
       y1="0"
       x2="1"
       y2="0"
       gradientUnits="userSpaceOnUse"
       gradientTransform="matrix(-4e-6,-84.4207,422.812,-2e-5,15.0972,552.713)"
       spreadMethod="pad"
       id="linearGradient544">
      <stop
         style="stop-opacity:1;stop-color:#f57d14"
         offset="0"
         id="stop546" />
      <stop
         style="stop-opacity:1;stop-color:#f9a70d"
         offset="0.0484848"
         id="stop548" />
      <stop
         style="stop-opacity:1;stop-color:#f2521b"
         offset="1"
         id="stop550" />
    </linearGradient>
  </defs>
  <sodipodi:namedview
     id="base"
     pagecolor="#ffffff"
     bordercolor="#666666"
     borderopacity="1.0"
     inkscape:pageopacity="0.0"
     inkscape:pageshadow="2"
     inkscape:zoom="0.35"
     inkscape:cx="248.20561"
     inkscape:cy="-106.79375"
     inkscape:document-units="px"
     inkscape:current-layer="layer1"
     showgrid="false"
     fit-margin-top="0"
     fit-margin-left="0"
     fit-margin-right="0"
     fit-margin-bottom="0"
     inkscape:window-width="1855"
     inkscape:window-height="1056"
     inkscape:window-x="2625"
     inkscape:window-y="24"
     inkscape:window-maximized="1" />
  <metadata
     id="metadata5092">
    <rdf:RDF>
      <cc:Work
         rdf:about="">
        <dc:format>image/svg+xml</dc:format>
        <dc:type
           rdf:resource="http://purl.org/dc/dcmitype/StillImage" />
        <dc:title></dc:title>
      </cc:Work>
    </rdf:RDF>
  </metadata>
  <g
     inkscape:label="Layer 1"
     inkscape:groupmode="layer"
     id="layer1"
     transform="translate(-126.79439,-125.56843)">
    <g
       transform="matrix(0.35240635,0,0,-0.35240221,-521.41833,2081.4747)"
       id="g536">
      <g
         id="g538"
         clip-path="url(#clipPath540)">
        <path
           inkscape:connector-curvature="0"
           d="m 2003.09,5125.73 c -45.5,0 -88.62,6.17 -128.52,18.36 l 0,257.14 c 0,62.74 51.05,113.79 113.79,113.79 l 553.34,0 c 62.75,0 113.79,-51.05 113.79,-113.79 l 0,-64.48 c -118.56,-50.25 -277.79,-117.28 -452.07,-175.77 -69.68,-23.39 -137.08,-35.25 -200.31,-35.25 l -0.02,0 0,0 z m 538.61,424.48 -553.34,0 c -82.27,0 -148.97,-66.7 -148.97,-148.98 l 0,-553.34 c 0,-82.27 66.7,-148.98 148.97,-148.98 l 553.34,0 c 82.28,0 148.98,66.71 148.98,148.98 l 0,553.34 c 0,82.28 -66.7,148.98 -148.98,148.98 l 0,0"
           style="fill:url(#linearGradient544);fill-opacity:1;fill-rule:nonzero;stroke:none"
           id="path552" />
      </g>
    </g>
    <g
       id="g570"
       transform="matrix(0.3751714,0,0,-0.45515173,-575.20414,2642.5021)">
      <g
         id="g572"
         clip-path="url(#clipPath574)">
        <path
           d="m 2541.7,5515.02 -553.34,0 c -62.74,0 -113.79,-51.05 -113.79,-113.79 l 0,-257.14 c 39.9,-12.19 83.02,-18.36 128.52,-18.36 l 0.02,0 c 63.23,0 130.63,11.86 200.31,35.25 174.28,58.49 333.51,125.52 452.07,175.77 l 0,64.48 c 0,62.74 -51.04,113.79 -113.79,113.79 l 0,0"
           style="fill:url(#linearGradient578);fill-opacity:1;fill-rule:nonzero;stroke:none"
           id="path586"
           inkscape:connector-curvature="0" />
      </g>
    </g>
    <path
       inkscape:connector-curvature="0"
       d="m 305.16133,221.98916 0,-10.20204 c 0,-2.67121 -2.16378,-4.83496 -4.82444,-4.83496 l -31.11044,0 c -2.66419,0 -4.82796,2.16375 -4.82796,4.83496 l 0,10.20204 c 0,2.66769 2.16377,4.82791 4.82796,4.82791 l 31.11044,0 c 2.66066,0 4.82444,-2.16022 4.82444,-4.82791"
       style="fill:#ffffff;fill-opacity:1;fill-rule:nonzero;stroke:none"
       id="path1086" />
    <path
       inkscape:connector-curvature="0"
       d="m 270.47045,232.54008 28.64125,0 0,-3.79793 -28.64125,0 0,3.79793 z"
       style="fill:#ffffff;fill-opacity:1;fill-rule:nonzero;stroke:none"
       id="path1088" />
    <path
       inkscape:connector-curvature="0"
       d="m 241.03395,176.80767 0,-20.6261 -12.99675,0 c -3.09765,0 -5.60326,2.51263 -5.60326,5.6032 l 0,9.41619 c 0,3.09761 2.50561,5.60671 5.60326,5.60671 l 12.99675,0"
       style="fill:#ffffff;fill-opacity:1;fill-rule:nonzero;stroke:none"
       id="path1090" />
    <path
       inkscape:connector-curvature="0"
       d="m 243.27173,214.04602 c 5.00417,-4.09139 11.73513,-10.76237 15.61512,-19.52309 l 9.16257,0 c -3.90819,-11.93938 -14.498,-14.50487 -16.07326,-14.82203 l -1.24752,0 c 1.38144,2.67473 2.49857,6.08951 1.96291,9.68049 0,0 -2.78401,14.04675 -16.03802,24.66463 l 6.6182,0"
       style="fill:#ffffff;fill-opacity:1;fill-rule:nonzero;stroke:none"
       id="path1092" />
    <path
       inkscape:connector-curvature="0"
       d="m 271.81312,204.35848 27.79428,0 0,-19.33983 27.79077,0 c 0,0 -6.82964,-29.43264 -41.56633,-29.43264 -34.72964,0 -42.6306,0 -42.6306,0 l 0,21.79608 8.98989,0 c 0,0 19.62199,3.27382 19.62199,26.97639"
       style="fill:#ffffff;fill-opacity:1;fill-rule:nonzero;stroke:none"
       id="path1094" />
    <path
       inkscape:connector-curvature="0"
       d="m 304.59043,234.46068 -39.75144,0 c 0,0 -12.18621,5.88159 -9.6665,15.12862 2.52323,9.24351 9.24362,18.91343 2.93907,25.63726 -6.2975,6.72384 -5.03589,9.66287 -2.51618,19.75567 2.51618,10.08223 1.68097,17.22895 -6.72392,23.11054 -8.40841,5.88159 -23.10023,25.21438 -23.10023,46.651 l 0,34.10196 c 0,6.96347 5.64555,12.60896 12.60557,12.60896 l 80.48961,0 c 6.96355,0 12.60558,-5.64549 12.60558,-12.60896 l 0,-34.10196 -26.88156,-130.28309 z m 11.57303,167.11265 -75.0837,0 0,-55.64431 75.0837,0 0,55.64431"
       style="fill:#ffffff;fill-opacity:1;fill-rule:nonzero;stroke:none"
       id="path1096" />
    <path
       inkscape:connector-curvature="0"
       d="m 245.71743,397.22821 65.81188,0 0,-46.95478 -65.81188,0 0,46.95478 z"
       style="fill:#ffffff;fill-opacity:1;fill-rule:nonzero;stroke:none"
       id="path1098" />
  </g>
</svg>
