<?xml version="1.0" encoding="UTF-8" standalone="no"?>
<!-- Created with Inkscape (http://www.inkscape.org/) -->

<svg
   xmlns:dc="http://purl.org/dc/elements/1.1/"
   xmlns:cc="http://creativecommons.org/ns#"
   xmlns:rdf="http://www.w3.org/1999/02/22-rdf-syntax-ns#"
   xmlns:svg="http://www.w3.org/2000/svg"
   xmlns="http://www.w3.org/2000/svg"
   xmlns:sodipodi="http://sodipodi.sourceforge.net/DTD/sodipodi-0.dtd"
   xmlns:inkscape="http://www.inkscape.org/namespaces/inkscape"
   width="300"
   height="300"
   id="svg6103"
   version="1.1"
   inkscape:version="0.48.4 r9939"
   sodipodi:docname="New document 41">
  <defs
     id="defs6105">
    <clipPath
       clipPathUnits="userSpaceOnUse"
       id="clipPath106">
      <path
         inkscape:connector-curvature="0"
         d="m 1127.07,2641.63 -553.34,0 c -62.746,0 -113.789,-51.04 -113.789,-113.79 l 0,-257.13 c 39.895,-12.2 83.008,-18.37 128.528,-18.37 63.242,0 130.64,11.88 200.32,35.25 174.277,58.5 333.511,125.54 452.061,175.79 l 0,64.46 c 0,62.75 -51.04,113.79 -113.78,113.79 l 0,0"
         id="path108" />
    </clipPath>
    <linearGradient
       x1="0"
       y1="0"
       x2="1"
       y2="0"
       gradientUnits="userSpaceOnUse"
       gradientTransform="matrix(-4e-6,-84.4207,415.773,-2e-5,-122.848,265.275)"
       spreadMethod="pad"
       id="linearGradient110">
      <stop
         style="stop-color:#38bff3;stop-opacity:1;"
         offset="0"
         id="stop112" />
      <stop
         style="stop-opacity:1;stop-color:#90dbf8"
         offset="0.0484848"
         id="stop114" />
      <stop
         style="stop-opacity:1;stop-color:#299cca"
         offset="1"
         id="stop116" />
    </linearGradient>
    <clipPath
       clipPathUnits="userSpaceOnUse"
       id="clipPath72">
      <path
         inkscape:connector-curvature="0"
         d="m 588.469,2252.34 c -45.52,0 -88.633,6.17 -128.528,18.37 l 0,257.13 c 0,62.75 51.043,113.79 113.789,113.79 l 553.34,0 c 62.74,0 113.78,-51.04 113.78,-113.79 l 0,-64.46 c -118.55,-50.25 -277.784,-117.29 -452.061,-175.79 -69.68,-23.37 -137.078,-35.25 -200.32,-35.25 l 0,0 z m 538.601,424.5 -553.34,0 c -82.285,0 -148.972,-66.7 -148.972,-149 l 0,-553.33 c 0,-82.28 66.687,-148.98 148.972,-148.98 l 553.34,0 c 82.28,0 148.98,66.7 148.98,148.98 l 0,553.33 c 0,82.3 -66.7,149 -148.98,149 l 0,0"
         id="path74" />
    </clipPath>
    <linearGradient
       x1="0"
       y1="0"
       x2="1"
       y2="0"
       gradientUnits="userSpaceOnUse"
       gradientTransform="matrix(-4e-6,-84.4207,422.813,-2e-5,-126.366,265.275)"
       spreadMethod="pad"
       id="linearGradient76">
      <stop
         style="stop-opacity:1;stop-color:#38bff3"
         offset="0"
         id="stop78" />
      <stop
         style="stop-opacity:1;stop-color:#7fd6f7"
         offset="0.0484848"
         id="stop80" />
      <stop
         style="stop-opacity:1;stop-color:#0084ba"
         offset="1"
         id="stop82" />
    </linearGradient>
  </defs>
  <sodipodi:namedview
     id="base"
     pagecolor="#ffffff"
     bordercolor="#666666"
     borderopacity="1.0"
     inkscape:pageopacity="0.0"
     inkscape:pageshadow="2"
     inkscape:zoom="0.35"
     inkscape:cx="205.3486"
     inkscape:cy="33.206869"
     inkscape:document-units="px"
     inkscape:current-layer="layer1"
     showgrid="false"
     fit-margin-top="0"
     fit-margin-left="0"
     fit-margin-right="0"
     fit-margin-bottom="0"
     inkscape:window-width="1855"
     inkscape:window-height="1056"
     inkscape:window-x="2625"
     inkscape:window-y="24"
     inkscape:window-maximized="1" />
  <metadata
     id="metadata6108">
    <rdf:RDF>
      <cc:Work
         rdf:about="">
        <dc:format>image/svg+xml</dc:format>
        <dc:type
           rdf:resource="http://purl.org/dc/dcmitype/StillImage" />
        <dc:title></dc:title>
      </cc:Work>
    </rdf:RDF>
  </metadata>
  <g
     inkscape:label="Layer 1"
     inkscape:groupmode="layer"
     id="layer1"
     transform="translate(-169.6514,-265.56905)">
    <g
       transform="matrix(0.35240552,0,0,-0.35239807,19.964333,1208.8823)"
       id="g68">
      <g
         id="g70"
         clip-path="url(#clipPath72)">
        <path
           d="m 588.469,2252.34 c -45.52,0 -88.633,6.17 -128.528,18.37 l 0,257.13 c 0,62.75 51.043,113.79 113.789,113.79 l 553.34,0 c 62.74,0 113.78,-51.04 113.78,-113.79 l 0,-64.46 c -118.55,-50.25 -277.784,-117.29 -452.061,-175.79 -69.68,-23.37 -137.078,-35.25 -200.32,-35.25 l 0,0 z m 538.601,424.5 -553.34,0 c -82.285,0 -148.972,-66.7 -148.972,-149 l 0,-553.33 c 0,-82.28 66.687,-148.98 148.972,-148.98 l 553.34,0 c 82.28,0 148.98,66.7 148.98,148.98 l 0,553.33 c 0,82.3 -66.7,149 -148.98,149 l 0,0"
           style="fill:url(#linearGradient76);fill-opacity:1;fill-rule:nonzero;stroke:none"
           id="path84"
           inkscape:connector-curvature="0" />
      </g>
    </g>
    <g
       id="g102"
       transform="matrix(0.37517083,0,0,-0.39806401,-1.6174271,1323.8764)">
      <g
         id="g104"
         clip-path="url(#clipPath106)">
        <path
           d="m 1127.07,2641.63 -553.34,0 c -62.746,0 -113.789,-51.04 -113.789,-113.79 l 0,-257.13 c 39.895,-12.2 83.008,-18.37 128.528,-18.37 63.242,0 130.64,11.88 200.32,35.25 174.277,58.5 333.511,125.54 452.061,175.79 l 0,64.46 c 0,62.75 -51.04,113.79 -113.78,113.79 l 0,0"
           style="fill:url(#linearGradient110);fill-opacity:1;fill-rule:nonzero;stroke:none"
           id="path118"
           inkscape:connector-curvature="0" />
      </g>
    </g>
    <path
       inkscape:connector-curvature="0"
       d="m 356.12673,337.84238 c 0,-2.0122 -1.63376,-3.65437 -3.65057,-3.65437 l -71.67999,0 c -2.00872,0 -3.64668,1.64217 -3.64668,3.65437 l 0,7.56951 78.97724,0 0,-7.56951"
       style="fill:#ffffff;fill-opacity:1;fill-rule:nonzero;stroke:none"
       id="path956" />
    <path
       inkscape:connector-curvature="0"
       d="m 294.01525,330.26934 45.24429,0 0,-5.11389 -45.24429,0 0,5.11389 z"
       style="fill:#ffffff;fill-opacity:1;fill-rule:nonzero;stroke:none"
       id="path958" />
    <path
       inkscape:connector-curvature="0"
       d="m 290.77629,321.23738 51.72644,0 c 2.44215,0 4.42163,-1.97695 4.42163,-4.42612 l 0,-12.59118 c 0,-2.44212 -1.97948,-4.4226 -4.42163,-4.4226 l -51.72644,0 c -2.44498,0 -4.42587,1.98048 -4.42587,4.4226 l 0,12.59118 c 0,2.44917 1.98089,4.42612 4.42587,4.42612"
       style="fill:#ffffff;fill-opacity:1;fill-rule:nonzero;stroke:none"
       id="path960" />
    <path
       inkscape:connector-curvature="0"
       d="m 380.05191,406.5741 2.54083,0 c 3.46768,0 6.27634,-2.80862 6.27634,-6.26917 l 0,-14.00782 c 0,-2.7628 -0.93035,-5.49388 -2.62541,-7.68228 L 367.33711,354.2007 c -2.36465,-3.04472 -6.0702,-4.86662 -9.9301,-4.86662 l -81.53924,0 c -3.85564,0 -7.56545,1.8219 -9.92796,4.86662 l -18.90585,24.41413 c -1.69612,2.1884 -2.62648,4.91948 -2.62648,7.68228 l 0,14.00782 c 0,3.46055 2.80832,6.26917 6.27846,6.26917 l 2.30297,0 12.46918,7.18187 0,22.22222 -12.46918,7.18187 -2.30297,0 c -3.47014,0 -6.27846,2.80157 -6.27846,6.27269 l 0,71.64957 c 0,16.15393 13.13943,29.29838 29.2951,29.29838 l 85.86996,0 c 16.15181,0 29.29654,-13.14445 29.29654,-29.29838 l 0,-71.64957 c 0,-3.47112 -2.80866,-6.27269 -6.27634,-6.27269 l -2.54083,0 -12.46811,-7.18187 0,-22.22222 12.46811,-7.18187 z m -10.65677,50.83342 0,73.46795 -105.51443,0 0,-73.46795 105.51443,0"
       style="fill:#ffffff;fill-opacity:1;fill-rule:nonzero;stroke:none"
       id="path962" />
    <path
       inkscape:connector-curvature="0"
       d="m 365.44821,461.35085 -97.6167,0 0,65.57071 97.6167,0 0,-65.57071 z m -43.41814,51.9611 c -1.54563,1.8818 -3.52123,3.33368 -5.92746,4.36621 -2.4048,1.04662 -5.45524,1.56465 -9.16394,1.56465 -3.58046,0 -6.55932,-0.33126 -8.94511,-0.99729 -2.37979,-0.66956 -4.43396,-1.75142 -6.14209,-3.23502 -1.71654,-1.50121 -3.0631,-3.25615 -4.0389,-5.25425 -0.97335,-2.01924 -1.46215,-4.68689 -1.46215,-8.00648 0,-3.4676 0.59204,-6.35374 1.7772,-8.669 0.8729,-1.68798 2.05665,-3.20682 3.56281,-4.54946 1.50441,-1.34616 3.04762,-2.3364 4.6405,-3.00243 2.51475,-1.03252 5.74703,-1.55407 9.68691,-1.55407 5.50632,0 9.7091,0.98671 12.59991,2.96014 2.89076,1.95933 4.91428,4.84547 6.08464,8.63728 l -12.17209,1.6175 c -0.37849,-1.43778 -1.07239,-2.53021 -2.08132,-3.24911 -1.00473,-0.74003 -2.35371,-1.10653 -4.04842,-1.10653 -2.13666,0 -3.87082,0.76823 -5.19375,2.30116 -1.32153,1.53294 -1.98936,3.85524 -1.98936,6.96691 0,2.76633 0.65407,4.87367 1.97137,6.31145 1.31203,1.43074 2.98593,2.15668 5.01895,2.15668 1.69474,0 3.11808,-0.43697 4.27575,-1.30035 1.15623,-0.87395 2.0154,-2.20249 2.58948,-4.01029 l 12.29684,1.3955 c -0.67873,2.56545 -1.79234,4.78204 -3.33977,6.6568 z m 21.00127,5.16968 -12.959,0 0,-46.57998 12.959,0 0,46.57998"
       style="fill:#ffffff;fill-opacity:1;fill-rule:nonzero;stroke:none"
       id="path964" />
  </g>
</svg>
