<svg xmlns="http://www.w3.org/2000/svg" xmlns:xlink="http://www.w3.org/1999/xlink" version="1.1" id="Layer_1" x="0px" y="0px" width="100.0px" height="100px" viewBox="0 0 512 512" enable-background="new 0 0 512 512" xml:space="preserve">
<path d="M32,480h480v32H0V0h32h32v32H32v64h32v32H32v64h32v32H32v64h32v32H32v64h32v32H32V480z M128,416c17.672,0,32-14.313,32-32  c0-10.531-5.422-19.438-13.281-25.281l41.406-103.5c1.328,0.156,2.5,0.781,3.875,0.781c3.656,0,7.047-0.938,10.328-2.063l30,44.969  C227.297,304.563,224,311.844,224,320c0,17.688,14.328,32,32,32s32-14.313,32-32c0-11.188-6.094-20.563-14.797-26.281  l44.703-134.156C318.625,159.625,319.25,160,320,160c5.906,0,11.125-2.031,15.875-4.813l52.938,52.938  C386.031,212.875,384,218.094,384,224c0,17.688,14.313,32,32,32s32-14.313,32-32c0-11.188-6.094-20.563-14.813-26.313  l44.719-134.125C478.625,63.625,479.25,64,480,64c17.688,0,32-14.313,32-32S497.688,0,480,0s-32,14.313-32,32  c0,11.188,6.094,20.563,14.813,26.313l-44.719,134.125C417.375,192.375,416.75,192,416,192c-5.906,0-11.125,2.031-15.875,4.813  l-52.938-52.938c2.781-4.75,4.813-9.969,4.813-15.875c0-17.688-14.313-32-32-32s-32,14.313-32,32  c0,11.188,6.094,20.563,14.813,26.313l-44.734,134.094C257.359,288.375,256.734,288,256,288c-3.656,0-7.047,0.938-10.328,2.094  l-30-45.031C220.703,239.438,224,232.188,224,224c0-17.688-14.328-32-32-32s-32,14.313-32,32c0,10.563,5.422,19.438,13.281,25.25  l-41.406,103.531c-1.328-0.156-2.5-0.781-3.875-0.781c-17.672,0-32,14.313-32,32S110.328,416,128,416z"/>
</svg>