<?xml version="1.0" encoding="UTF-8" standalone="no"?>
<svg
   xmlns:dc="http://purl.org/dc/elements/1.1/"
   xmlns:cc="http://creativecommons.org/ns#"
   xmlns:rdf="http://www.w3.org/1999/02/22-rdf-syntax-ns#"
   xmlns:svg="http://www.w3.org/2000/svg"
   xmlns="http://www.w3.org/2000/svg"
   xmlns:sodipodi="http://sodipodi.sourceforge.net/DTD/sodipodi-0.dtd"
   xmlns:inkscape="http://www.inkscape.org/namespaces/inkscape"
   version="1.1"
   x="0px"
   y="0px"
   viewBox="0 0 200 200"
   enable-background="new 0 0 100 100"
   xml:space="preserve"
   id="svg2"
   inkscape:version="0.48.4 r9939"
   width="100%"
   height="100%"
   sodipodi:docname="openDoor.svg"
   inkscape:export-filename="/home/lrd900/code/presentations/iswc2015/imgs/openDoor.png"
   inkscape:export-xdpi="180"
   inkscape:export-ydpi="180"><metadata
     id="metadata16"><rdf:RDF><cc:Work
         rdf:about=""><dc:format>image/svg+xml</dc:format><dc:type
           rdf:resource="http://purl.org/dc/dcmitype/StillImage" /><dc:title></dc:title></cc:Work></rdf:RDF></metadata><defs
     id="defs14" /><sodipodi:namedview
     pagecolor="#ffffff"
     bordercolor="#666666"
     borderopacity="1"
     objecttolerance="10"
     gridtolerance="10"
     guidetolerance="10"
     inkscape:pageopacity="0"
     inkscape:pageshadow="2"
     inkscape:window-width="1855"
     inkscape:window-height="1056"
     id="namedview12"
     showgrid="false"
     fit-margin-top="0"
     fit-margin-left="0"
     fit-margin-right="0"
     fit-margin-bottom="0"
     inkscape:zoom="1.888"
     inkscape:cx="-63.680507"
     inkscape:cy="84.322037"
     inkscape:window-x="65"
     inkscape:window-y="24"
     inkscape:window-maximized="1"
     inkscape:current-layer="svg2" /><path
     sodipodi:type="arc"
     style="fill:#78bc24;fill-opacity:1;stroke:none"
     id="path3765"
     sodipodi:cx="-202.86017"
     sodipodi:cy="-8.1567793"
     sodipodi:rx="101.16525"
     sodipodi:ry="88.453392"
     d="m -101.69492,-8.1567793 a 101.16525,88.453392 0 1 1 -202.3305,0 101.16525,88.453392 0 1 1 202.3305,0 z"
     transform="matrix(0.98848169,0,0,1.1305389,300.52356,109.22156)"
     inkscape:export-filename="/home/lrd900/code/presentations/iswc2015/imgs/openDoor.png"
     inkscape:export-xdpi="180"
     inkscape:export-ydpi="180" /><g
     id="g2993"
     transform="matrix(1.6920904,0,0,1.6920904,15.616115,10.628528)"
     style="fill:#f5f5f5"
     inkscape:export-filename="/home/lrd900/code/presentations/iswc2015/imgs/openDoor.png"
     inkscape:export-xdpi="180"
     inkscape:export-ydpi="180"><path
       id="path4"
       d="M 92.5,82.5 H 75 V 15 c 0,-1.4 -1.1,-2.5 -2.5,-2.5 h -45 C 26.1,12.5 25,13.6 25,15 V 82.5 H 7.5 c -3.2,0 -3.2,5 0,5 h 20 c 0.2,0 0.3,0 0.5,0 l 0,0 c 0,0 0,0 0,0 l 32.5,-6.2 c 1.2,-0.2 2,-1.3 2,-2.5 V 25 c 0,-1.2 -0.8,-2.2 -1.9,-2.4 L 38.7,17.5 H 70 V 85 c 0,1.4 1.1,2.5 2.5,2.5 h 20 c 3.2,0 3.2,-5 0,-5 z M 57.5,27 V 76.7 L 30,82 V 20.6 L 57.5,27 z"
       inkscape:connector-curvature="0"
       style="fill:#f5f5f5" /><circle
       id="circle6"
       r="2.5"
       cy="55"
       cx="52.5"
       sodipodi:cx="52.5"
       sodipodi:cy="55"
       sodipodi:rx="2.5"
       sodipodi:ry="2.5"
       d="m 55,55 c 0,1.380712 -1.119288,2.5 -2.5,2.5 -1.380712,0 -2.5,-1.119288 -2.5,-2.5 0,-1.380712 1.119288,-2.5 2.5,-2.5 1.380712,0 2.5,1.119288 2.5,2.5 z"
       style="fill:#f5f5f5" /></g><g
     style="font-size:40px;font-style:normal;font-variant:normal;font-weight:normal;font-stretch:normal;line-height:125%;letter-spacing:0px;word-spacing:0px;fill:#f5f5f5;fill-opacity:1;stroke:none;font-family:Theorem NBP;-inkscape-font-specification:Theorem NBP"
     id="text2985"
     transform="matrix(0.24040593,0,0,0.24040593,107.22962,57.113241)"><path
       d="m -104.31838,86.65255 -3.65235,0 0,-25.351563 -8.16406,0 0,-3.203125 19.960939,0 0,3.203125 -8.144529,0 0,25.351563"
       style="font-family:Droid Sans;-inkscape-font-specification:Droid Sans;fill:#f5f5f5"
       id="path2990"
       inkscape:connector-curvature="0" /><path
       d="m -76.974632,64.77755 c -1.9e-5,0.950542 -0.149758,1.816426 -0.449219,2.597656 -0.299497,0.781268 -0.722674,1.458351 -1.269531,2.03125 -0.533871,0.572933 -1.178402,1.048193 -1.933594,1.425781 -0.755223,0.364599 -1.595066,0.625015 -2.519531,0.78125 l 0,0.117188 c 2.304672,0.286473 4.055973,1.022149 5.253906,2.207031 1.197898,1.171887 1.796855,2.701833 1.796875,4.589844 -2e-5,1.250007 -0.214863,2.395839 -0.644531,3.4375 -0.416686,1.04167 -1.054706,1.940107 -1.914063,2.695312 -0.859391,0.75521 -1.946629,1.341147 -3.261719,1.757813 -1.315116,0.416666 -2.871104,0.624999 -4.667968,0.625 -1.419279,-1e-6 -2.760423,-0.110678 -4.023438,-0.332032 -1.250004,-0.221354 -2.428388,-0.624999 -3.535156,-1.210937 l 0,-3.320313 c 1.13281,0.598963 2.356767,1.061202 3.671875,1.386719 1.328118,0.325524 2.597648,0.488284 3.808594,0.488281 1.197906,3e-6 2.233061,-0.130205 3.105468,-0.390625 0.872383,-0.260413 1.588528,-0.631506 2.148438,-1.113281 0.572902,-0.481766 0.989568,-1.074213 1.25,-1.777344 0.273422,-0.703118 0.41014,-1.490878 0.410156,-2.363281 -1.6e-5,-0.885407 -0.175797,-1.640615 -0.527344,-2.265625 -0.338556,-0.638009 -0.826837,-1.158842 -1.464843,-1.5625 -0.638034,-0.416654 -1.419284,-0.722643 -2.34375,-0.917969 -0.911469,-0.195299 -1.946625,-0.292955 -3.105469,-0.292968 l -2.597656,0 0,-2.949219 2.597656,0 c 1.054678,1.6e-5 1.992177,-0.130192 2.8125,-0.390625 0.8203,-0.2604 1.503893,-0.631493 2.050781,-1.113281 0.559882,-0.481753 0.983059,-1.054669 1.269531,-1.71875 0.286444,-0.664043 0.429673,-1.393209 0.429688,-2.1875 -1.5e-5,-0.677061 -0.117203,-1.282529 -0.351563,-1.816407 -0.234389,-0.53383 -0.56642,-0.983048 -0.996093,-1.347656 -0.429701,-0.377579 -0.944024,-0.664037 -1.542969,-0.859375 -0.59897,-0.195286 -1.263032,-0.292943 -1.992188,-0.292969 -1.393238,2.6e-5 -2.623705,0.22138 -3.691406,0.664063 -1.054693,0.429712 -2.063806,0.996118 -3.027344,1.699219 l -1.796875,-2.441407 c 0.49479,-0.403619 1.041664,-0.781223 1.640625,-1.132812 0.611976,-0.351535 1.276038,-0.657524 1.992188,-0.917969 0.71614,-0.273409 1.477858,-0.488252 2.285156,-0.644531 0.820304,-0.156221 1.686189,-0.234346 2.597656,-0.234375 1.406239,2.9e-5 2.636706,0.17581 3.691407,0.527344 1.067693,0.35159 1.959619,0.846382 2.675781,1.484375 0.716129,0.625026 1.256493,1.373723 1.621094,2.246093 0.364564,0.859399 0.546856,1.803409 0.546875,2.832032"
       style="font-family:Droid Sans;-inkscape-font-specification:Droid Sans;fill:#f5f5f5"
       id="path2992"
       inkscape:connector-curvature="0" /><path
       d="m -63.068382,69.133018 c 1.28905,1.8e-5 2.486966,0.182309 3.59375,0.546875 1.119776,0.35158 2.089827,0.878923 2.910156,1.582032 0.833315,0.703139 1.484356,1.575534 1.953125,2.617187 0.46873,1.041679 0.703105,2.246105 0.703125,3.613281 -2e-5,1.484383 -0.221374,2.819017 -0.664063,4.003907 -0.442727,1.1849 -1.100278,2.187503 -1.972656,3.007812 -0.872412,0.820314 -1.95314,1.451824 -3.242187,1.894531 -1.276055,0.429688 -2.747407,0.644531 -4.414063,0.644532 -0.664071,-1e-6 -1.321623,-0.03255 -1.972656,-0.09766 -0.638028,-0.0651 -1.256517,-0.16276 -1.855469,-0.292968 -0.585942,-0.117188 -1.145838,-0.273437 -1.679687,-0.46875 -0.533858,-0.195312 -1.015628,-0.423176 -1.445313,-0.683594 l 0,-3.359375 c 0.429685,0.299483 0.930986,0.56641 1.503906,0.800781 0.585933,0.234379 1.197912,0.429691 1.835938,0.585938 0.638014,0.156253 1.276034,0.279951 1.914062,0.371093 0.651034,0.07813 1.249991,0.117191 1.796875,0.117188 1.028636,3e-6 1.946604,-0.117185 2.753907,-0.351563 0.807278,-0.247392 1.490871,-0.624996 2.050781,-1.132812 0.559881,-0.507808 0.989568,-1.145828 1.289062,-1.914063 0.299464,-0.768222 0.449203,-1.679679 0.449219,-2.734375 -1.6e-5,-1.861968 -0.572932,-3.281237 -1.71875,-4.257812 -1.145846,-0.989569 -2.812511,-1.48436 -5,-1.484375 -0.351571,1.5e-5 -0.735686,0.01955 -1.152344,0.05859 -0.403653,0.02606 -0.813809,0.06512 -1.230468,0.117187 -0.403653,0.0521 -0.794277,0.110692 -1.171875,0.175781 -0.364589,0.0521 -0.683599,0.104181 -0.957032,0.15625 l -1.757812,-1.113281 1.074219,-13.4375 13.476562,0 0,3.242188 -10.390625,0 -0.761719,8.183593 c 0.41666,-0.07811 0.963535,-0.162743 1.640625,-0.253906 0.690096,-0.09113 1.503897,-0.136701 2.441407,-0.136719"
       style="font-family:Droid Sans;-inkscape-font-specification:Droid Sans;fill:#f5f5f5"
       id="path2994"
       inkscape:connector-curvature="0" /><path
       d="m -46.193382,86.65255 10.996093,-25.3125 -14.726562,0 0,-3.242188 18.359375,0 0,2.832031 -10.839844,25.722657 -3.789062,0"
       style="font-family:Droid Sans;-inkscape-font-specification:Droid Sans;fill:#f5f5f5"
       id="path2996"
       inkscape:connector-curvature="0" /></g></svg>