<?xml version="1.0" encoding="UTF-8" standalone="no"?>
<!-- Created with Inkscape (http://www.inkscape.org/) -->

<svg
   xmlns:dc="http://purl.org/dc/elements/1.1/"
   xmlns:cc="http://creativecommons.org/ns#"
   xmlns:rdf="http://www.w3.org/1999/02/22-rdf-syntax-ns#"
   xmlns:svg="http://www.w3.org/2000/svg"
   xmlns="http://www.w3.org/2000/svg"
   xmlns:sodipodi="http://sodipodi.sourceforge.net/DTD/sodipodi-0.dtd"
   xmlns:inkscape="http://www.inkscape.org/namespaces/inkscape"
   width="300"
   height="300"
   id="svg5221"
   version="1.1"
   inkscape:version="0.48.4 r9939"
   sodipodi:docname="New document 16">
  <defs
     id="defs5223">
    <clipPath
       clipPathUnits="userSpaceOnUse"
       id="clipPath626">
      <path
         inkscape:connector-curvature="0"
         d="m 3956.32,5515.02 -553.34,0 c -62.75,0 -113.79,-51.05 -113.79,-113.79 l 0,-257.14 c 39.89,-12.19 83.01,-18.36 128.52,-18.36 63.25,0 130.65,11.86 200.33,35.25 174.27,58.49 333.51,125.52 452.06,175.77 l 0,64.48 c 0,62.74 -51.04,113.79 -113.78,113.79 l 0,0"
         id="path628" />
    </clipPath>
    <linearGradient
       x1="0"
       y1="0"
       x2="1"
       y2="0"
       gradientUnits="userSpaceOnUse"
       gradientTransform="matrix(-4e-6,-84.4207,415.774,-2e-5,160.077,552.713)"
       spreadMethod="pad"
       id="linearGradient630">
      <stop
         style="stop-color:#38bff3;stop-opacity:1;"
         offset="0"
         id="stop632" />
      <stop
         style="stop-opacity:1;stop-color:#90dbf8"
         offset="0.0484848"
         id="stop634" />
      <stop
         style="stop-opacity:1;stop-color:#299cca"
         offset="1"
         id="stop636" />
    </linearGradient>
    <clipPath
       clipPathUnits="userSpaceOnUse"
       id="clipPath592">
      <path
         inkscape:connector-curvature="0"
         d="m 3417.71,5125.73 c -45.51,0 -88.63,6.17 -128.52,18.36 l 0,257.14 c 0,62.74 51.04,113.79 113.79,113.79 l 553.34,0 c 62.74,0 113.78,-51.05 113.78,-113.79 l 0,-64.48 c -118.55,-50.25 -277.79,-117.28 -452.06,-175.77 -69.68,-23.39 -137.08,-35.25 -200.33,-35.25 l 0,0 z m 538.61,424.48 -553.34,0 c -82.29,0 -148.98,-66.7 -148.98,-148.98 l 0,-553.34 c 0,-82.27 66.69,-148.98 148.98,-148.98 l 553.34,0 c 82.27,0 148.98,66.71 148.98,148.98 l 0,553.34 c 0,82.28 -66.71,148.98 -148.98,148.98 l 0,0"
         id="path594" />
    </clipPath>
    <linearGradient
       x1="0"
       y1="0"
       x2="1"
       y2="0"
       gradientUnits="userSpaceOnUse"
       gradientTransform="matrix(-4e-6,-84.4207,422.813,-2e-5,156.559,552.713)"
       spreadMethod="pad"
       id="linearGradient596">
      <stop
         style="stop-opacity:1;stop-color:#38bff3"
         offset="0"
         id="stop598" />
      <stop
         style="stop-opacity:1;stop-color:#7fd6f7"
         offset="0.0484848"
         id="stop600" />
      <stop
         style="stop-opacity:1;stop-color:#0084ba"
         offset="1"
         id="stop602" />
    </linearGradient>
  </defs>
  <sodipodi:namedview
     id="base"
     pagecolor="#ffffff"
     bordercolor="#666666"
     borderopacity="1.0"
     inkscape:pageopacity="0.0"
     inkscape:pageshadow="2"
     inkscape:zoom="0.35"
     inkscape:cx="96.777679"
     inkscape:cy="73.206249"
     inkscape:document-units="px"
     inkscape:current-layer="layer1"
     showgrid="false"
     fit-margin-top="0"
     fit-margin-left="0"
     fit-margin-right="0"
     fit-margin-bottom="0"
     inkscape:window-width="1855"
     inkscape:window-height="1056"
     inkscape:window-x="2625"
     inkscape:window-y="24"
     inkscape:window-maximized="1" />
  <metadata
     id="metadata5226">
    <rdf:RDF>
      <cc:Work
         rdf:about="">
        <dc:format>image/svg+xml</dc:format>
        <dc:type
           rdf:resource="http://purl.org/dc/dcmitype/StillImage" />
        <dc:title></dc:title>
      </cc:Work>
    </rdf:RDF>
  </metadata>
  <g
     inkscape:label="Layer 1"
     inkscape:groupmode="layer"
     id="layer1"
     transform="translate(-278.22232,-305.56843)">
    <g
       transform="matrix(0.35240221,0,0,-0.35240221,-868.49447,2261.4747)"
       id="g588">
      <g
         id="g590"
         clip-path="url(#clipPath592)">
        <path
           inkscape:connector-curvature="0"
           d="m 3417.71,5125.73 c -45.51,0 -88.63,6.17 -128.52,18.36 l 0,257.14 c 0,62.74 51.04,113.79 113.79,113.79 l 553.34,0 c 62.74,0 113.78,-51.05 113.78,-113.79 l 0,-64.48 c -118.55,-50.25 -277.79,-117.28 -452.06,-175.77 -69.68,-23.39 -137.08,-35.25 -200.33,-35.25 l 0,0 z m 538.61,424.48 -553.34,0 c -82.29,0 -148.98,-66.7 -148.98,-148.98 l 0,-553.34 c 0,-82.27 66.69,-148.98 148.98,-148.98 l 553.34,0 c 82.27,0 148.98,66.71 148.98,148.98 l 0,553.34 c 0,82.28 -66.71,148.98 -148.98,148.98 l 0,0"
           style="fill:url(#linearGradient596);fill-opacity:1;fill-rule:nonzero;stroke:none"
           id="path604" />
      </g>
    </g>
    <g
       id="g622"
       transform="matrix(0.37232167,0,0,-0.43802684,-942.90213,2728.0578)">
      <g
         id="g624"
         clip-path="url(#clipPath626)">
        <path
           d="m 3956.32,5515.02 -553.34,0 c -62.75,0 -113.79,-51.05 -113.79,-113.79 l 0,-257.14 c 39.89,-12.19 83.01,-18.36 128.52,-18.36 63.25,0 130.65,11.86 200.33,35.25 174.27,58.49 333.51,125.52 452.06,175.77 l 0,64.48 c 0,62.74 -51.04,113.79 -113.78,113.79 l 0,0"
           style="fill:url(#linearGradient630);fill-opacity:1;fill-rule:nonzero;stroke:none"
           id="path638"
           inkscape:connector-curvature="0" />
      </g>
    </g>
    <path
       inkscape:connector-curvature="0"
       d="m 522.99737,534.61576 c -4.02091,16.32327 -8.83472,19.07553 -18.08528,19.07553 l -151.92764,0 c -9.24704,0 -14.04323,-2.75226 -18.08176,-19.09667 l -18.24386,-72.46095 -9.73687,0 18.81827,74.74451 c 4.71867,19.14249 12.10502,26.25749 27.24422,26.25749 l 151.92764,0 c 15.1392,0 22.52907,-7.115 27.24774,-26.23634 l 18.8218,-74.76566 -9.73687,0 -18.24739,72.48209"
       style="fill:#ffffff;fill-opacity:1;fill-rule:nonzero;stroke:none"
       id="path1056" />
    <path
       inkscape:connector-curvature="0"
       d="m 380.57049,457.30224 c 0,-1.66334 0.31012,-3.27382 0.90568,-4.76448 -2.74522,-0.36297 -5.29661,-1.61752 -7.30178,-3.61212 -0.59203,-0.59908 -1.13121,-1.25103 -1.58581,-1.94174 l -70.08575,0 c -2.43862,0 -4.41912,1.9805 -4.41912,4.42618 l 0,2.94608 c 0,2.44567 1.9805,4.42265 4.41912,4.42265 l 78.2192,0 c -0.0564,-0.48984 -0.14463,-0.97616 -0.15168,-1.47657"
       style="fill:#ffffff;fill-opacity:1;fill-rule:nonzero;stroke:none"
       id="path1058" />
    <path
       inkscape:connector-curvature="0"
       d="m 555.39723,446.9839 -79.06496,0 -11.78433,11.79491 90.84929,0 c 2.43862,0 4.41912,-1.97698 4.41912,-4.42265 l 0,-2.94608 c 0,-2.44568 -1.9805,-4.42618 -4.41912,-4.42618"
       style="fill:#ffffff;fill-opacity:1;fill-rule:nonzero;stroke:none"
       id="path1060" />
    <path
       inkscape:connector-curvature="0"
       d="m 388.95414,445.83507 26.24339,-26.23987 2.02984,2.02632 -29.84494,29.84846 c -3.21391,3.20686 -3.19277,8.42242 0.0352,11.65395 3.23505,3.22448 8.44356,3.2421 11.64337,0.0352 l 29.84846,-29.84847 2.02984,2.02631 -24.80911,24.80207 c -3.19982,3.21391 -3.18924,8.42946 0.0389,11.65746 3.23153,3.22801 8.44003,3.24563 11.65394,0.0352 l 24.80912,-24.80559 2.01574,2.02631 -11.86891,11.87948 c -3.21038,3.21039 -3.19276,8.43299 0.0386,11.65747 3.21744,3.22448 8.44004,3.24562 11.65042,0.0319 l 26.13063,-26.13063 c 0,-0.003 0,-0.003 0,-0.003 l 11.81252,-11.81252 c 4.67637,-4.67638 5.09573,-11.94291 1.35675,-17.14084 l 27.98073,-27.97721 -35.97322,-35.95913 -27.84682,27.86092 c -2.04746,-1.86787 -4.51779,-2.97441 -7.08681,-3.33386 -0.63784,-0.16211 -1.28979,-0.27149 -1.97345,-0.27149 l -48.70198,0 c -4.47551,0 -8.10173,3.62269 -8.10173,8.09115 0,4.47199 3.62622,8.09468 8.10173,8.09468 l 27.21249,0 -4.46493,4.46846 c -0.006,0 -0.006,0.003 -0.006,0.003 l -35.64196,35.63858 c -3.20686,3.21038 -3.18924,8.42593 0.0386,11.65394 3.22801,3.228 8.44004,3.2421 11.65042,0.0316"
       style="fill:#ffffff;fill-opacity:1;fill-rule:nonzero;stroke:none"
       id="path1062" />
    <path
       inkscape:connector-curvature="0"
       d="m 328.13304,483.8346 12.43275,49.34688 c 3.57689,14.5225 6.48068,14.5225 12.26713,14.5225 l 151.92059,0 c 5.79349,0 8.68319,0 12.28474,-14.56831 l 12.72524,-50.55562 c -65.37766,-6.1318 -136.24926,7.31939 -201.63045,1.25455 z m 179.72513,49.70633 c -0.83872,2.99542 -1.48009,4.59181 -1.87125,5.38471 -0.40174,0.006 -0.84929,0.006 -1.23341,0.006 0,0 -152.75226,0 -153.154,-0.006 -0.49337,-0.99377 -1.37085,-3.18219 -2.5232,-7.848 l -6.56526,-26.10948 c 26.60637,11.62575 61.34971,20.90803 99.88136,25.62669 23.09292,2.82979 45.24492,3.72137 65.46576,2.94608"
       style="fill:#ffffff;fill-opacity:1;fill-rule:nonzero;stroke:none"
       id="path1064" />
  </g>
</svg>
