<?xml version="1.0" encoding="UTF-8" standalone="no"?>
<!-- Created with Inkscape (http://www.inkscape.org/) -->

<svg
   xmlns:dc="http://purl.org/dc/elements/1.1/"
   xmlns:cc="http://creativecommons.org/ns#"
   xmlns:rdf="http://www.w3.org/1999/02/22-rdf-syntax-ns#"
   xmlns:svg="http://www.w3.org/2000/svg"
   xmlns="http://www.w3.org/2000/svg"
   xmlns:sodipodi="http://sodipodi.sourceforge.net/DTD/sodipodi-0.dtd"
   xmlns:inkscape="http://www.inkscape.org/namespaces/inkscape"
   width="300"
   height="300"
   id="svg5351"
   version="1.1"
   inkscape:version="0.48.4 r9939"
   sodipodi:docname="New document 20">
  <defs
     id="defs5353">
    <clipPath
       clipPathUnits="userSpaceOnUse"
       id="clipPath470">
      <path
         inkscape:connector-curvature="0"
         d="m 5370.95,5515.02 -553.33,0 c -62.76,0 -113.79,-51.05 -113.79,-113.79 l 0,-257.14 c 39.88,-12.19 82.99,-18.36 128.51,-18.36 l 0.02,0 c 63.24,0 130.64,11.86 200.32,35.25 174.26,58.49 333.51,125.52 452.05,175.77 l 0,64.48 c 0,62.74 -51.03,113.79 -113.78,113.79 l 0,0"
         id="path472" />
    </clipPath>
    <linearGradient
       x1="0"
       y1="0"
       x2="1"
       y2="0"
       gradientUnits="userSpaceOnUse"
       gradientTransform="matrix(-4e-6,-84.4207,415.773,-2e-5,301.542,552.713)"
       spreadMethod="pad"
       id="linearGradient474">
      <stop
         style="stop-color:#393536;stop-opacity:1;"
         offset="0"
         id="stop476" />
      <stop
         style="stop-opacity:1;stop-color:#5d5a5b"
         offset="0.0484848"
         id="stop478" />
      <stop
         style="stop-opacity:1;stop-color:#343131"
         offset="1"
         id="stop480" />
    </linearGradient>
    <clipPath
       clipPathUnits="userSpaceOnUse"
       id="clipPath436">
      <path
         inkscape:connector-curvature="0"
         d="m 4832.34,5125.73 c -45.52,0 -88.63,6.17 -128.51,18.36 l 0,257.14 c 0,62.74 51.03,113.79 113.79,113.79 l 553.33,0 c 62.75,0 113.78,-51.05 113.78,-113.79 l 0,-64.48 c -118.54,-50.25 -277.79,-117.28 -452.05,-175.77 -69.68,-23.39 -137.08,-35.25 -200.32,-35.25 l -0.02,0 0,0 z m 538.61,424.48 -553.35,0 c -82.28,0 -148.97,-66.7 -148.97,-148.98 l 0,-553.34 c 0,-82.27 66.69,-148.98 148.97,-148.98 l 553.35,0 c 82.26,0 148.97,66.71 148.97,148.98 l 0,553.34 c 0,82.28 -66.71,148.98 -148.97,148.98 l 0,0"
         id="path438" />
    </clipPath>
    <linearGradient
       x1="0"
       y1="0"
       x2="1"
       y2="0"
       gradientUnits="userSpaceOnUse"
       gradientTransform="matrix(-4e-6,-84.4207,422.813,-2e-5,298.021,552.713)"
       spreadMethod="pad"
       id="linearGradient440">
      <stop
         style="stop-opacity:1;stop-color:#393536"
         offset="0"
         id="stop442" />
      <stop
         style="stop-opacity:1;stop-color:#4f4c4d"
         offset="0.0484848"
         id="stop444" />
      <stop
         style="stop-opacity:1;stop-color:#231f20"
         offset="1"
         id="stop446" />
    </linearGradient>
  </defs>
  <sodipodi:namedview
     id="base"
     pagecolor="#ffffff"
     bordercolor="#666666"
     borderopacity="1.0"
     inkscape:pageopacity="0.0"
     inkscape:pageshadow="2"
     inkscape:zoom="0.35"
     inkscape:cx="228.20554"
     inkscape:cy="-38.222351"
     inkscape:document-units="px"
     inkscape:current-layer="layer1"
     showgrid="false"
     fit-margin-top="0"
     fit-margin-left="0"
     fit-margin-right="0"
     fit-margin-bottom="0"
     inkscape:window-width="1855"
     inkscape:window-height="1056"
     inkscape:window-x="2625"
     inkscape:window-y="24"
     inkscape:window-maximized="1" />
  <metadata
     id="metadata5356">
    <rdf:RDF>
      <cc:Work
         rdf:about="">
        <dc:format>image/svg+xml</dc:format>
        <dc:type
           rdf:resource="http://purl.org/dc/dcmitype/StillImage" />
        <dc:title></dc:title>
      </cc:Work>
    </rdf:RDF>
  </metadata>
  <g
     inkscape:label="Layer 1"
     inkscape:groupmode="layer"
     id="layer1"
     transform="translate(-146.79446,-194.13983)">
    <g
       transform="matrix(0.35240635,0,0,-0.35240221,-1498.4604,2150.0461)"
       id="g432">
      <g
         id="g434"
         clip-path="url(#clipPath436)">
        <path
           inkscape:connector-curvature="0"
           d="m 4832.34,5125.73 c -45.52,0 -88.63,6.17 -128.51,18.36 l 0,257.14 c 0,62.74 51.03,113.79 113.79,113.79 l 553.33,0 c 62.75,0 113.78,-51.05 113.78,-113.79 l 0,-64.48 c -118.54,-50.25 -277.79,-117.28 -452.05,-175.77 -69.68,-23.39 -137.08,-35.25 -200.32,-35.25 l -0.02,0 0,0 z m 538.61,424.48 -553.35,0 c -82.28,0 -148.97,-66.7 -148.97,-148.98 l 0,-553.34 c 0,-82.27 66.69,-148.98 148.97,-148.98 l 553.35,0 c 82.26,0 148.97,66.71 148.97,148.98 l 0,553.34 c 0,82.28 -66.71,148.98 -148.97,148.98 l 0,0"
           style="fill:url(#linearGradient440);fill-opacity:1;fill-rule:nonzero;stroke:none"
           id="path448" />
      </g>
    </g>
    <g
       id="g466"
       transform="matrix(0.36378921,0,0,-0.43231854,-1556.4478,2585.1478)">
      <g
         id="g468"
         clip-path="url(#clipPath470)">
        <path
           d="m 5370.95,5515.02 -553.33,0 c -62.76,0 -113.79,-51.05 -113.79,-113.79 l 0,-257.14 c 39.88,-12.19 82.99,-18.36 128.51,-18.36 l 0.02,0 c 63.24,0 130.64,11.86 200.32,35.25 174.26,58.49 333.51,125.52 452.05,175.77 l 0,64.48 c 0,62.74 -51.03,113.79 -113.78,113.79 l 0,0"
           style="fill:url(#linearGradient474);fill-opacity:1;fill-rule:nonzero;stroke:none"
           id="path482"
           inkscape:connector-curvature="0" />
      </g>
    </g>
    <path
       inkscape:connector-curvature="0"
       d="m 388.27378,306.3271 1.6246,0 1.51534,-0.76119 c 3.03422,-1.53647 4.25355,-5.25079 2.72058,-8.2885 l -8.69034,-17.21132 c -1.54002,-3.04123 -5.24733,-4.26407 -8.29212,-2.72407 l -5.70546,2.87913 12.28841,23.62152 c 0.14449,0.25373 1.43782,2.48443 4.53899,2.48443"
       style="fill:#ffffff;fill-opacity:1;fill-rule:nonzero;stroke:none"
       id="path1046" />
    <path
       inkscape:connector-curvature="0"
       d="m 398.49709,309.43529 c -3.40777,0 -7.41815,0 -10.22331,0 -5.21209,0 -7.28776,-4.15835 -7.28776,-4.15835 l -14.1033,-27.0962 c -25.99702,0 -72.26092,0 -95.02285,0 -29.83472,0 -35.72343,26.3033 -35.72343,26.3033 0,0 105.94744,0 114.19023,0 8.24278,0 10.21273,8.63738 10.21273,8.63738 l 7.84457,39.77916 -144.35621,0 c -13.74033,3.66851 -27.87182,17.14437 -27.87182,17.14437 l 227.74965,0 c 0,0 -15.36139,-36.53706 -25.4085,-60.60966"
       style="fill:#ffffff;fill-opacity:1;fill-rule:nonzero;stroke:none"
       id="path1048" />
    <path
       inkscape:connector-curvature="0"
       d="m 163.66407,411.37468 227.7567,0 c 0,0 1.00084,-3.72489 3.56635,-8.43299 l -227.46772,0 c -1.30743,2.59721 -2.60076,5.3988 -3.85533,8.43299"
       style="fill:#ffffff;fill-opacity:1;fill-rule:nonzero;stroke:none"
       id="path1050" />
    <path
       inkscape:connector-curvature="0"
       d="m 192.86446,373.12847 c 0,0 -11.80913,5.31774 -23.17071,25.70069 l 227.83422,0 c 5.02532,-7.27006 13.6628,-15.00881 27.61457,-15.00881 l 0,-10.69188 -232.27808,0"
       style="fill:#ffffff;fill-opacity:1;fill-rule:nonzero;stroke:none"
       id="path1052" />
    <path
       inkscape:connector-curvature="0"
       d="m 329.14,336.67951 -52.28653,0 c -2.75229,0 -4.9936,2.2307 -4.9936,4.98649 l 0,8.1123 62.26668,0 0,-8.1123 c 0,-2.75579 -2.22721,-4.98649 -4.98655,-4.98649"
       style="fill:#ffffff;fill-opacity:1;fill-rule:nonzero;stroke:none"
       id="path1054" />
  </g>
</svg>
