<?xml version="1.0" encoding="UTF-8" standalone="no"?>
<!-- Created with Inkscape (http://www.inkscape.org/) -->

<svg
   xmlns:dc="http://purl.org/dc/elements/1.1/"
   xmlns:cc="http://creativecommons.org/ns#"
   xmlns:rdf="http://www.w3.org/1999/02/22-rdf-syntax-ns#"
   xmlns:svg="http://www.w3.org/2000/svg"
   xmlns="http://www.w3.org/2000/svg"
   xmlns:sodipodi="http://sodipodi.sourceforge.net/DTD/sodipodi-0.dtd"
   xmlns:inkscape="http://www.inkscape.org/namespaces/inkscape"
   width="300"
   height="300"
   id="svg6844"
   version="1.1"
   inkscape:version="0.48.4 r9939"
   sodipodi:docname="New document 64">
  <defs
     id="defs6846">
    <clipPath
       clipPathUnits="userSpaceOnUse"
       id="clipPath782">
      <path
         inkscape:connector-curvature="0"
         d="m 2541.7,1204.96 -553.34,0 c -62.75,0 -113.79,-51.05 -113.79,-113.79 l 0,-257.147 c 39.89,-12.179 83,-18.347 128.52,-18.347 63.24,0 130.64,11.844 200.32,35.242 174.28,58.496 333.52,125.516 452.06,175.752 l 0,64.5 c 0,62.74 -51.03,113.79 -113.77,113.79 l 0,0"
         id="path784" />
    </clipPath>
    <linearGradient
       x1="0"
       y1="0"
       x2="1"
       y2="0"
       gradientUnits="userSpaceOnUse"
       gradientTransform="matrix(-4e-6,-84.4197,415.77,-2e-5,18.6172,121.9)"
       spreadMethod="pad"
       id="linearGradient786">
      <stop
         style="stop-color:#38bff3;stop-opacity:1;"
         offset="0"
         id="stop788" />
      <stop
         style="stop-opacity:1;stop-color:#90dbf8"
         offset="0.0484848"
         id="stop790" />
      <stop
         style="stop-opacity:1;stop-color:#299cca"
         offset="1"
         id="stop792" />
    </linearGradient>
    <clipPath
       clipPathUnits="userSpaceOnUse"
       id="clipPath748">
      <path
         inkscape:connector-curvature="0"
         d="m 2003.09,815.676 c -45.52,0 -88.63,6.168 -128.52,18.347 l 0,257.147 c 0,62.74 51.04,113.79 113.79,113.79 l 553.34,0 c 62.74,0 113.77,-51.05 113.77,-113.79 l 0,-64.5 C 2536.93,976.434 2377.69,909.414 2203.41,850.918 2133.73,827.52 2066.33,815.676 2003.09,815.676 l 0,0 z m 538.61,424.464 -553.34,0 c -82.29,0 -148.98,-66.7 -148.98,-148.97 l 0,-553.338 c 0,-82.285 66.69,-148.984 148.98,-148.984 l 553.34,0 c 82.27,0 148.98,66.699 148.98,148.984 l 0,553.338 c 0,82.27 -66.71,148.97 -148.98,148.97 l 0,0"
         id="path750" />
    </clipPath>
    <linearGradient
       x1="0"
       y1="0"
       x2="1"
       y2="0"
       gradientUnits="userSpaceOnUse"
       gradientTransform="matrix(-4e-6,-84.4197,422.809,-2e-5,15.0986,121.9)"
       spreadMethod="pad"
       id="linearGradient752">
      <stop
         style="stop-opacity:1;stop-color:#38bff3"
         offset="0"
         id="stop754" />
      <stop
         style="stop-opacity:1;stop-color:#7fd6f7"
         offset="0.0484848"
         id="stop756" />
      <stop
         style="stop-opacity:1;stop-color:#0084ba"
         offset="1"
         id="stop758" />
    </linearGradient>
  </defs>
  <sodipodi:namedview
     id="base"
     pagecolor="#ffffff"
     bordercolor="#666666"
     borderopacity="1.0"
     inkscape:pageopacity="0.0"
     inkscape:pageshadow="2"
     inkscape:zoom="0.35"
     inkscape:cx="-24.86009"
     inkscape:cy="-9.6513943"
     inkscape:document-units="px"
     inkscape:current-layer="layer1"
     showgrid="false"
     fit-margin-top="0"
     fit-margin-left="0"
     fit-margin-right="0"
     fit-margin-bottom="0"
     inkscape:window-width="1855"
     inkscape:window-height="1056"
     inkscape:window-x="2625"
     inkscape:window-y="24"
     inkscape:window-maximized="1" />
  <metadata
     id="metadata6849">
    <rdf:RDF>
      <cc:Work
         rdf:about="">
        <dc:format>image/svg+xml</dc:format>
        <dc:type
           rdf:resource="http://purl.org/dc/dcmitype/StillImage" />
        <dc:title></dc:title>
      </cc:Work>
    </rdf:RDF>
  </metadata>
  <g
     inkscape:label="Layer 1"
     inkscape:groupmode="layer"
     id="layer1"
     transform="translate(-399.86009,-222.71079)">
    <g
       transform="matrix(0.34450684,0,0,-0.35240552,-230.61154,659.74297)"
       id="g744">
      <g
         id="g746"
         clip-path="url(#clipPath748)">
        <path
           inkscape:connector-curvature="0"
           d="m 2003.09,815.676 c -45.52,0 -88.63,6.168 -128.52,18.347 l 0,257.147 c 0,62.74 51.04,113.79 113.79,113.79 l 553.34,0 c 62.74,0 113.77,-51.05 113.77,-113.79 l 0,-64.5 C 2536.93,976.434 2377.69,909.414 2203.41,850.918 2133.73,827.52 2066.33,815.676 2003.09,815.676 l 0,0 z m 538.61,424.464 -553.34,0 c -82.29,0 -148.98,-66.7 -148.98,-148.97 l 0,-553.338 c 0,-82.285 66.69,-148.984 148.98,-148.984 l 553.34,0 c 82.27,0 148.98,66.699 148.98,148.984 l 0,553.338 c 0,82.27 -66.71,148.97 -148.98,148.97 l 0,0"
           style="fill:url(#linearGradient752);fill-opacity:1;fill-rule:nonzero;stroke:none"
           id="path760" />
      </g>
    </g>
    <g
       id="g778"
       transform="matrix(0.35563455,0,0,-0.43232379,-255.81594,750.40282)">
      <g
         id="g780"
         clip-path="url(#clipPath782)">
        <path
           d="m 2541.7,1204.96 -553.34,0 c -62.75,0 -113.79,-51.05 -113.79,-113.79 l 0,-257.147 c 39.89,-12.179 83,-18.347 128.52,-18.347 63.24,0 130.64,11.844 200.32,35.242 174.28,58.496 333.52,125.516 452.06,175.752 l 0,64.5 c 0,62.74 -51.03,113.79 -113.77,113.79 l 0,0"
           style="fill:url(#linearGradient786);fill-opacity:1;fill-rule:nonzero;stroke:none"
           id="path794"
           inkscape:connector-curvature="0" />
      </g>
    </g>
    <path
       inkscape:connector-curvature="0"
       d="m 676.05811,500.19419 -97.09236,-74.11266 99.22486,-75.74251 -10.41789,0 -94.01591,71.76845 -94.01936,-71.76845 -10.42134,0 99.22831,75.74251 -97.08892,74.11266 10.41789,0 91.88342,-70.13434 91.87997,70.13434 10.42133,0"
       style="fill:#ffffff;fill-opacity:1;fill-rule:nonzero;stroke:none"
       id="path1022" />
    <path
       inkscape:connector-curvature="0"
       d="m 482.92069,501.77297 -14.53474,0 c -1.35047,0 -2.446,1.12874 -2.446,2.50278 l 0,2.50527 19.42329,0 0,-2.50527 c 0,-1.37404 -1.09553,-2.50278 -2.44255,-2.50278"
       style="fill:#ffffff;fill-opacity:1;fill-rule:nonzero;stroke:none"
       id="path1024" />
    <path
       inkscape:connector-curvature="0"
       d="m 679.05877,501.77297 -14.5313,0 c -1.35047,0 -2.44944,1.12874 -2.44944,2.50278 l 0,2.50527 19.42674,0 0,-2.50527 c 0,-1.37404 -1.09209,-2.50278 -2.446,-2.50278"
       style="fill:#ffffff;fill-opacity:1;fill-rule:nonzero;stroke:none"
       id="path1026" />
    <path
       inkscape:connector-curvature="0"
       d="m 482.9827,345.49629 0,-2.57397 -19.94006,0 0,2.57397 c 0,1.41805 1.11621,2.56726 2.50801,2.56726 l 14.92404,0 c 1.39181,0 2.50801,-1.14921 2.50801,-2.56726"
       style="fill:#ffffff;fill-opacity:1;fill-rule:nonzero;stroke:none"
       id="path1028" />
    <path
       inkscape:connector-curvature="0"
       d="m 664.45857,345.49629 c 0,1.41805 1.11964,2.56726 2.50456,2.56726 l 14.92748,0 c 1.38837,0 2.51146,-1.14921 2.51146,-2.56726 l 0,-2.57397 -19.9435,0 0,2.57397"
       style="fill:#ffffff;fill-opacity:1;fill-rule:nonzero;stroke:none"
       id="path1030" />
    <path
       inkscape:connector-curvature="0"
       d="m 698.2099,332.90061 -248.9682,0 c -0.91294,0 -1.66052,0.75697 -1.66052,1.69329 l 0,3.17977 c 0,0.92928 0.74758,1.68625 1.66052,1.68625 l 248.9682,0 c 0.9095,0 1.65019,-0.75697 1.65019,-1.68625 l 0,-3.17977 c 0,-0.93632 -0.74069,-1.69329 -1.65019,-1.69329"
       style="fill:#ffffff;fill-opacity:1;fill-rule:nonzero;stroke:none"
       id="path1032" />
    <path
       inkscape:connector-curvature="0"
       d="m 403.68412,328.32357 0,-1.90652 -3.82403,0 0,1.90652 c 0,5.4443 4.33045,9.87017 9.64619,9.87017 l 36.55218,0 0,-3.91382 -36.55218,0 c -3.2108,0 -5.82216,-2.6663 -5.82216,-5.95635"
       style="fill:#ffffff;fill-opacity:1;fill-rule:nonzero;stroke:none"
       id="path1034" />
    <path
       inkscape:connector-curvature="0"
       d="m 451.57401,323.93646 4.94023,2.5493 c 0.8716,0.45849 1.93613,0.0894 2.38399,-0.79573 l 0.21717,-0.44615 0,-0.48172 c 0,-0.9085 -0.64078,-1.2884 -0.71313,-1.32823 l -6.78333,-3.61075 -0.83027,1.67641 c -0.43752,0.89511 -0.0896,1.98508 0.78548,2.43687"
       style="fill:#ffffff;fill-opacity:1;fill-rule:nonzero;stroke:none"
       id="path1036" />
    <path
       inkscape:connector-curvature="0"
       d="m 489.28718,254.64578 c -0.86816,0.3665 -1.67775,0.74357 -2.42189,1.13122 l 0,70.96356 c 1.35047,-0.75028 2.42189,-1.05053 2.42189,-1.05053 l 0,-71.04425"
       style="fill:#ffffff;fill-opacity:1;fill-rule:nonzero;stroke:none"
       id="path1038" />
    <path
       inkscape:connector-curvature="0"
       d="m 469.26788,308.85598 2.32542,0 0,-18.29656 -2.32542,0 c -0.79236,0 -1.43315,0.66605 -1.43315,1.46954 l 0,15.36629 c 0,0.80526 0.64079,1.46073 1.43315,1.46073"
       style="fill:#ffffff;fill-opacity:1;fill-rule:nonzero;stroke:none"
       id="path1040" />
    <path
       inkscape:connector-curvature="0"
       d="m 485.68708,327.48095 0,-71.0661 c -5.85662,3.33728 -7.38278,6.80848 -7.38278,6.80848 l 0,67.3507 4.4338,0 c 0.81304,-1.33528 1.89134,-2.3495 2.94898,-3.09308"
       style="fill:#ffffff;fill-opacity:1;fill-rule:nonzero;stroke:none"
       id="path1042" />
    <path
       inkscape:connector-curvature="0"
       d="m 460.00754,324.76216 c 0,0.83308 0,2.00589 0,3.01058 2.00158,0.84685 4.29944,1.8311 6.55941,2.80129 l 10.84852,0 0,-66.38511 c 0,0 -3.87226,4.15134 -4.92645,8.18638 l 0,46.54609 -11.42385,-2.30863 c 0,0 -2.48044,-0.56418 -2.48044,-2.99826 0,-2.41855 0,-36.85528 0,-36.85528 0,0 -7.55159,1.73736 -7.55159,10.49464 0,6.68513 0,23.58687 0,31.23125 l 7.77896,4.13935 c 0,0 1.19544,0.61249 1.19544,2.1377"
       style="fill:#ffffff;fill-opacity:1;fill-rule:nonzero;stroke:none"
       id="path1044" />
  </g>
</svg>
