<?xml version="1.0" encoding="UTF-8" standalone="no"?>
<!-- Created with Inkscape (http://www.inkscape.org/) -->

<svg
   xmlns:dc="http://purl.org/dc/elements/1.1/"
   xmlns:cc="http://creativecommons.org/ns#"
   xmlns:rdf="http://www.w3.org/1999/02/22-rdf-syntax-ns#"
   xmlns:svg="http://www.w3.org/2000/svg"
   xmlns="http://www.w3.org/2000/svg"
   xmlns:xlink="http://www.w3.org/1999/xlink"
   xmlns:sodipodi="http://sodipodi.sourceforge.net/DTD/sodipodi-0.dtd"
   xmlns:inkscape="http://www.inkscape.org/namespaces/inkscape"
   width="600"
   height="600"
   id="svg4915"
   version="1.1"
   inkscape:version="0.48.4 r9939"
   sodipodi:docname="washingMachine.svg">
  <defs
     id="defs4917">
    <clipPath
       clipPathUnits="userSpaceOnUse"
       id="clipPath522">
      <path
         inkscape:connector-curvature="0"
         d="m 1127.07,5515.02 -553.34,0 c -62.738,0 -113.789,-51.05 -113.789,-113.79 l 0,-257.14 c 39.899,-12.19 83.02,-18.36 128.52,-18.36 l 0.016,0 c 63.234,0 130.64,11.86 200.312,35.25 174.281,58.49 333.511,125.52 452.071,175.77 l 0,64.48 c 0,62.74 -51.05,113.79 -113.79,113.79 l 0,0"
         id="path524" />
    </clipPath>
    <clipPath
       clipPathUnits="userSpaceOnUse"
       id="clipPath488">
      <path
         inkscape:connector-curvature="0"
         d="m 588.461,5125.73 c -45.5,0 -88.621,6.17 -128.52,18.36 l 0,257.14 c 0,62.74 51.051,113.79 113.789,113.79 l 553.34,0 c 62.74,0 113.79,-51.05 113.79,-113.79 l 0,-64.48 C 1122.3,5286.5 963.07,5219.47 788.789,5160.98 719.117,5137.59 651.711,5125.73 588.477,5125.73 l -0.016,0 0,0 z m 538.609,424.48 -553.34,0 c -82.269,0 -148.972,-66.7 -148.972,-148.98 l 0,-553.34 c 0,-82.27 66.703,-148.98 148.972,-148.98 l 553.34,0 c 82.29,0 148.98,66.71 148.98,148.98 l 0,553.34 c 0,82.28 -66.69,148.98 -148.98,148.98 l 0,0"
         id="path490" />
    </clipPath>
    <linearGradient
       x1="0"
       y1="0"
       x2="1"
       y2="0"
       gradientUnits="userSpaceOnUse"
       gradientTransform="matrix(-4e-6,-84.4207,422.813,-2e-5,-126.366,552.713)"
       spreadMethod="pad"
       id="linearGradient492">
      <stop
         style="stop-opacity:1;stop-color:#78bc24"
         offset="0"
         id="stop494" />
      <stop
         style="stop-opacity:1;stop-color:#69c52f"
         offset="0.0545455"
         id="stop496" />
      <stop
         style="stop-opacity:1;stop-color:#3e751a"
         offset="1"
         id="stop498" />
    </linearGradient>
    <linearGradient
       inkscape:collect="always"
       xlink:href="#linearGradient492"
       id="linearGradient3024"
       gradientUnits="userSpaceOnUse"
       gradientTransform="matrix(-4e-6,-84.4207,422.813,-2e-5,-126.366,552.713)"
       spreadMethod="pad"
       x1="0"
       y1="0"
       x2="1"
       y2="0" />
  </defs>
  <sodipodi:namedview
     id="base"
     pagecolor="#ffffff"
     bordercolor="#666666"
     borderopacity="1.0"
     inkscape:pageopacity="0.0"
     inkscape:pageshadow="2"
     inkscape:zoom="0.98994949"
     inkscape:cx="128.60767"
     inkscape:cy="278.29926"
     inkscape:document-units="px"
     inkscape:current-layer="layer1"
     showgrid="false"
     fit-margin-top="0"
     fit-margin-left="0"
     fit-margin-right="0"
     fit-margin-bottom="0"
     inkscape:window-width="1855"
     inkscape:window-height="1056"
     inkscape:window-x="65"
     inkscape:window-y="24"
     inkscape:window-maximized="1" />
  <metadata
     id="metadata4920">
    <rdf:RDF>
      <cc:Work
         rdf:about="">
        <dc:format>image/svg+xml</dc:format>
        <dc:type
           rdf:resource="http://purl.org/dc/dcmitype/StillImage" />
        <dc:title></dc:title>
      </cc:Work>
    </rdf:RDF>
  </metadata>
  <g
     inkscape:label="Layer 1"
     inkscape:groupmode="layer"
     id="layer1"
     transform="translate(-243.937,-231.28274)">
    <g
       id="g3014"
       transform="matrix(2,0,0,2,-243.937,-831.28272)">
      <g
         id="g484"
         transform="matrix(0.35240552,0,0,-0.35240221,94.249936,2487.189)">
        <g
           clip-path="url(#clipPath488)"
           id="g486">
          <g
             id="g3006">
            <g
               id="g3009">
              <path
                 id="path500"
                 style="fill:url(#linearGradient3024);fill-opacity:1;fill-rule:nonzero;stroke:none"
                 d="m 588.461,5125.73 c -45.5,0 -88.621,6.17 -128.52,18.36 l 0,257.14 c 0,62.74 51.051,113.79 113.789,113.79 l 553.34,0 c 62.74,0 113.79,-51.05 113.79,-113.79 l 0,-64.48 C 1122.3,5286.5 963.07,5219.47 788.789,5160.98 719.117,5137.59 651.711,5125.73 588.477,5125.73 l -0.016,0 0,0 z m 538.609,424.48 -553.34,0 c -82.269,0 -148.972,-66.7 -148.972,-148.98 l 0,-553.34 c 0,-82.27 66.703,-148.98 148.972,-148.98 l 553.34,0 c 82.29,0 148.98,66.71 148.98,148.98 l 0,553.34 c 0,82.28 -66.69,148.98 -148.98,148.98 l 0,0"
                 inkscape:connector-curvature="0" />
            </g>
          </g>
        </g>
      </g>
      <g
         transform="matrix(0.36378805,0,0,-0.44373514,84.570061,2984.2252)"
         id="g518">
        <g
           clip-path="url(#clipPath522)"
           id="g520">
          <path
             inkscape:connector-curvature="0"
             id="path534"
             style="fill:#78bc24;fill-opacity:1;fill-rule:nonzero;stroke:none"
             d="m 1127.07,5515.02 -553.34,0 c -62.738,0 -113.789,-51.05 -113.789,-113.79 l 0,-257.14 c 39.899,-12.19 83.02,-18.36 128.52,-18.36 l 0.016,0 c 63.234,0 130.64,11.86 200.312,35.25 174.281,58.49 333.511,125.52 452.071,175.77 l 0,64.48 c 0,62.74 -51.05,113.79 -113.79,113.79 l 0,0" />
        </g>
      </g>
    </g>
    <g
       id="g3293"
       transform="translate(13.690745,19.341058)">
      <path
         id="path928"
         style="fill:#ffffff;fill-opacity:1;fill-rule:nonzero;stroke:none"
         d="m 781.51831,286.0232 -11.9445,43.05771 c -2.6368,9.69639 -5.78035,11.33256 -11.83485,11.33256 l -59.69179,0 c -6.05285,0 -9.19872,-1.63617 -11.83818,-11.34614 l -11.94151,-43.04413 -6.374,0 12.31916,44.40284 c 3.08872,11.37026 7.92385,15.59716 17.83453,15.59716 l 59.69179,0 c 9.91083,0 14.74579,-4.2269 17.83119,-15.58661 l 12.32333,-44.41339 -6.37517,0"
         inkscape:connector-curvature="0" />
      <path
         id="path930"
         style="fill:#ffffff;fill-opacity:1;fill-rule:nonzero;stroke:none"
         d="m 756.8268,311.00762 c 2.28788,0 4.14045,-1.68292 4.14045,-3.75792 0,-2.07651 -1.85257,-3.75942 -4.14045,-3.75942 -2.28955,0 -4.14212,1.68291 -4.14212,3.75942 0,2.075 1.85257,3.75792 4.14212,3.75792"
         inkscape:connector-curvature="0" />
      <path
         id="path932"
         style="fill:#ffffff;fill-opacity:1;fill-rule:nonzero;stroke:none"
         d="m 737.16181,326.57311 c 0.82941,0 1.551,-0.26389 2.15995,-0.7932 0.60926,-0.5293 1.05654,-1.36322 1.34331,-2.50628 0.28827,-1.14155 0.43366,-2.92249 0.43366,-5.3398 0,-3.54831 -0.33031,-5.93245 -0.99442,-7.15392 -0.66194,-1.21997 -1.65551,-1.83221 -2.98354,-1.83221 -1.34998,0 -2.3261,0.62431 -2.93022,1.86991 -0.6023,1.24409 -0.90352,3.55132 -0.90352,6.91565 0,3.40203 0.33097,5.72585 0.99441,6.97145 0.66327,1.2456 1.62245,1.8684 2.88037,1.8684"
         inkscape:connector-curvature="0" />
      <path
         id="path934"
         style="fill:#ffffff;fill-opacity:1;fill-rule:nonzero;stroke:none"
         d="m 697.94331,335.85481 59.69097,0 c 3.78822,0 5.68565,0 8.04165,-8.65739 l 8.33075,-30.03166 c -42.79387,-3.64181 -49.43471,4.34905 -92.22741,0.74494 l 8.13104,29.31688 c 2.34753,8.62723 4.24645,8.62723 8.033,8.62723 z m 58.88349,-34.11984 c 3.35456,0 6.07443,2.46859 6.07443,5.51473 0,3.04464 -2.71987,5.51322 -6.07443,5.51322 -3.35789,0 -6.07526,-2.46858 -6.07526,-5.51322 0,-3.04614 2.71737,-5.51473 6.07526,-5.51473 z m -28.62878,5.31718 c 2.01324,-2.02825 5.08119,-3.04313 9.20636,-3.04313 1.98017,0 3.60728,0.22168 4.88016,0.66503 1.26937,0.44335 2.30914,1.02242 3.10998,1.73268 0.8035,0.71027 1.43704,1.45823 1.89909,2.24088 0.46141,0.78416 0.83209,1.698 1.11371,2.74304 0.54913,1.99356 0.82293,4.07158 0.82293,6.23253 0,4.8482 -0.90086,8.3965 -2.71155,10.64492 -1.80422,2.24691 -4.91836,3.37036 -9.33563,3.37036 -2.47597,0 -4.47757,-0.3589 -6.00399,-1.07671 -1.52725,-0.71478 -2.77785,-1.76736 -3.75598,-3.1517 -0.70863,-0.9817 -1.26174,-2.32834 -1.65684,-4.0369 -0.39461,-1.70704 -0.59066,-3.59203 -0.59066,-5.65798 0,-5.07892 1.00604,-8.63175 3.02242,-10.66302 z m -15.67323,11.88449 c -0.75017,-0.74193 -1.74707,-1.1129 -2.99253,-1.1129 -0.78921,0 -1.5525,0.17493 -2.2912,0.52931 -0.54648,0.25485 -1.14925,0.71629 -1.80688,1.38434 l -6.96583,-0.91083 2.58894,-14.36212 19.41943,0 0,5.9249 -13.15308,0 -0.70365,4.00824 c 0.91134,-0.38906 1.81087,-0.6801 2.69993,-0.87463 0.89107,-0.19453 1.77,-0.29104 2.64278,-0.29104 2.944,0 5.33374,0.80828 7.16853,2.42334 1.83347,1.61657 2.75061,3.65085 2.75061,6.10586 0,1.72514 -0.4712,3.38394 -1.41493,4.97487 -0.94439,1.59244 -2.28389,2.80637 -4.0175,3.64632 -1.73478,0.83694 -3.95188,1.25616 -6.65762,1.25616 -1.94063,0 -3.60213,-0.16739 -4.98765,-0.50216 -1.38568,-0.33327 -2.56435,-0.8309 -3.53401,-1.49291 -0.97165,-0.66352 -1.75885,-1.4145 -2.36182,-2.25144 -0.59963,-0.83844 -1.10208,-1.88197 -1.50381,-3.1336 l 8.27193,-0.82035 c 0.20054,1.20338 0.67041,2.11722 1.40629,2.74153 0.73605,0.62582 1.61166,0.93948 2.63049,0.93948 1.13911,0 2.07752,-0.39208 2.82071,-1.17624 0.74318,-0.78264 1.11571,-1.95285 1.11571,-3.50759 0,-1.59244 -0.37452,-2.75811 -1.12484,-3.49854"
         inkscape:connector-curvature="0" />
    </g>
    <g
       id="g3299"
       transform="translate(-20.958935,11.742608)">
      <path
         id="path1086"
         style="fill:#ffffff;fill-opacity:1;fill-rule:nonzero;stroke:none"
         d="m 778.06528,484.3527 0,-4.78466 c 0,-1.25277 -1.19065,-2.26755 -2.65473,-2.26755 l -17.11902,0 c -1.46602,0 -2.65668,1.01478 -2.65668,2.26755 l 0,4.78466 c 0,1.25112 1.19066,2.26425 2.65668,2.26425 l 17.11902,0 c 1.46408,0 2.65473,-1.01313 2.65473,-2.26425"
         inkscape:connector-curvature="0" />
      <path
         id="path1088"
         style="fill:#ffffff;fill-opacity:1;fill-rule:nonzero;stroke:none"
         d="m 758.97605,489.30099 15.76032,0 0,-1.7812 -15.76032,0 0,1.7812 z"
         inkscape:connector-curvature="0" />
      <path
         id="path1090"
         style="fill:#ffffff;fill-opacity:1;fill-rule:nonzero;stroke:none"
         d="m 742.77813,463.16301 0,-9.67345 -7.15168,0 c -1.70454,0 -3.08329,1.1784 -3.08329,2.62785 l 0,4.4161 c 0,1.45275 1.37875,2.6295 3.08329,2.6295 l 7.15168,0"
         inkscape:connector-curvature="0" />
      <path
         id="path1092"
         style="fill:#ffffff;fill-opacity:1;fill-rule:nonzero;stroke:none"
         d="m 744.00949,480.62744 c 2.75364,-1.91882 6.45746,-5.04745 8.59248,-9.15614 l 5.04186,0 c -2.15054,-5.59946 -7.97776,-6.80265 -8.84457,-6.9514 l -0.68647,0 c 0.76016,1.25443 1.37488,2.85593 1.08012,4.54006 0,0 -1.53194,6.5878 -8.82518,11.56748 l 3.64176,0"
         inkscape:connector-curvature="0" />
      <path
         id="path1094"
         style="fill:#ffffff;fill-opacity:1;fill-rule:nonzero;stroke:none"
         d="m 759.71487,476.08408 15.29428,0 0,-9.0702 15.29232,0 c 0,0 -3.75812,-13.80363 -22.87256,-13.80363 -19.11056,0 -23.4582,0 -23.4582,0 l 0,10.22215 4.94684,0 c 0,0 10.79732,1.53539 10.79732,12.65168"
         inkscape:connector-curvature="0" />
      <path
         id="path1096"
         style="fill:#ffffff;fill-opacity:1;fill-rule:nonzero;stroke:none"
         d="m 777.75113,490.20172 -21.87388,0 c 0,0 -6.70566,2.75842 -5.31916,7.09519 1.38844,4.33512 5.08646,8.87022 1.61728,12.02363 -3.4653,3.15342 -2.77108,4.5318 -1.38458,9.26522 1.38458,4.72847 0.92498,8.08022 -3.69994,10.83863 -4.62687,2.75841 -12.7113,11.82531 -12.7113,21.87888 l 0,15.9935 c 0,3.2658 3.10656,5.91348 6.93644,5.91348 l 44.29074,0 c 3.83182,0 6.93643,-2.64768 6.93643,-5.91348 l 0,-15.9935 -14.79203,-61.10155 z m 6.36826,78.37427 -41.31606,0 0,-26.09666 41.31606,0 0,26.09666"
         inkscape:connector-curvature="0" />
      <path
         id="path1098"
         style="fill:#ffffff;fill-opacity:1;fill-rule:nonzero;stroke:none"
         d="m 745.35529,566.53817 36.21408,0 0,-22.02135 -36.21408,0 0,22.02135 z"
         inkscape:connector-curvature="0" />
    </g>
    <g
       id="g3286"
       transform="translate(-17.759465,-15.289052)">
      <path
         id="path1056"
         style="fill:#ffffff;fill-opacity:1;fill-rule:nonzero;stroke:none"
         d="m 618.0277,569.35319 c -1.84352,6.23212 -4.05057,7.28292 -8.2918,7.28292 l -69.65626,0 c -4.23961,0 -6.43858,-1.0508 -8.29018,-7.29099 l -8.3645,-27.66511 -4.46419,0 8.62786,28.53696 c 2.16343,7.30848 5.54995,10.02494 12.49101,10.02494 l 69.65626,0 c 6.94107,0 10.3292,-2.71646 12.49263,-10.01687 l 8.62948,-28.54503 -4.46419,0 -8.36612,27.67318"
         inkscape:connector-curvature="0" />
      <path
         id="path1058"
         style="fill:#ffffff;fill-opacity:1;fill-rule:nonzero;stroke:none"
         d="m 552.72738,539.8354 c 0,-0.63506 0.14218,-1.24993 0.41523,-1.81905 -1.25863,-0.13858 -2.4284,-0.61756 -3.34774,-1.37909 -0.27143,-0.22872 -0.51864,-0.47763 -0.72706,-0.74134 l -32.13314,0 c -1.11806,0 -2.02609,0.75614 -2.02609,1.68989 l 0,1.12479 c 0,0.93374 0.90803,1.68854 2.02609,1.68854 l 35.86218,0 c -0.0258,-0.18702 -0.0663,-0.37269 -0.0695,-0.56374"
         inkscape:connector-curvature="0" />
      <path
         id="path1060"
         style="fill:#ffffff;fill-opacity:1;fill-rule:nonzero;stroke:none"
         d="m 632.88249,535.89592 -36.24995,0 -5.40292,4.50322 41.65287,0 c 1.11806,0 2.02609,-0.7548 2.02609,-1.68854 l 0,-1.12479 c 0,-0.93375 -0.90803,-1.68989 -2.02609,-1.68989"
         inkscape:connector-curvature="0" />
      <path
         id="path1062"
         style="fill:#ffffff;fill-opacity:1;fill-rule:nonzero;stroke:none"
         d="m 556.57114,535.45731 12.03215,-10.01821 0.93065,0.77363 -13.6834,11.39595 c -1.47353,1.22436 -1.46383,3.21562 0.0161,4.4494 1.48322,1.23108 3.87123,1.23781 5.33829,0.0134 l 13.68502,-11.39595 0.93065,0.77363 -11.37457,9.46927 c -1.46706,1.22705 -1.46221,3.21832 0.0178,4.45075 1.4816,1.23243 3.86961,1.23915 5.34314,0.0134 l 11.37456,-9.47061 0.92418,0.77363 -5.44169,4.53551 c -1.47191,1.2257 -1.46383,3.21966 0.0178,4.45074 1.47513,1.23109 3.86961,1.23916 5.34151,0.0122 l 11.98045,-9.97651 c 0,-10e-4 0,-10e-4 0,-10e-4 l 5.41585,-4.50995 c 2.14404,-1.78535 2.33631,-4.55967 0.62204,-6.54421 l 12.8287,-10.68151 -16.49312,-13.72896 -12.76729,10.63712 c -0.93873,-0.71309 -2.07134,-1.13556 -3.24919,-1.2728 -0.29244,-0.0619 -0.59134,-0.10354 -0.90479,-0.10354 l -22.32904,0 c -2.05194,0 -3.7145,1.38312 -3.7145,3.08915 0,1.70737 1.66256,3.09049 3.7145,3.09049 l 12.47647,0 -2.04709,1.70603 c -0.003,0 -0.003,10e-4 -0.003,10e-4 l -16.34124,13.60647 c -1.47029,1.2257 -1.46221,3.21696 0.0177,4.44939 1.47999,1.23244 3.86961,1.23782 5.34152,0.0122"
         inkscape:connector-curvature="0" />
      <path
         id="path1064"
         style="fill:#ffffff;fill-opacity:1;fill-rule:nonzero;stroke:none"
         d="m 528.68569,549.96528 5.70021,18.84032 c 1.63994,5.54459 2.97128,5.54459 5.62427,5.54459 l 69.65302,0 c 2.65622,0 3.9811,0 5.63235,-5.56208 l 5.83431,-19.30181 c -29.97455,-2.34108 -62.46799,2.7945 -92.44416,0.47898 z m 82.40094,18.97755 c -0.38454,1.14363 -0.6786,1.75312 -0.85794,2.05585 -0.18419,0.002 -0.38938,0.002 -0.5655,0.002 0,0 -70.03433,0 -70.21852,-0.002 -0.2262,-0.37942 -0.62851,-1.21494 -1.15684,-2.99632 l -3.01006,-9.96843 c 12.19857,4.43864 28.1278,7.98255 45.79392,9.78411 10.58771,1.08039 20.74403,1.42079 30.01494,1.12479"
         inkscape:connector-curvature="0" />
    </g>
    <g
       id="g3258"
       transform="translate(-13.429532,8.6408367)">
      <path
         id="path1046"
         style="fill:#ffffff;fill-opacity:1;fill-rule:nonzero;stroke:none"
         d="m 419.84113,689.18221 0.74557,0 0.69544,-0.33906 c 1.39249,-0.68441 1.95207,-2.33891 1.24855,-3.69203 l -3.98825,-7.66659 c -0.70676,-1.35469 -2.40815,-1.89939 -3.80549,-1.21341 l -2.6184,1.28247 5.6395,10.52196 c 0.0663,0.11302 0.65986,1.10666 2.08308,1.10666"
         inkscape:connector-curvature="0" />
      <path
         id="path1048"
         style="fill:#ffffff;fill-opacity:1;fill-rule:nonzero;stroke:none"
         d="m 424.5329,690.56672 c -1.56393,0 -3.40441,0 -4.69177,0 -2.39198,0 -3.34457,-1.85229 -3.34457,-1.85229 l -6.47241,-12.06971 c -11.93078,0 -33.16262,0 -43.60872,0 -13.69201,0 -16.39451,11.71652 -16.39451,11.71652 0,0 48.62233,0 52.40518,0 3.78285,0 4.68692,3.84742 4.68692,3.84742 l 3.6001,17.7192 -66.24923,0 c -6.30583,1.6341 -12.79118,7.63679 -12.79118,7.63679 l 104.52088,0 c 0,0 -7.04979,-16.27505 -11.66069,-26.99793"
         inkscape:connector-curvature="0" />
      <path
         id="path1050"
         style="fill:#ffffff;fill-opacity:1;fill-rule:nonzero;stroke:none"
         d="m 316.76126,735.97452 104.52411,0 c 0,0 0.45931,-1.6592 1.6367,-3.75638 l -104.39149,0 c -0.60002,1.15689 -1.19356,2.40484 -1.76932,3.75638"
         inkscape:connector-curvature="0" />
      <path
         id="path1052"
         style="fill:#ffffff;fill-opacity:1;fill-rule:nonzero;stroke:none"
         d="m 330.16216,718.93817 c 0,0 -5.41955,2.36872 -10.63371,11.44808 l 104.55969,0 c 2.30626,-3.23836 6.27025,-6.68551 12.67312,-6.68551 l 0,-4.76257 -106.5991,0"
         inkscape:connector-curvature="0" />
      <path
         id="path1054"
         style="fill:#ffffff;fill-opacity:1;fill-rule:nonzero;stroke:none"
         d="m 392.70293,702.70236 -23.9958,0 c -1.2631,0 -2.2917,0.99364 -2.2917,2.22118 l 0,3.61354 28.57597,0 0,-3.61354 c 0,-1.22754 -1.02213,-2.22118 -2.28847,-2.22118"
         inkscape:connector-curvature="0" />
    </g>
    <g
       id="g3308"
       transform="translate(-28.690745,10.074316)">
      <path
         inkscape:connector-curvature="0"
         id="path1020"
         style="fill:#ffffff;fill-opacity:1;fill-rule:nonzero;stroke:none"
         d="m 770.27388,644.54104 c 0,0 -44.99891,53.82955 -44.99891,77.37177 0,23.54295 20.14799,42.62823 44.99891,42.62823 24.85402,0 45.00109,-19.08528 45.00109,-42.62823 0,-23.54222 -45.00109,-77.37177 -45.00109,-77.37177 z m -28.54587,50.42588 c 0.30234,6.60377 1.50478,12.98341 3.49174,19.03461 l -13.32372,3.20098 c 1.38081,-6.15463 5.06789,-13.97858 9.83198,-22.23559 z m -10.42955,26.94589 c 0,-0.51554 0.0364,-1.05741 0.0898,-1.6079 l 14.7949,-3.5571 c 1.90919,5.1062 4.38253,9.96024 7.35446,14.49347 l -17.71627,7.90247 c -2.88194,-5.14806 -4.52292,-11.00539 -4.52292,-17.23094 z m 6.06055,19.73734 17.85176,-7.96663 c 2.72711,3.81977 5.81315,7.399 9.21488,10.679 l -13.43692,9.61711 c -5.53365,-3.00103 -10.21777,-7.24439 -13.62972,-12.32948 z m 32.91487,17.18558 c -5.8097,0 -11.32326,-1.22153 -16.28272,-3.39137 l 12.64109,-9.04967 c 4.62934,4.1306 9.77557,7.74371 15.35122,10.73644 -3.69842,1.10464 -7.63034,1.7046 -11.70959,1.7046" />
    </g>
    <g
       id="g3245"
       transform="translate(5.429715,-5.4003663)">
      <path
         id="path966"
         style="fill:#ffffff;fill-opacity:1;fill-rule:nonzero;stroke:none"
         d="m 336.81929,352.59108 c -0.001,0 -0.001,0 -0.001,0 -5.19309,0 -10.0761,-2.11617 -13.74944,-5.95629 -1.61858,-1.69365 -2.89641,-3.65294 -3.84371,-5.75484 -9.59735,2.00028 -17.75842,9.51117 -20.43334,20.08132 -3.74489,14.79001 4.67686,29.95439 18.81135,33.87118 14.1362,3.92035 28.62678,-4.89197 32.37167,-19.68375 2.24387,-8.84977 0.12445,-17.83145 -4.9682,-24.46164 -2.53521,1.23191 -5.30895,1.90402 -8.18662,1.90402 z m -26.20232,28.81342 -4.62915,0.48491 c -1.21478,-1.76496 -2.19105,-3.70107 -2.90663,-5.75305 l 7.84076,0.14262 c -0.17038,1.74178 -0.26579,3.45147 -0.30498,5.12552 z m 0.60314,-7.71947 -8.88177,-0.15868 c -0.63891,-2.80789 -0.79736,-5.77266 -0.39697,-8.74992 l 10.41004,2.54404 c -0.47535,2.14648 -0.85188,4.27335 -1.1313,6.36456 z m 1.72081,-8.89077 -10.52761,-2.57256 c 0.0187,-0.082 0.0323,-0.16402 0.0511,-0.24424 0.69174,-2.72945 1.82474,-5.20574 3.27806,-7.40748 l 8.94821,4.34286 c -0.64913,1.90224 -1.23694,3.86153 -1.74977,5.88142 z m 2.6221,-8.32383 -8.26499,-4.00592 c 2.01726,-2.40856 4.4724,-4.34288 7.19673,-5.72989 l 3.94764,3.18763 c -1.0376,2.07338 -2.00704,4.25016 -2.87938,6.54818"
         inkscape:connector-curvature="0" />
      <path
         id="path968"
         style="fill:#ffffff;fill-opacity:1;fill-rule:nonzero;stroke:none"
         d="m 352.59281,328.10985 c -4.28839,0 -8.31611,-1.74536 -11.34883,-4.91872 -0.94559,-0.98766 -1.73784,-2.08943 -2.41083,-3.25715 -1.13812,0.7666 -2.27624,1.59381 -3.39733,2.51908 l -3.48932,-5.22179 c 1.73444,-0.61149 3.55236,-0.86287 5.36177,-0.80225 -0.26749,-0.87535 -0.45491,-1.78279 -0.58099,-2.69914 -4.49966,0.0249 -8.99421,1.83092 -12.42731,5.42146 -6.91221,7.23276 -6.91221,18.95816 0,26.19271 6.91391,7.23455 18.12132,7.23455 25.03352,0 4.49115,-4.69764 6.04328,-11.28148 4.70412,-17.30909 -0.47876,0.0464 -0.95922,0.0749 -1.4448,0.0749 z m -28.01853,7.01526 -2.83338,-1.346 c -0.13289,-1.44763 -0.0784,-2.9113 0.16527,-4.34644 l 4.48773,2.8382 c -0.65424,0.94487 -1.25738,1.90045 -1.81962,2.85424 z m 2.82655,-4.2466 -5.08235,-3.21614 c 0.52987,-1.85054 1.38858,-3.6155 2.57611,-5.2004 l 5.20161,5.13265 c -0.96263,1.07324 -1.86392,2.16964 -2.69537,3.28389 z m 3.84712,-4.53719 -5.25784,-5.18792 c 0.0375,-0.0411 0.0698,-0.0837 0.10741,-0.12308 1.27612,-1.33352 2.72603,-2.37111 4.27135,-3.12701 l 3.78067,5.65144 c -0.98478,0.87356 -1.95422,1.79884 -2.90152,2.7865"
         inkscape:connector-curvature="0" />
      <path
         id="path970"
         style="fill:#ffffff;fill-opacity:1;fill-rule:nonzero;stroke:none"
         d="m 342.47751,300.72979 c -5.58666,5.84755 -5.58666,15.32662 0,21.1706 5.58838,5.84933 14.64733,5.84576 20.2323,0 5.58667,-5.84398 5.58667,-15.32305 10e-4,-21.1706 -5.59007,-5.84754 -14.64562,-5.84398 -20.234,0 z m 0.21979,12.91273 -2.28987,-1.0875 c -0.10904,-1.17129 -0.0613,-2.35506 0.13453,-3.51209 l 3.62733,2.29267 c -0.52987,0.76303 -1.01885,1.53675 -1.47206,2.30692 z m 2.28646,-3.43722 -4.10949,-2.59752 c 0.42935,-1.49397 1.12448,-2.9202 2.08541,-4.20024 l 4.2015,4.14676 c -0.77692,0.86822 -1.50613,1.75426 -2.17742,2.651 z m 3.10768,-3.66362 -4.2492,-4.19312 c 0.0324,-0.0339 0.0579,-0.0677 0.0868,-0.0963 1.03249,-1.08037 2.20298,-1.91828 3.45355,-2.53334 l 3.05486,4.57285 c -0.79907,0.69885 -1.5794,1.45297 -2.34609,2.24988 z m 3.3837,-3.14127 -2.81804,-4.21986 c 1.56406,-0.55445 3.21672,-0.76125 4.84723,-0.63646 l 1.01545,2.61535 c -1.02056,0.67211 -2.03942,1.41554 -3.04464,2.24097"
         inkscape:connector-curvature="0" />
      <path
         id="path972"
         style="fill:#ffffff;fill-opacity:1;fill-rule:nonzero;stroke:none"
         d="m 329.35676,304.73928 c 4.14869,-4.34109 4.14869,-11.37953 0,-15.71884 -4.14698,-4.34109 -10.87177,-4.34109 -15.02045,0 -4.14698,4.33931 -4.14698,11.37775 0,15.71884 4.14868,4.34109 10.87518,4.34109 15.02045,0 z m -6.83383,-17.34118 0.75478,1.93968 c -0.75648,0.49918 -1.51466,1.05006 -2.26091,1.66156 l -2.09223,-3.12879 c 1.16197,-0.41361 2.38698,-0.56694 3.59836,-0.47245 z m -7.10813,2.74906 c 0.76329,-0.79868 1.63562,-1.42088 2.56417,-1.8737 l 2.26772,3.39086 c -0.5895,0.52235 -1.17389,1.0768 -1.73955,1.6669 l -3.15709,-3.10918 c 0.0239,-0.0233 0.0425,-0.048 0.0648,-0.0749 z m -0.7207,0.86466 3.12131,3.0753 c -0.57758,0.64359 -1.12108,1.30144 -1.61858,1.96642 l -3.05146,-1.92898 c 0.31861,-1.10711 0.83485,-2.16786 1.54873,-3.11274 z m -1.79407,4.17707 2.69366,1.70078 c -0.39357,0.57406 -0.75477,1.14455 -1.09382,1.71861 l -1.69866,-0.80761 c -0.08,-0.86821 -0.0477,-1.74713 0.0988,-2.61178"
         inkscape:connector-curvature="0" />
      <path
         id="path974"
         style="fill:#ffffff;fill-opacity:1;fill-rule:nonzero;stroke:none"
         d="m 402.19301,359.13213 c -3.48762,0 -6.80657,-1.06433 -9.67742,-3.08244 -0.79055,0.58297 -1.5811,1.19268 -2.36484,1.83983 l -4.66663,-6.9814 c 0.60484,-0.21571 1.2216,-0.3922 1.84178,-0.54196 -0.60484,-1.04471 -1.10405,-2.14113 -1.49762,-3.27319 -3.87097,1.08749 -7.53238,3.20188 -10.57189,6.38237 -9.24467,9.67341 -9.24637,25.36015 0,35.03356 9.24806,9.67698 24.23785,9.67162 33.48081,0 8.33315,-8.71962 9.13393,-22.31158 2.44321,-31.99034 -2.67151,1.68474 -5.75364,2.61357 -8.9874,2.61357 z m -26.57031,15.7117 -3.78919,-1.80061 c -0.1789,-1.93967 -0.104,-3.89539 0.22149,-5.81724 l 6.00238,3.79913 c -0.87745,1.26578 -1.68502,2.54047 -2.43468,3.81872 z m 3.78236,-5.68887 -6.80144,-4.29652 c 0.71217,-2.47451 1.86051,-4.83671 3.45184,-6.95109 l 6.95137,6.86017 c -1.28464,1.43336 -2.48921,2.89881 -3.60177,4.38744 z m 5.14539,-6.06504 -7.03487,-6.93683 c 0.0511,-0.0534 0.0938,-0.11053 0.14652,-0.16045 1.70377,-1.78814 3.64437,-3.17514 5.71275,-4.18599 l 5.05168,7.5608 c -1.3136,1.16595 -2.61188,2.4032 -3.87608,3.72247"
         inkscape:connector-curvature="0" />
      <path
         id="path976"
         style="fill:#ffffff;fill-opacity:1;fill-rule:nonzero;stroke:none"
         d="m 382.36281,328.7873 c 1.51465,1.23191 3.18435,2.11083 4.91538,2.6831 0.34928,-0.6115 0.72922,-1.21051 1.15857,-1.78814 3.32746,-4.48014 8.35189,-7.04914 13.78011,-7.04914 1.31531,0 2.60336,0.16223 3.85904,0.45818 3.24058,-6.84769 1.54873,-15.36407 -4.44173,-20.23999 -6.84746,-5.56764 -16.70549,-4.27335 -22.02978,2.88811 -5.31916,7.16325 -4.08563,17.47667 2.75841,23.04788 z m 8.96525,-27.00032 1.4448,2.70093 c -1.02397,0.87356 -2.03431,1.82914 -3.02079,2.87207 l -3.61881,-4.19312 c 1.63051,-0.82186 3.40073,-1.28361 5.1948,-1.37988 z m -9.94322,5.40185 c 0.98138,-1.32283 2.14846,-2.4032 3.4297,-3.24824 l 3.92038,4.53898 c -0.77692,0.87892 -1.52999,1.80952 -2.2575,2.7865 l -5.17606,-3.95779 c 0.0307,-0.0428 0.0545,-0.0855 0.0836,-0.11938 z m -0.9047,1.39592 5.11302,3.91322 c -0.73092,1.06076 -1.40902,2.12509 -2.02408,3.20367 l -4.81145,-2.24809 c 0.2726,-1.68474 0.84166,-3.33916 1.72251,-4.8688 z m -1.8963,6.47509 4.2441,1.98424 c -0.47535,0.90744 -0.90641,1.81666 -1.29998,2.71875 l -2.63403,-0.85574 c -0.2709,-1.25686 -0.37483,-2.55473 -0.31009,-3.84725"
         inkscape:connector-curvature="0" />
      <path
         id="path978"
         style="fill:#ffffff;fill-opacity:1;fill-rule:nonzero;stroke:none"
         d="m 389.8134,330.80185 c -5.32088,7.15789 -4.08905,17.48201 2.755,23.04788 6.84576,5.56942 16.70379,4.27512 22.02637,-2.88633 5.32259,-7.15968 4.08906,-17.47667 -2.755,-23.04967 -6.84575,-5.56764 -16.70378,-4.27334 -22.02637,2.88812 z m 1.92016,14.02519 -2.63574,-0.85396 c -0.26749,-1.26042 -0.37142,-2.55652 -0.30838,-3.84903 l 4.2475,1.98245 c -0.47705,0.90923 -0.91152,1.81488 -1.30338,2.72054 z m 2.04112,-4.06297 -4.80975,-2.24632 c 0.26919,-1.6883 0.83996,-3.33916 1.72081,-4.86879 l 5.11472,3.91322 c -0.73262,1.05542 -1.40902,2.12152 -2.02578,3.20189 z m 2.90663,-4.43736 -5.17265,-3.95779 c 0.0307,-0.0411 0.0545,-0.0837 0.0818,-0.12308 0.98478,-1.31748 2.15016,-2.39785 3.4314,-3.24467 l 3.92038,4.54254 c -0.77352,0.87891 -1.52829,1.80953 -2.26091,2.78293 z m 3.27806,-3.90608 -3.62052,-4.18955 c 1.63051,-0.82187 3.40244,-1.28183 5.19651,-1.37989 l 1.4465,2.69914 c -1.02908,0.87536 -2.03771,1.82915 -3.02249,2.8703"
         inkscape:connector-curvature="0" />
    </g>
    <g
       id="g3279"
       transform="translate(-86.086145,2.9358363)">
      <path
         id="path956"
         style="fill:#ffffff;fill-opacity:1;fill-rule:nonzero;stroke:none"
         d="m 662.3697,669.89857 c 0,-0.96361 -0.79166,-1.75002 -1.76891,-1.75002 l -34.7331,0 c -0.97334,0 -1.76704,0.78641 -1.76704,1.75002 l 0,3.62491 38.26905,0 0,-3.62491"
         inkscape:connector-curvature="0" />
      <path
         id="path958"
         style="fill:#ffffff;fill-opacity:1;fill-rule:nonzero;stroke:none"
         d="m 632.2731,666.27197 21.92347,0 0,-2.44895 -21.92347,0 0,2.44895 z"
         inkscape:connector-curvature="0" />
      <path
         id="path960"
         style="fill:#ffffff;fill-opacity:1;fill-rule:nonzero;stroke:none"
         d="m 630.70363,661.94672 25.06445,0 c 1.18338,0 2.14254,-0.94673 2.14254,-2.11959 l 0,-6.0297 c 0,-1.16949 -0.95917,-2.11791 -2.14254,-2.11791 l -25.06445,0 c -1.18474,0 -2.14458,0.94842 -2.14458,2.11791 l 0,6.0297 c 0,1.17286 0.95984,2.11959 2.14458,2.11959"
         inkscape:connector-curvature="0" />
      <path
         id="path962"
         style="fill:#ffffff;fill-opacity:1;fill-rule:nonzero;stroke:none"
         d="m 673.96282,702.81301 1.23119,0 c 1.68029,0 3.04125,-1.345 3.04125,-3.0022 l 0,-6.7081 c 0,-1.32306 -0.45081,-2.63093 -1.27217,-3.67891 l -9.16132,-11.69152 c -1.1458,-1.45806 -2.94135,-2.33053 -4.8117,-2.33053 l -39.51048,0 c -1.86829,0 -3.66588,0.87247 -4.81066,2.33053 l -9.161,11.69152 c -0.82186,1.04798 -1.27267,2.35585 -1.27267,3.67891 l 0,6.7081 c 0,1.6572 1.3608,3.0022 3.04228,3.0022 l 1.11592,0 6.04203,3.43927 0,10.64184 -6.04203,3.43928 -1.11592,0 c -1.68148,0 -3.04228,1.34162 -3.04228,3.00388 l 0,34.31175 c 0,7.73584 6.36683,14.03049 14.19517,14.03049 l 41.60897,0 c 7.82648,0 14.19586,-6.29465 14.19586,-14.03049 l 0,-34.31175 c 0,-1.66226 -1.36096,-3.00388 -3.04125,-3.00388 l -1.23119,0 -6.04152,-3.43928 0,-10.64184 6.04152,-3.43927 z m -5.16381,24.34325 0,35.18254 -51.12785,0 0,-35.18254 51.12785,0"
         inkscape:connector-curvature="0" />
      <path
         id="path964"
         style="fill:#ffffff;fill-opacity:1;fill-rule:nonzero;stroke:none"
         d="m 666.88649,729.04465 -47.30092,0 0,31.40069 47.30092,0 0,-31.40069 z m -21.0386,24.88328 c -0.74895,0.90117 -1.70622,1.59645 -2.87218,2.0909 -1.16527,0.50121 -2.64338,0.74929 -4.44048,0.74929 -1.73493,0 -3.17836,-0.15863 -4.33441,-0.47759 -1.15316,-0.32063 -2.14852,-0.83872 -2.9762,-1.54919 -0.83177,-0.7189 -1.48426,-1.55932 -1.95709,-2.51617 -0.47164,-0.96698 -0.70849,-2.24447 -0.70849,-3.83417 0,-1.66057 0.28689,-3.04269 0.86115,-4.15143 0.42299,-0.80835 0.99656,-1.53569 1.7264,-2.17866 0.72897,-0.64465 1.47674,-1.11886 2.24858,-1.43781 1.21854,-0.49446 2.78476,-0.74422 4.69387,-0.74422 2.66813,0 4.70463,0.47252 6.10538,1.41756 1.40075,0.93829 2.38127,2.32041 2.94836,4.13624 l -5.89808,0.7746 c -0.1834,-0.68853 -0.51963,-1.21168 -1.00851,-1.55594 -0.48685,-0.35439 -1.14052,-0.5299 -1.9617,-0.5299 -1.03532,0 -1.87564,0.36789 -2.51668,1.10199 -0.64035,0.73409 -0.96395,1.8462 -0.96395,3.33633 0,1.32474 0.31695,2.33391 0.95524,3.02244 0.63575,0.68516 1.44686,1.0328 2.43199,1.0328 0.82118,0 1.51089,-0.20926 2.07183,-0.62272 0.56026,-0.41851 0.97659,-1.05473 1.25475,-1.92046 l 5.95853,0.66828 c -0.32888,1.22856 -0.86849,2.29004 -1.61831,3.18783 z m 10.17633,2.47567 -6.27939,0 0,-22.30635 6.27939,0 0,22.30635"
         inkscape:connector-curvature="0" />
    </g>
    <g
       id="g3254"
       transform="translate(-13.400282,-24.874592)">
      <path
         id="path952"
         style="fill:#ffffff;fill-opacity:1;fill-rule:nonzero;stroke:none"
         d="m 387.81763,548.13476 0,-40.33144 c 0,-4.5618 -3.35562,-8.25495 -7.49516,-8.25495 l -7.18258,0 c -4.13788,0 -7.49515,3.69315 -7.49515,8.25495 l 0,40.33144 c -8.18977,4.48714 -13.81444,13.79831 -13.81444,24.55178 0,15.1441 11.14846,27.42181 24.90006,27.42181 13.75325,0 24.90172,-12.27771 24.90172,-27.42181 0,-10.75347 -5.62634,-20.06464 -13.81445,-24.55178 z m -11.08727,48.07466 c -1.66872,0 -3.28947,-0.21853 -4.85234,-0.62099 3.64669,-2.82995 6.99735,-6.09697 10.00898,-9.71181 l 7.42404,5.8056 c -3.53423,2.84088 -7.87885,4.5272 -12.58068,4.5272 z m 13.63582,-5.42681 -7.61919,-5.95311 c 2.33024,-2.91555 4.43557,-6.05145 6.28621,-9.37492 l 8.31215,3.39267 c -1.1643,4.73299 -3.64504,8.88323 -6.97917,11.93536 z m 7.72834,-18.09607 c 0,1.6408 -0.15214,3.23242 -0.44487,4.78034 l -7.94996,-3.2397 c 2.24259,-4.20487 4.08992,-8.69201 5.48575,-13.41407 1.86552,3.52925 2.90908,7.59754 2.90908,11.87343"
         inkscape:connector-curvature="0" />
      <path
         id="path954"
         style="fill:#ffffff;fill-opacity:1;fill-rule:nonzero;stroke:none"
         d="m 404.2352,489.82745 -55.00803,0 c -4.13788,0 -7.49516,3.69315 -7.49516,8.25495 l 0,103.49556 c 0,4.55634 3.35728,8.24949 7.49516,8.24949 l 55.00803,0 c 4.13953,0 7.49681,-3.69315 7.49681,-8.24949 l 0,-103.49556 c 0,-4.5618 -3.35728,-8.25495 -7.49681,-8.25495 z m -10.86235,16.85955 6.48301,0 c 0.98237,0 1.77622,0.87776 1.77622,1.95766 l 0,1.07808 c 0,1.07808 -0.79385,1.95584 -1.77622,1.95584 l -6.48301,0 0,-4.99158 z m 0,10.402 6.48301,0 c 0.98237,0 1.77622,0.87412 1.77622,1.95584 l 0,1.07262 c 0,1.08536 -0.79385,1.96494 -1.77622,1.96494 l -6.48301,0 0,-4.9934 z m 0,10.39654 6.48301,0 c 0.98237,0 1.77622,0.87412 1.77622,1.9613 l 0,1.07262 c 0,1.08172 -0.79385,1.9613 -1.77622,1.9613 l -6.48301,0 0,-4.99522 z m 0,10.39654 6.48301,0 c 0.98237,0 1.77622,0.87958 1.77622,1.9613 l 0,1.07626 c 0,1.07626 -0.79385,1.95402 -1.77622,1.95402 l -6.48301,0 0,-4.99158 z M 351.8303,508.64466 c 0,-1.07808 0.79549,-1.95766 1.77786,-1.95766 l 6.48137,0 0,4.99158 -6.48137,0 c -0.98237,0 -1.77786,-0.8723 -1.77786,-1.9522 l 0,-1.08172 z m 0,10.40018 c 0,-1.08172 0.79549,-1.95584 1.77786,-1.95584 l 6.48137,0 0,4.9934 -6.48137,0 c -0.98237,0 -1.77786,-0.87958 -1.77786,-1.95948 l 0,-1.07808 z m 0,10.402 c 0,-1.08172 0.79549,-1.9613 1.77786,-1.9613 l 6.48137,0 0,4.99522 -6.48137,0 c -0.98237,0 -1.77786,-0.87958 -1.77786,-1.9613 l 0,-1.07262 z m 0,10.39654 c 0,-1.08172 0.79549,-1.9613 1.77786,-1.9613 l 6.48137,0 0,4.99158 -6.48137,0 c -0.98237,0 -1.77786,-0.87776 -1.77786,-1.95402 l 0,-1.07626 z m 24.90006,64.16026 c -15.67997,0 -28.44257,-14.04416 -28.44257,-31.3171 0,-11.13407 5.24264,-21.21375 13.81775,-26.86091 l 0,-38.02231 c 0,-6.70521 4.95157,-12.15388 11.03435,-12.15388 l 7.18258,0 c 6.08444,0 11.03601,5.44867 11.03601,12.15388 l 0,38.02231 c 8.57511,5.64716 13.8161,15.72684 13.8161,26.86091 0,17.27294 -12.7593,31.3171 -28.44422,31.3171"
         inkscape:connector-curvature="0" />
    </g>
    <g
       id="g3265"
       transform="translate(5.759465,10.400368)">
      <path
         id="path1022"
         style="fill:#ffffff;fill-opacity:1;fill-rule:nonzero;stroke:none"
         d="m 601.86886,372.35148 -38.83695,-29.39401 39.68995,-30.04044 -4.16716,0 -37.60636,28.46427 -37.60775,-28.46427 -4.16853,0 39.69132,30.04044 -38.83557,29.39401 4.16716,0 36.75337,-27.81616 36.75199,27.81616 4.16853,0"
         inkscape:connector-curvature="0" />
      <path
         id="path1024"
         style="fill:#ffffff;fill-opacity:1;fill-rule:nonzero;stroke:none"
         d="m 524.61389,372.97764 -5.8139,0 c -0.54018,0 -0.9784,0.44769 -0.9784,0.99265 l 0,0.9936 7.76932,0 0,-0.9936 c 0,-0.54496 -0.43821,-0.99265 -0.97702,-0.99265"
         inkscape:connector-curvature="0" />
      <path
         id="path1026"
         style="fill:#ffffff;fill-opacity:1;fill-rule:nonzero;stroke:none"
         d="m 603.06912,372.97764 -5.81252,0 c -0.54019,0 -0.97978,0.44769 -0.97978,0.99265 l 0,0.9936 7.7707,0 0,-0.9936 c 0,-0.54496 -0.43683,-0.99265 -0.9784,-0.99265"
         inkscape:connector-curvature="0" />
      <path
         id="path1028"
         style="fill:#ffffff;fill-opacity:1;fill-rule:nonzero;stroke:none"
         d="m 524.63869,310.99634 0,-1.02088 -7.97602,0 0,1.02088 c 0,0.56242 0.44648,1.01821 1.00321,1.01821 l 5.96961,0 c 0.55672,0 1.0032,-0.45579 1.0032,-1.01821"
         inkscape:connector-curvature="0" />
      <path
         id="path1030"
         style="fill:#ffffff;fill-opacity:1;fill-rule:nonzero;stroke:none"
         d="m 597.22904,310.99634 c 0,0.56242 0.44786,1.01821 1.00183,1.01821 l 5.97099,0 c 0.55534,0 1.00458,-0.45579 1.00458,-1.01821 l 0,-1.02088 -7.9774,0 0,1.02088"
         inkscape:connector-curvature="0" />
      <path
         id="path1032"
         style="fill:#ffffff;fill-opacity:1;fill-rule:nonzero;stroke:none"
         d="m 610.72957,306.00074 -99.58728,0 c -0.36517,0 -0.66421,0.30021 -0.66421,0.67158 l 0,1.26113 c 0,0.36858 0.29904,0.6688 0.66421,0.6688 l 99.58728,0 c 0.3638,0 0.66008,-0.30022 0.66008,-0.6688 l 0,-1.26113 c 0,-0.37137 -0.29628,-0.67158 -0.66008,-0.67158"
         inkscape:connector-curvature="0" />
      <path
         id="path1034"
         style="fill:#ffffff;fill-opacity:1;fill-rule:nonzero;stroke:none"
         d="m 492.91926,304.18542 0,-0.75615 -1.52961,0 0,0.75615 c 0,2.15929 1.73218,3.91464 3.85848,3.91464 l 14.62087,0 0,-1.55228 -14.62087,0 c -1.28432,0 -2.32887,-1.05748 -2.32887,-2.36236"
         inkscape:connector-curvature="0" />
      <path
         id="path1036"
         style="fill:#ffffff;fill-opacity:1;fill-rule:nonzero;stroke:none"
         d="m 512.07522,302.44544 1.97609,1.01109 c 0.34864,0.18184 0.77445,0.0355 0.95359,-0.31559 l 0.0869,-0.17695 0,-0.19107 c 0,-0.36033 -0.25632,-0.511 -0.28526,-0.52679 l -2.71333,-1.43206 -0.33211,0.66487 c -0.17501,0.35501 -0.0358,0.78732 0.31419,0.9665"
         inkscape:connector-curvature="0" />
      <path
         id="path1038"
         style="fill:#ffffff;fill-opacity:1;fill-rule:nonzero;stroke:none"
         d="m 527.16048,274.96389 c -0.34726,0.14536 -0.6711,0.29491 -0.96875,0.44865 l 0,28.14504 c 0.54019,-0.29756 0.96875,-0.41664 0.96875,-0.41664 l 0,-28.17705"
         inkscape:connector-curvature="0" />
      <path
         id="path1040"
         style="fill:#ffffff;fill-opacity:1;fill-rule:nonzero;stroke:none"
         d="m 519.15277,296.46433 0.93017,0 0,-7.25664 -0.93017,0 c -0.31695,0 -0.57326,0.26417 -0.57326,0.58284 l 0,6.09446 c 0,0.31937 0.25631,0.57934 0.57326,0.57934"
         inkscape:connector-curvature="0" />
      <path
         id="path1042"
         style="fill:#ffffff;fill-opacity:1;fill-rule:nonzero;stroke:none"
         d="m 525.72045,303.85124 0,-28.18572 c -2.34265,1.32362 -2.95312,2.70033 -2.95312,2.70033 l 0,26.71212 1.77352,0 c 0.32522,-0.52957 0.75654,-0.93182 1.1796,-1.22673"
         inkscape:connector-curvature="0" />
      <path
         id="path1044"
         style="fill:#ffffff;fill-opacity:1;fill-rule:nonzero;stroke:none"
         d="m 515.44863,302.77292 c 0,0.33041 0,0.79556 0,1.19404 0.80063,0.33586 1.71978,0.72624 2.62376,1.11101 l 4.33941,0 0,-26.32915 c 0,0 -1.5489,1.64647 -1.97058,3.24683 l 0,18.46075 -4.56954,-0.91563 c 0,0 -0.99218,-0.22377 -0.99218,-1.18914 0,-0.95923 0,-14.61727 0,-14.61727 0,0 -3.02063,0.68906 -3.02063,4.16231 0,2.6514 0,9.35483 0,12.3867 l 3.11158,1.64171 c 0,0 0.47818,0.24292 0.47818,0.84784"
         inkscape:connector-curvature="0" />
    </g>
  </g>
</svg>
