<?xml version="1.0" encoding="UTF-8" standalone="no"?>
<!-- Created with Inkscape (http://www.inkscape.org/) -->

<svg
   xmlns:dc="http://purl.org/dc/elements/1.1/"
   xmlns:cc="http://creativecommons.org/ns#"
   xmlns:rdf="http://www.w3.org/1999/02/22-rdf-syntax-ns#"
   xmlns:svg="http://www.w3.org/2000/svg"
   xmlns="http://www.w3.org/2000/svg"
   xmlns:sodipodi="http://sodipodi.sourceforge.net/DTD/sodipodi-0.dtd"
   xmlns:inkscape="http://www.inkscape.org/namespaces/inkscape"
   width="300"
   height="300"
   id="svg6575"
   version="1.1"
   inkscape:version="0.48.4 r9939"
   sodipodi:docname="New document 56">
  <defs
     id="defs6577">
    <clipPath
       clipPathUnits="userSpaceOnUse"
       id="clipPath54">
      <path
         inkscape:connector-curvature="0"
         d="m 5370.95,2641.63 -553.34,0 c -62.75,0 -113.79,-51.04 -113.79,-113.79 l 0,-257.13 c 39.88,-12.2 83,-18.37 128.52,-18.37 l 0,0 c 63.23,0 130.64,11.88 200.32,35.25 174.28,58.5 333.51,125.54 452.07,175.79 l 0,64.46 c 0,62.75 -51.05,113.79 -113.78,113.79 l 0,0"
         id="path56" />
    </clipPath>
    <linearGradient
       x1="0"
       y1="0"
       x2="1"
       y2="0"
       gradientUnits="userSpaceOnUse"
       gradientTransform="matrix(-4e-6,-84.4207,415.775,-2e-5,301.54,265.275)"
       spreadMethod="pad"
       id="linearGradient58">
      <stop
         style="stop-color:#f57d14;stop-opacity:1;"
         offset="0"
         id="stop60" />
      <stop
         style="stop-opacity:1;stop-color:#fabb23"
         offset="0.0484848"
         id="stop62" />
      <stop
         style="stop-opacity:1;stop-color:#f57a28"
         offset="1"
         id="stop64" />
    </linearGradient>
    <clipPath
       clipPathUnits="userSpaceOnUse"
       id="clipPath20">
      <path
         inkscape:connector-curvature="0"
         d="m 4832.34,2252.34 c -45.52,0 -88.64,6.17 -128.52,18.37 l 0,257.13 c 0,62.75 51.04,113.79 113.79,113.79 l 553.34,0 c 62.73,0 113.78,-51.04 113.78,-113.79 l 0,-64.46 c -118.56,-50.25 -277.79,-117.29 -452.07,-175.79 -69.68,-23.37 -137.09,-35.25 -200.32,-35.25 l 0,0 0,0 z m 538.61,424.5 -553.34,0 c -82.29,0 -148.98,-66.7 -148.98,-149 l 0,-553.33 c 0,-82.28 66.69,-148.98 148.98,-148.98 l 553.34,0 c 82.27,0 148.96,66.7 148.96,148.98 l 0,553.33 c 0,82.3 -66.69,149 -148.96,149 l 0,0"
         id="path22" />
    </clipPath>
    <linearGradient
       x1="0"
       y1="0"
       x2="1"
       y2="0"
       gradientUnits="userSpaceOnUse"
       gradientTransform="matrix(-4e-6,-84.4207,422.811,-2e-5,298.021,265.275)"
       spreadMethod="pad"
       id="linearGradient24">
      <stop
         style="stop-opacity:1;stop-color:#f57d14"
         offset="0"
         id="stop26" />
      <stop
         style="stop-opacity:1;stop-color:#f9a70d"
         offset="0.0484848"
         id="stop28" />
      <stop
         style="stop-opacity:1;stop-color:#f2521b"
         offset="1"
         id="stop30" />
    </linearGradient>
  </defs>
  <sodipodi:namedview
     id="base"
     pagecolor="#ffffff"
     bordercolor="#666666"
     borderopacity="1.0"
     inkscape:pageopacity="0.0"
     inkscape:pageshadow="2"
     inkscape:zoom="0.35"
     inkscape:cx="16.776414"
     inkscape:cy="-163.93603"
     inkscape:document-units="px"
     inkscape:current-layer="layer1"
     showgrid="false"
     fit-margin-top="0"
     fit-margin-left="0"
     fit-margin-right="0"
     fit-margin-bottom="0"
     inkscape:window-width="1855"
     inkscape:window-height="1056"
     inkscape:window-x="2625"
     inkscape:window-y="24"
     inkscape:window-maximized="1" />
  <metadata
     id="metadata6580">
    <rdf:RDF>
      <cc:Work
         rdf:about="">
        <dc:format>image/svg+xml</dc:format>
        <dc:type
           rdf:resource="http://purl.org/dc/dcmitype/StillImage" />
        <dc:title></dc:title>
      </cc:Work>
    </rdf:RDF>
  </metadata>
  <g
     inkscape:label="Layer 1"
     inkscape:groupmode="layer"
     id="layer1"
     transform="translate(-358.22359,-68.42615)">
    <g
       transform="matrix(0.35241049,0,0,-0.35239807,-1287.0506,1011.7394)"
       id="g16">
      <g
         id="g18"
         clip-path="url(#clipPath20)">
        <path
           inkscape:connector-curvature="0"
           d="m 4832.34,2252.34 c -45.52,0 -88.64,6.17 -128.52,18.37 l 0,257.13 c 0,62.75 51.04,113.79 113.79,113.79 l 553.34,0 c 62.73,0 113.78,-51.04 113.78,-113.79 l 0,-64.46 c -118.56,-50.25 -277.79,-117.29 -452.07,-175.79 -69.68,-23.37 -137.09,-35.25 -200.32,-35.25 l 0,0 0,0 z m 538.61,424.5 -553.34,0 c -82.29,0 -148.98,-66.7 -148.98,-149 l 0,-553.33 c 0,-82.28 66.69,-148.98 148.98,-148.98 l 553.34,0 c 82.27,0 148.96,66.7 148.96,148.98 l 0,553.33 c 0,82.3 -66.69,149 -148.96,149 l 0,0"
           style="fill:url(#linearGradient24);fill-opacity:1;fill-rule:nonzero;stroke:none"
           id="path32" />
      </g>
    </g>
    <g
       id="g50"
       transform="matrix(0.37802185,0,0,-0.55218649,-1418.6328,1533.8682)">
      <g
         id="g52"
         clip-path="url(#clipPath54)">
        <path
           d="m 5370.95,2641.63 -553.34,0 c -62.75,0 -113.79,-51.04 -113.79,-113.79 l 0,-257.13 c 39.88,-12.2 83,-18.37 128.52,-18.37 l 0,0 c 63.23,0 130.64,11.88 200.32,35.25 174.28,58.5 333.51,125.54 452.07,175.79 l 0,64.46 c 0,62.75 -51.05,113.79 -113.78,113.79 l 0,0"
           style="fill:url(#linearGradient58);fill-opacity:1;fill-rule:nonzero;stroke:none"
           id="path66"
           inkscape:connector-curvature="0" />
      </g>
    </g>
    <path
       inkscape:connector-curvature="0"
       d="m 438.65073,157.18823 c 0,-16.62967 -13.48323,-30.09832 -30.09938,-30.09832 -16.6232,0 -30.10291,13.46865 -30.10291,30.09832 0,16.61556 13.47971,30.08774 30.10291,30.08774 16.61615,0 30.09938,-13.47218 30.09938,-30.08774 z m -37.08768,-23.34285 c 0.57795,-0.83519 1.53298,-1.33207 2.54793,-1.33207 l 8.88074,0 c 0.0113,0.003 0.0352,0.003 0.0493,0 1.70566,0 3.09769,1.38845 3.09769,3.10111 0,0.56031 -0.15506,1.09595 -0.41585,1.55055 l -4.26417,11.65733 c -0.44756,1.22986 -1.60699,2.03333 -2.90738,2.03333 -1.30744,0 -2.4704,-0.80347 -2.92148,-2.03333 l -4.43333,-12.14012 c -0.35241,-0.94795 -0.21145,-2.01924 0.36651,-2.8368 z m -13.4938,30.71501 c -0.95503,0.34888 -2.01579,0.20806 -2.84395,-0.37354 -0.83169,-0.57793 -1.32154,-1.52941 -1.32154,-2.53726 l 0,-8.88748 c 0,-0.0113 0,-0.0316 0,-0.0423 0,-1.70913 1.38497,-3.10815 3.09769,-3.10815 0.56738,0 1.09599,0.15505 1.55413,0.4264 l 11.64716,4.26049 c 1.23344,0.44402 2.04046,1.61046 2.04046,2.91081 0,1.30035 -0.80702,2.45974 -2.04046,2.90728 l -12.13349,4.44374 z m 24.97181,17.2957 c -0.0141,-0.006 -0.0389,-0.006 -0.0493,0 l -8.88074,0 c -1.01495,0 -1.96998,-0.49688 -2.54793,-1.33206 -0.57796,-0.82814 -0.71892,-1.88533 -0.36651,-2.84033 l 4.43333,-12.14012 c 0.45108,-1.22634 1.61404,-2.03686 2.92148,-2.03686 1.30039,0 2.45982,0.81052 2.90738,2.03686 l 4.26417,11.65381 c 0.26079,0.45812 0.41585,0.99024 0.41585,1.55055 0,1.71618 -1.39203,3.10815 -3.09769,3.10815 z m 16.0382,-17.2957 -12.14407,-4.44374 c -1.22638,-0.44754 -2.03693,-1.60693 -2.03693,-2.90728 0,-1.30035 0.81055,-2.46679 2.03693,-2.91081 l 11.65069,-4.26049 c 0.46166,-0.27149 0.9938,-0.4264 1.55766,-0.4264 1.71271,0 3.10474,1.39902 3.10474,3.10815 -0.008,0.0113 -0.008,0.0316 0,0.0423 l 0,8.88748 c 0,1.00785 -0.50395,1.95933 -1.32859,2.53726 -0.82817,0.58146 -1.89245,0.72242 -2.84043,0.37354"
       style="fill:#ffffff;fill-opacity:1;fill-rule:nonzero;stroke:none"
       id="path940" />
    <path
       inkscape:connector-curvature="0"
       d="m 585.70105,130.04653 c 1.34269,-1.09949 2.77347,-2.06506 4.26417,-2.95662 l -163.48675,0 c 1.48717,0.89156 2.92501,1.85713 4.26417,2.95662 l 154.95841,0"
       style="fill:#ffffff;fill-opacity:1;fill-rule:nonzero;stroke:none"
       id="path942" />
    <path
       inkscape:connector-curvature="0"
       d="m 585.70105,184.3264 -154.95841,0 c -1.33916,1.09596 -2.777,2.05801 -4.26417,2.94957 l 163.48675,0 c -1.4907,-0.89156 -2.92148,-1.85361 -4.26417,-2.94957"
       style="fill:#ffffff;fill-opacity:1;fill-rule:nonzero;stroke:none"
       id="path944" />
    <path
       inkscape:connector-curvature="0"
       d="m 607.89586,127.08991 c -16.61967,0 -30.09938,13.46865 -30.09938,30.09832 0,16.61556 13.47971,30.08774 30.09938,30.08774 16.62673,0 30.10291,-13.47218 30.10291,-30.08774 0,-16.62967 -13.47618,-30.09832 -30.10291,-30.09832 z m -6.97772,6.75547 c 0.57795,-0.83519 1.52593,-1.33207 2.53383,-1.33207 l 8.88779,0 c 0.0197,0.003 0.0352,0.003 0.046,0 1.71623,0 3.10826,1.38845 3.10826,3.10111 0,0.56031 -0.15506,1.09595 -0.4229,1.55055 l -4.26064,11.65733 c -0.44756,1.22986 -1.60699,2.03333 -2.91443,2.03333 -1.29335,0 -2.45983,-0.80347 -2.91092,-2.03333 l -4.43684,-12.14012 c -0.35946,-0.94795 -0.20778,-2.01924 0.37003,-2.8368 z m -13.49732,30.71501 c -0.94799,0.34888 -2.01579,0.20806 -2.84043,-0.37354 -0.82817,-0.57793 -1.33211,-1.52941 -1.33211,-2.53726 l 0,-8.88748 c 0.0141,-0.0113 0.0141,-0.0316 0,-0.0423 0,-1.70913 1.39202,-3.10815 3.10826,-3.10815 0.56385,0 1.09599,0.15505 1.55413,0.4264 l 11.65069,4.26049 c 1.21934,0.44402 2.04045,1.61046 2.04045,2.91081 0,1.30035 -0.82111,2.45974 -2.04045,2.90728 l -12.14054,4.44374 z m 24.96475,17.2957 c -0.0113,-0.006 -0.0254,-0.006 -0.046,0 l -8.88779,0 c -1.0079,0 -1.95588,-0.49688 -2.53383,-1.33206 -0.57796,-0.82814 -0.72949,-1.88533 -0.37004,-2.84033 l 4.43685,-12.14012 c 0.45109,-1.22634 1.61757,-2.03686 2.91091,-2.03686 1.30745,0 2.46688,0.81052 2.91444,2.03686 l 4.26064,11.65381 c 0.26783,0.45812 0.42289,0.99024 0.42289,1.55055 0,1.71618 -1.39202,3.10815 -3.10826,3.10815 z m 20.20722,-20.2065 c 0,1.00785 -0.49337,1.95933 -1.32154,2.53726 -0.83169,0.58146 -1.89244,0.72242 -2.84395,0.37354 l -12.14054,-4.44374 c -1.22287,-0.44754 -2.04046,-1.60693 -2.04046,-2.90728 0,-1.30035 0.81759,-2.46679 2.04046,-2.91081 l 11.65421,-4.26049 c 0.45461,-0.27149 0.98675,-0.4264 1.55413,-0.4264 1.71272,0 3.09769,1.39902 3.09769,3.10815 0,0.0113 0,0.0316 0,0.0423 l 0,8.88748"
       style="fill:#ffffff;fill-opacity:1;fill-rule:nonzero;stroke:none"
       id="path946" />
    <path
       inkscape:connector-curvature="0"
       d="m 531.28182,190.06697 c -3.32323,9.22578 -8.9195,20.1924 -18.30067,29.12217 l -1.99465,1.90648 -1.99816,-1.90648 c -9.38469,-8.92977 -14.97745,-19.89639 -18.29716,-29.12217 l -36.93614,0 -27.45982,38.49244 25.60614,24.27318 13.33522,-14.39899 c 2.1356,24.53043 -4.79984,86.51373 -4.79984,86.51373 16.2708,8.26021 50.54976,8.32716 50.54976,8.32716 0,0 34.27897,-0.0671 50.54976,-8.32716 0,0 -6.93543,-61.9833 -4.79983,-86.51373 l 13.33522,14.39899 25.60262,-24.27318 -27.45983,-38.49244 -36.93262,0"
       style="fill:#ffffff;fill-opacity:1;fill-rule:nonzero;stroke:none"
       id="path948" />
    <path
       inkscape:connector-curvature="0"
       d="m 528.27224,189.85905 -34.57499,0 c 3.2316,8.70776 8.553,18.92025 17.28925,27.23332 8.73274,-8.31307 14.06471,-18.52556 17.28574,-27.23332"
       style="fill:#ffffff;fill-opacity:1;fill-rule:nonzero;stroke:none"
       id="path950" />
  </g>
</svg>
