<?xml version="1.0" encoding="UTF-8" standalone="no"?>
<svg
   xmlns:dc="http://purl.org/dc/elements/1.1/"
   xmlns:cc="http://creativecommons.org/ns#"
   xmlns:rdf="http://www.w3.org/1999/02/22-rdf-syntax-ns#"
   xmlns:svg="http://www.w3.org/2000/svg"
   xmlns="http://www.w3.org/2000/svg"
   xmlns:sodipodi="http://sodipodi.sourceforge.net/DTD/sodipodi-0.dtd"
   xmlns:inkscape="http://www.inkscape.org/namespaces/inkscape"
   version="1.0"
   id="Layer_1"
   x="0px"
   y="0px"
   width="340.10001"
   height="122.7"
   viewBox="0 0 340.10001 122.7"
   enable-background="new 0 0 400 220"
   xml:space="preserve"
   inkscape:version="0.48.4 r9939"
   sodipodi:docname="logo_ldf.svg"><metadata
     id="metadata57"><rdf:RDF><cc:Work
         rdf:about=""><dc:format>image/svg+xml</dc:format><dc:type
           rdf:resource="http://purl.org/dc/dcmitype/StillImage" /></cc:Work></rdf:RDF></metadata><defs
     id="defs55" /><sodipodi:namedview
     pagecolor="#ffffff"
     bordercolor="#666666"
     borderopacity="1"
     objecttolerance="10"
     gridtolerance="10"
     guidetolerance="10"
     inkscape:pageopacity="0"
     inkscape:pageshadow="2"
     inkscape:window-width="1855"
     inkscape:window-height="1056"
     id="namedview53"
     showgrid="false"
     fit-margin-top="0"
     fit-margin-left="0"
     fit-margin-right="0"
     fit-margin-bottom="0"
     inkscape:zoom="0.73"
     inkscape:cx="169.7"
     inkscape:cy="41.9"
     inkscape:window-x="2625"
     inkscape:window-y="24"
     inkscape:window-maximized="1"
     inkscape:current-layer="Layer_1" /><g
     id="g3"
     transform="translate(-30.3,-29.2)"><path
       d="M 188.8,29.3 V 129 h 65.4 v 22.9 H 164.3 V 29.3 h 24.5 z"
       id="path5"
       inkscape:connector-curvature="0"
       style="fill:#1d1d1b" /><path
       d="M 266,151.8 V 29.2 h 47.2 c 38.1,0 57.2,20.5 57.2,61.3 0,40.8 -19.1,61.3 -57.2,61.3 H 266 z m 47.2,-24.4 c 21.7,-0.1 32.6,-12.3 32.7,-36.8 C 345.8,66.1 335,53.8 313.2,53.8 h -22.7 v 73.6 h 22.7 z"
       id="path7"
       inkscape:connector-curvature="0"
       style="fill:#1d1d1b" /></g><g
     id="g49"
     transform="translate(-30.3,-29.2)"><path
       d="M 46.9,122.8 H 30.3 l 2.3,-18.7 H 51 L 57.2,75.6 H 39.5 l 2.2,-18 h 19.4 l 6.1,-28.1 h 23.3 l -6.1,28.1 h 24.5 l 6,-28.1 H 138 l -6.1,28.1 h 18.2 l -2.2,18 H 128 l -6.2,28.5 h 18.6 l -2.3,18.7 h -20.4 l -6.3,29.1 H 88.8 L 95,122.8 H 70 l -6.3,29.1 h -23 l 6.2,-29.1 z m 52,-18.7 6.1,-28.5 H 80.4 l -6.3,28.5 h 24.8 z"
       id="path51"
       inkscape:connector-curvature="0"
       style="fill:#be1622" /></g></svg>