<?xml version="1.0" encoding="utf-8"?>
<!-- Generator: Adobe Illustrator 16.0.0, SVG Export Plug-In . SVG Version: 6.00 Build 0)  -->
<!DOCTYPE svg PUBLIC "-//W3C//DTD SVG 1.1//EN" "http://www.w3.org/Graphics/SVG/1.1/DTD/svg11.dtd">
<svg version="1.1" id="Layer_1" xmlns="http://www.w3.org/2000/svg" xmlns:xlink="http://www.w3.org/1999/xlink" x="0px" y="0px"
	 width="606.261px" height="602px" viewBox="20.75 -62.5 606.261 602" enable-background="new 20.75 -62.5 606.261 602"
	 xml:space="preserve">
<ellipse fill="#282F75" cx="323.5" cy="238.5" rx="302.75" ry="301"/>
<title>Teal Lotus</title>
<g>
	<title>Layer 1</title>
	<g id="layer1">
		<path id="path2387" fill="#017080" stroke="#FFFFFF" stroke-width="6" d="M289.991,388.828
			C168.365,327.652,103.894,224.569,101.18,146.042c56.144,1.047,191.041,121.44,197.107,240.153"/>
		<path id="path2389" fill="#017080" stroke="#FFFFFF" stroke-width="6" d="M326.231,392.9
			c-61.971-5.778-69.649-247.961,0.776-307.542C403.51,141.146,403.82,388.995,326.231,392.9z"/>
		<path id="path2385" fill="#017080" stroke="#FFFFFF" stroke-width="6" d="M268.037,375.355
			c-68.147-71.685-80.844-150.887-59.631-241.045c41.452,21.539,122.78,108.363,117.241,258.598"/>
		<path id="path2383" fill="#017080" stroke="#FFFFFF" stroke-width="6" d="M325.48,392.016
			C242.829,293.462,139.97,216.838,30.377,213.48c68.694,109.45,73.391,167.583,296.03,178.894"/>
		<path id="path3267" fill="#017080" stroke="#FFFFFF" stroke-width="6" d="M361.865,388.667
			c121.626-61.176,186.097-164.26,188.811-242.787c-56.144,1.047-191.041,121.44-197.106,240.154"/>
		<path id="path3269" fill="#017080" stroke="#FFFFFF" stroke-width="6" d="M383.818,375.195
			c68.146-71.685,80.845-150.887,59.632-241.046c-41.452,21.538-122.78,108.362-117.24,258.597"/>
		<path id="path3271" fill="#017080" stroke="#FFFFFF" stroke-width="6" d="M326.375,391.854
			c82.651-98.553,185.511-175.177,295.104-178.535C552.785,322.77,548.088,380.9,325.448,392.213"/>
	</g>
</g>
</svg>
