<?xml version="1.0" encoding="UTF-8" standalone="no"?>
<!-- Created with Inkscape (http://www.inkscape.org/) -->

<svg
   xmlns:dc="http://purl.org/dc/elements/1.1/"
   xmlns:cc="http://creativecommons.org/ns#"
   xmlns:rdf="http://www.w3.org/1999/02/22-rdf-syntax-ns#"
   xmlns:svg="http://www.w3.org/2000/svg"
   xmlns="http://www.w3.org/2000/svg"
   xmlns:sodipodi="http://sodipodi.sourceforge.net/DTD/sodipodi-0.dtd"
   xmlns:inkscape="http://www.inkscape.org/namespaces/inkscape"
   width="300"
   height="300"
   id="svg7147"
   version="1.1"
   inkscape:version="0.48.4 r9939"
   sodipodi:docname="New document 73">
  <defs
     id="defs7149">
    <clipPath
       clipPathUnits="userSpaceOnUse"
       id="clipPath678">
      <path
         inkscape:connector-curvature="0"
         d="m 5370.94,1204.96 -553.34,0 c -62.74,0 -113.79,-51.05 -113.79,-113.79 l 0,-257.147 c 39.9,-12.187 83.01,-18.359 128.51,-18.359 l 0.02,0 c 63.23,0 130.65,11.875 200.32,35.254 174.27,58.496 333.51,125.516 452.07,175.782 l 0,64.47 c 0,62.74 -51.05,113.79 -113.79,113.79 l 0,0"
         id="path680" />
    </clipPath>
    <linearGradient
       x1="0"
       y1="0"
       x2="1"
       y2="0"
       gradientUnits="userSpaceOnUse"
       gradientTransform="matrix(-4e-6,-84.4216,415.778,-2e-5,301.537,122.088)"
       spreadMethod="pad"
       id="linearGradient682">
      <stop
         style="stop-color:#78bc24;stop-opacity:1;"
         offset="0"
         id="stop684" />
      <stop
         style="stop-opacity:1;stop-color:#8ad142"
         offset="0.0545455"
         id="stop686" />
      <stop
         style="stop-opacity:1;stop-color:#60912d"
         offset="1"
         id="stop688" />
    </linearGradient>
    <clipPath
       clipPathUnits="userSpaceOnUse"
       id="clipPath644">
      <path
         inkscape:connector-curvature="0"
         d="m 4832.32,815.664 c -45.5,0 -88.61,6.172 -128.51,18.359 l 0,257.147 c 0,62.74 51.05,113.79 113.79,113.79 l 553.34,0 c 62.74,0 113.79,-51.05 113.79,-113.79 l 0,-64.47 c -118.56,-50.266 -277.8,-117.286 -452.07,-175.782 -69.67,-23.379 -137.09,-35.254 -200.32,-35.254 l -0.02,0 0,0 z m 538.62,424.496 -553.34,0 c -82.27,0 -148.97,-66.7 -148.97,-148.99 l 0,-553.338 c 0,-82.285 66.7,-148.984 148.97,-148.984 l 553.34,0 c 82.28,0 148.98,66.699 148.98,148.984 l 0,553.338 c 0,82.29 -66.7,148.99 -148.98,148.99 l 0,0"
         id="path646" />
    </clipPath>
    <linearGradient
       x1="0"
       y1="0"
       x2="1"
       y2="0"
       gradientUnits="userSpaceOnUse"
       gradientTransform="matrix(-4e-6,-84.4216,422.816,-2e-5,298.019,122.088)"
       spreadMethod="pad"
       id="linearGradient648">
      <stop
         style="stop-opacity:1;stop-color:#78bc24"
         offset="0"
         id="stop650" />
      <stop
         style="stop-opacity:1;stop-color:#69c52f"
         offset="0.0545455"
         id="stop652" />
      <stop
         style="stop-opacity:1;stop-color:#3e751a"
         offset="1"
         id="stop654" />
    </linearGradient>
  </defs>
  <sodipodi:namedview
     id="base"
     pagecolor="#ffffff"
     bordercolor="#666666"
     borderopacity="1.0"
     inkscape:pageopacity="0.0"
     inkscape:pageshadow="2"
     inkscape:zoom="0.35"
     inkscape:cx="168.20564"
     inkscape:cy="-138.22157"
     inkscape:document-units="px"
     inkscape:current-layer="layer1"
     showgrid="false"
     fit-margin-top="0"
     fit-margin-left="0"
     fit-margin-right="0"
     fit-margin-bottom="0"
     inkscape:window-width="1855"
     inkscape:window-height="1056"
     inkscape:window-x="2625"
     inkscape:window-y="24"
     inkscape:window-maximized="1" />
  <metadata
     id="metadata7152">
    <rdf:RDF>
      <cc:Work
         rdf:about="">
        <dc:format>image/svg+xml</dc:format>
        <dc:type
           rdf:resource="http://purl.org/dc/dcmitype/StillImage" />
        <dc:title></dc:title>
      </cc:Work>
    </rdf:RDF>
  </metadata>
  <g
     inkscape:label="Layer 1"
     inkscape:groupmode="layer"
     id="layer1"
     transform="translate(-206.79436,-94.140609)">
    <g
       transform="matrix(0.35240635,0,0,-0.35239724,-1438.4605,531.16957)"
       id="g640">
      <g
         id="g642"
         clip-path="url(#clipPath644)">
        <path
           inkscape:connector-curvature="0"
           d="m 4832.32,815.664 c -45.5,0 -88.61,6.172 -128.51,18.359 l 0,257.147 c 0,62.74 51.05,113.79 113.79,113.79 l 553.34,0 c 62.74,0 113.79,-51.05 113.79,-113.79 l 0,-64.47 c -118.56,-50.266 -277.8,-117.286 -452.07,-175.782 -69.67,-23.379 -137.09,-35.254 -200.32,-35.254 l -0.02,0 0,0 z m 538.62,424.496 -553.34,0 c -82.27,0 -148.97,-66.7 -148.97,-148.99 l 0,-553.338 c 0,-82.285 66.7,-148.984 148.97,-148.984 l 553.34,0 c 82.28,0 148.98,66.699 148.98,148.984 l 0,553.338 c 0,82.29 -66.7,148.99 -148.98,148.99 l 0,0"
           style="fill:url(#linearGradient648);fill-opacity:1;fill-rule:nonzero;stroke:none"
           id="path656" />
      </g>
    </g>
    <g
       id="g674"
       transform="matrix(0.36663454,0,0,-0.39235424,-1508.6375,573.67779)">
      <g
         id="g676"
         clip-path="url(#clipPath678)">
        <path
           d="m 5370.94,1204.96 -553.34,0 c -62.74,0 -113.79,-51.05 -113.79,-113.79 l 0,-257.147 c 39.9,-12.187 83.01,-18.359 128.51,-18.359 l 0.02,0 c 63.23,0 130.65,11.875 200.32,35.254 174.27,58.496 333.51,125.516 452.07,175.782 l 0,64.47 c 0,62.74 -51.05,113.79 -113.79,113.79 l 0,0"
           style="fill:url(#linearGradient682);fill-opacity:1;fill-rule:nonzero;stroke:none"
           id="path690"
           inkscape:connector-curvature="0" />
      </g>
    </g>
    <path
       inkscape:connector-curvature="0"
       d="m 347.99656,258.14699 c -0.85635,0.41019 -1.8149,0.65123 -2.80868,0.65123 -0.43699,0 -0.85283,-0.055 -1.27219,-0.13786 l -3.13642,25.06709 0,17.94336 c 2.0052,0 3.63331,2.37446 3.63331,5.31063 0,2.92385 -1.62811,5.29972 -3.63331,5.29972 l 0,7.72525 c 3.42539,0 6.19883,4.04727 6.19883,9.04392 0,5.00404 -2.77344,9.05097 -6.19883,9.05097 l 0,12.20986 11.93953,9.32336 5.96272,0 4.08439,-87.30783 c -0.3947,-0.22017 -0.75063,-0.51342 -1.04313,-0.88099 l -13.72622,-13.29877"
       style="fill:#ffffff;fill-opacity:1;fill-rule:nonzero;stroke:none"
       id="path980" />
    <path
       inkscape:connector-curvature="0"
       d="m 345.80459,243.66031 c 3.55578,0.34676 6.34331,3.58599 6.34331,7.542 0,0.30693 -0.0254,0.60294 -0.0564,0.89895 l 11.12194,10.76047 5.53983,-118.49042 -8.57757,0 -14.37113,99.289"
       style="fill:#ffffff;fill-opacity:1;fill-rule:nonzero;stroke:none"
       id="path982" />
    <path
       inkscape:connector-curvature="0"
       d="m 333.89325,258.79822 c -0.6308,0 -1.25456,-0.10741 -1.84661,-0.27797 l -13.3421,12.92556 c -0.58499,0.73265 -1.44487,1.20732 -2.37522,1.32713 l 4.05972,86.86169 5.97329,0 11.936,-9.32336 0,-12.20986 c -3.42186,0 -6.1953,-4.04693 -6.1953,-9.05097 0,-4.99665 2.77344,-9.04392 6.1953,-9.04392 l 0,-7.72525 c -2.00871,0 -3.63331,-2.37586 -3.63331,-5.29972 0,-2.93617 1.6246,-5.31062 3.63331,-5.31062 l 0,-17.94337 -3.13289,-25.06706 c -0.41584,0.0829 -0.8352,0.13786 -1.27219,0.13786"
       style="fill:#ffffff;fill-opacity:1;fill-rule:nonzero;stroke:none"
       id="path984" />
    <path
       inkscape:connector-curvature="0"
       d="m 327.19048,253.2092 c -0.1621,-0.63572 -0.25034,-1.3035 -0.25034,-2.00689 0,-3.95601 2.78048,-7.19524 6.32921,-7.542 l -14.37113,-99.289 -8.57757,0 5.60326,119.75129 11.26643,-10.9134"
       style="fill:#ffffff;fill-opacity:1;fill-rule:nonzero;stroke:none"
       id="path986" />
    <path
       inkscape:connector-curvature="0"
       d="m 344.87776,247.27661 c -1.11008,-1.43885 -2.84392,-2.372 -4.80682,-2.372 -2.29064,0 -4.28526,1.27074 -5.31429,3.1469 l -20.54882,19.90763 c -0.68014,0.91553 -0.47927,2.22047 0.44404,2.89496 0.91625,0.67026 2.21311,0.4708 2.8862,-0.45426 l 17.16572,-16.6261 c 1.02198,1.93396 3.03774,3.24454 5.36715,3.24454 2.40341,0 4.47556,-1.40009 5.45525,-3.43306 l 17.36658,16.81462 c 0.67662,0.92506 1.96643,1.12452 2.88621,0.45426 0.91978,-0.67449 1.12065,-1.97943 0.45108,-2.89496 l -21.3523,-20.68253 z m -4.66586,7.53636 c -2.09329,0 -3.79189,-1.69291 -3.79189,-3.79216 0,-2.09535 1.6986,-3.7925 3.79189,-3.7925 2.10034,0 3.80246,1.69715 3.80246,3.7925 0,2.09925 -1.70212,3.79216 -3.80246,3.79216"
       style="fill:#ffffff;fill-opacity:1;fill-rule:nonzero;stroke:none"
       id="path988" />
    <path
       inkscape:connector-curvature="0"
       d="m 462.08811,264.90033 c -0.42994,-0.13081 -0.85282,-0.33018 -1.2158,-0.61669 l -16.43623,-9.76916 c -0.74006,0.60156 -1.6105,1.04873 -2.58667,1.27604 -0.41936,0.10037 -0.83872,0.15393 -1.26161,0.16493 l 2.74524,25.11535 4.1443,17.4588 c 1.94881,-0.46127 4.08439,1.46879 4.76454,4.31828 0.67309,2.85337 -0.36298,5.54039 -2.31531,6.00874 l 1.78317,7.50888 c 3.33024,-0.79149 6.96708,2.50554 8.12649,7.37144 1.14885,4.86201 -0.62023,9.4474 -3.94342,10.23466 l 2.81925,11.87968 13.77204,6.31143 5.80061,-1.37223 -16.1966,-85.89015"
       style="fill:#ffffff;fill-opacity:1;fill-rule:nonzero;stroke:none"
       id="path990" />
    <path
       inkscape:connector-curvature="0"
       d="m 446.8712,246.81108 c 0.0671,0.29037 0.11616,0.5797 0.15168,0.86726 l 13.32096,7.92364 -21.99368,-116.58006 -8.34851,1.984 8.9617,99.91485 c 3.53463,-0.48174 6.98821,2.03333 7.908,5.89031"
       style="fill:#ffffff;fill-opacity:1;fill-rule:nonzero;stroke:none"
       id="path992" />
    <path
       inkscape:connector-curvature="0"
       d="m 445.35938,327.17422 c -1.15942,-4.85499 0.60262,-9.44602 3.93286,-10.24032 l -1.77613,-7.50888 c -1.95938,0.46657 -4.09144,-1.4702 -4.76454,-4.32637 -0.68719,-2.84948 0.35593,-5.53405 2.30474,-6.00203 l -4.13725,-17.45037 -8.84892,-23.66311 c -0.38412,0.17479 -0.78234,0.3235 -1.20876,0.42006 -0.61318,0.14716 -1.24399,0.18437 -1.85013,0.15392 l -9.99424,15.66265 c -0.40527,0.84928 -1.13123,1.51001 -2.00872,1.84445 l 24.02002,83.5703 5.80413,-1.38069 9.46563,-11.83421 -2.81572,-11.87401 c -3.33024,0.79149 -6.9706,-2.51507 -8.12297,-7.37144"
       style="fill:#ffffff;fill-opacity:1;fill-rule:nonzero;stroke:none"
       id="path994" />
    <path
       inkscape:connector-curvature="0"
       d="m 423.05558,254.51978 c -0.29954,-0.58498 -0.54975,-1.20979 -0.70833,-1.89274 -0.91626,-3.85029 1.04312,-7.64524 4.41212,-8.8057 l -36.91456,-93.27955 -8.35203,1.98399 33.12267,115.2089 8.44013,-13.2149"
       style="fill:#ffffff;fill-opacity:1;fill-rule:nonzero;stroke:none"
       id="path996" />
    <path
       inkscape:connector-curvature="0"
       d="m 417.6391,273.46959 12.85578,-20.13916 c 1.43782,1.64076 3.70732,2.46009 5.96977,1.92304 2.34702,-0.55749 4.03857,-2.40617 4.52137,-4.60865 l 20.77435,12.35186 c 0.87397,0.73651 2.17435,0.63327 2.92145,-0.23399 0.73301,-0.86724 0.63081,-2.175 -0.23259,-2.91433 L 438.88568,244.6583 c -1.40963,-1.1467 -3.31615,-1.65204 -5.21562,-1.19782 -2.23073,0.52333 -3.88704,2.23279 -4.44384,4.29502 l -15.40016,24.11032 c -0.44755,1.04873 0.046,2.2645 1.10303,2.71875 1.04665,0.4405 2.2554,-0.062 2.71001,-1.11498 z m 16.70758,-27.77632 c 2.04044,-0.49829 4.08087,0.77105 4.56719,2.8125 0.48984,2.04001 -0.77177,4.08428 -2.81573,4.566 -2.04043,0.48597 -4.08791,-0.7735 -4.57071,-2.81495 -0.48279,-2.04425 0.77882,-4.09134 2.81925,-4.56355"
       style="fill:#ffffff;fill-opacity:1;fill-rule:nonzero;stroke:none"
       id="path998" />
    <path
       inkscape:connector-curvature="0"
       d="m 260.34957,305.53915 c 0.18664,-2.92949 1.96995,-5.19682 3.9681,-5.06184 l 1.15589,-17.906 -1.51535,-25.21862 c -0.41584,0.0553 -0.8352,0.0829 -1.27218,0.0553 -0.99731,-0.0691 -1.92414,-0.36226 -2.76287,-0.83306 l -14.55438,12.38642 c -0.31717,0.34676 -0.69072,0.62197 -1.10656,0.81192 l -1.55059,87.39311 5.95567,0.3827 12.51748,-8.53858 0.78586,-12.18237 c -3.42186,-0.20947 -5.92395,-4.4395 -5.60678,-9.42945 0.32421,-4.98605 3.35843,-8.85115 6.77325,-8.63091 l 0.50041,-7.702 c -2.00871,-0.13363 -3.4712,-2.60421 -3.28795,-5.52663"
       style="fill:#ffffff;fill-opacity:1;fill-rule:nonzero;stroke:none"
       id="path1000" />
    <path
       inkscape:connector-curvature="0"
       d="m 256.23347,249.38676 c 0.25373,-3.95497 3.24566,-7.01096 6.80496,-7.12513 l -7.93619,-100.0047 -8.55995,-0.55679 -2.11091,118.61235 11.79151,-10.03523 c -0.006,-0.29602 -0.006,-0.5878 0.0113,-0.8905"
       style="fill:#ffffff;fill-opacity:1;fill-rule:nonzero;stroke:none"
       id="path1002" />
    <path
       inkscape:connector-curvature="0"
       d="m 275.80964,257.96938 c -0.59909,0.13786 -1.2158,0.20242 -1.85718,0.16098 -0.42994,-0.0282 -0.84578,-0.10318 -1.25457,-0.2089 l -4.74339,24.80806 -1.15942,17.90601 c 2.0052,0.12686 3.47473,2.60458 3.28091,5.53404 -0.18664,2.91825 -1.96291,5.1852 -3.97162,5.0573 l -0.48985,7.7034 c 3.41482,0.22272 5.92043,4.44618 5.59622,9.4319 -0.31717,4.98326 -3.35139,8.84869 -6.76621,8.62423 l -0.78939,12.1866 11.31225,10.0789 5.95567,0.38271 9.6665,-86.4212 c -0.92683,-0.17761 -1.75146,-0.70479 -2.29064,-1.48252 l -12.48928,-13.76148"
       style="fill:#ffffff;fill-opacity:1;fill-rule:nonzero;stroke:none"
       id="path1004" />
    <path
       inkscape:connector-curvature="0"
       d="m 275.55591,243.06405 c 3.51349,0.5825 6.08605,3.99619 5.8288,7.94972 -0.0423,0.68824 -0.18325,1.35602 -0.37708,1.97943 l 10.53695,11.61394 13.31039,-119.13635 -8.567,-0.55326 -20.73206,98.14652"
       style="fill:#ffffff;fill-opacity:1;fill-rule:nonzero;stroke:none"
       id="path1006" />
    <path
       inkscape:connector-curvature="0"
       d="m 273.78683,247.34954 c -0.90921,-1.93148 -2.81925,-3.32875 -5.09932,-3.47605 -1.95938,-0.13504 -3.74608,0.68825 -4.94426,2.06505 l -22.64564,19.25112 c -0.733,0.87677 -0.62023,2.17745 0.25374,2.90728 0.87749,0.73896 2.18139,0.6262 2.91087,-0.24386 l 18.42028,-15.67217 c 0.83873,2.09112 2.81573,3.63005 5.22266,3.78581 2.32589,0.14435 4.42623,-1.03393 5.56098,-2.89495 l 16.0662,17.6995 c 0.60967,0.95959 1.8889,1.24856 2.85097,0.62938 0.96559,-0.6128 1.24399,-1.89308 0.62376,-2.84948 l -19.22024,-21.20163 z m -5.88167,6.40765 c -2.09681,-0.13729 -3.68264,-1.93818 -3.54168,-4.03038 0.13025,-2.09253 1.93119,-3.685 4.03153,-3.54475 2.08977,0.13786 3.6756,1.93678 3.54168,4.03072 -0.13758,2.09499 -1.94176,3.685 -4.03153,3.54441"
       style="fill:#ffffff;fill-opacity:1;fill-rule:nonzero;stroke:none"
       id="path1008" />
  </g>
</svg>
