<?xml version="1.0" encoding="UTF-8" standalone="no"?>
<!-- Created with Inkscape (http://www.inkscape.org/) -->

<svg
   xmlns:dc="http://purl.org/dc/elements/1.1/"
   xmlns:cc="http://creativecommons.org/ns#"
   xmlns:rdf="http://www.w3.org/1999/02/22-rdf-syntax-ns#"
   xmlns:svg="http://www.w3.org/2000/svg"
   xmlns="http://www.w3.org/2000/svg"
   xmlns:sodipodi="http://sodipodi.sourceforge.net/DTD/sodipodi-0.dtd"
   xmlns:inkscape="http://www.inkscape.org/namespaces/inkscape"
   width="300"
   height="300"
   id="svg5605"
   version="1.1"
   inkscape:version="0.48.4 r9939"
   sodipodi:docname="New document 28">
  <defs
     id="defs5607">
    <clipPath
       clipPathUnits="userSpaceOnUse"
       id="clipPath366">
      <path
         inkscape:connector-curvature="0"
         d="m 2541.7,4078.32 -553.34,0 c -62.75,0 -113.79,-51.05 -113.79,-113.78 l 0,-257.15 c 39.89,-12.19 83.01,-18.36 128.52,-18.36 l 0.01,0 c 63.23,0 130.64,11.87 200.31,35.25 174.29,58.5 333.52,125.53 452.07,175.78 l 0,64.48 c 0,62.73 -51.04,113.78 -113.78,113.78 l 0,0"
         id="path368" />
    </clipPath>
    <linearGradient
       x1="0"
       y1="0"
       x2="1"
       y2="0"
       gradientUnits="userSpaceOnUse"
       gradientTransform="matrix(-4.2260992e-6,-84.4207,439.2766,-2e-5,-130.43307,408.9)"
       spreadMethod="pad"
       id="linearGradient370">
      <stop
         style="stop-color:#78bc24;stop-opacity:1;"
         offset="0"
         id="stop372" />
      <stop
         style="stop-opacity:1;stop-color:#8ad142"
         offset="0.0545455"
         id="stop374" />
      <stop
         style="stop-opacity:1;stop-color:#60912d"
         offset="1"
         id="stop376" />
    </linearGradient>
    <clipPath
       clipPathUnits="userSpaceOnUse"
       id="clipPath332">
      <path
         inkscape:connector-curvature="0"
         d="m 2003.09,3689.03 c -45.51,0 -88.63,6.17 -128.52,18.36 l 0,257.15 c 0,62.73 51.04,113.78 113.79,113.78 l 553.34,0 c 62.74,0 113.78,-51.05 113.78,-113.78 l 0,-64.48 c -118.55,-50.25 -277.78,-117.28 -452.07,-175.78 -69.67,-23.38 -137.08,-35.25 -200.31,-35.25 l -0.01,0 0,0 z m 538.61,424.49 -553.34,0 c -82.27,0 -148.98,-66.7 -148.98,-148.98 l 0,-553.34 c 0,-82.28 66.71,-148.99 148.98,-148.99 l 553.34,0 c 82.28,0 148.98,66.71 148.98,148.99 l 0,553.34 c 0,82.28 -66.7,148.98 -148.98,148.98 l 0,0"
         id="path334" />
    </clipPath>
    <linearGradient
       x1="0"
       y1="0"
       x2="1"
       y2="0"
       gradientUnits="userSpaceOnUse"
       gradientTransform="matrix(-4e-6,-84.4207,422.813,-2e-5,15.0967,408.9)"
       spreadMethod="pad"
       id="linearGradient336">
      <stop
         style="stop-opacity:1;stop-color:#78bc24"
         offset="0"
         id="stop338" />
      <stop
         style="stop-opacity:1;stop-color:#69c52f"
         offset="0.0545455"
         id="stop340" />
      <stop
         style="stop-opacity:1;stop-color:#3e751a"
         offset="1"
         id="stop342" />
    </linearGradient>
  </defs>
  <sodipodi:namedview
     id="base"
     pagecolor="#ffffff"
     bordercolor="#666666"
     borderopacity="1.0"
     inkscape:pageopacity="0.0"
     inkscape:pageshadow="2"
     inkscape:zoom="0.35"
     inkscape:cx="139.63482"
     inkscape:cy="-63.935991"
     inkscape:document-units="px"
     inkscape:current-layer="layer1"
     showgrid="false"
     fit-margin-top="0"
     fit-margin-left="0"
     fit-margin-right="0"
     fit-margin-bottom="0"
     inkscape:window-width="1855"
     inkscape:window-height="1056"
     inkscape:window-x="2625"
     inkscape:window-y="24"
     inkscape:window-maximized="1" />
  <metadata
     id="metadata5610">
    <rdf:RDF>
      <cc:Work
         rdf:about="">
        <dc:format>image/svg+xml</dc:format>
        <dc:type
           rdf:resource="http://purl.org/dc/dcmitype/StillImage" />
        <dc:title></dc:title>
      </cc:Work>
    </rdf:RDF>
  </metadata>
  <g
     inkscape:label="Layer 1"
     inkscape:groupmode="layer"
     id="layer1"
     transform="translate(-235.36518,-168.42619)">
    <g
       transform="matrix(0.35240221,0,0,-0.35239807,-412.8364,1618.0227)"
       id="g328">
      <g
         id="g330"
         clip-path="url(#clipPath332)">
        <path
           inkscape:connector-curvature="0"
           d="m 2003.09,3689.03 c -45.51,0 -88.63,6.17 -128.52,18.36 l 0,257.15 c 0,62.73 51.04,113.78 113.79,113.78 l 553.34,0 c 62.74,0 113.78,-51.05 113.78,-113.78 l 0,-64.48 c -118.55,-50.25 -277.78,-117.28 -452.07,-175.78 -69.67,-23.38 -137.08,-35.25 -200.31,-35.25 l -0.01,0 0,0 z m 538.61,424.49 -553.34,0 c -82.27,0 -148.98,-66.7 -148.98,-148.98 l 0,-553.34 c 0,-82.28 66.71,-148.99 148.98,-148.99 l 553.34,0 c 82.28,0 148.98,66.71 148.98,148.99 l 0,553.34 c 0,82.28 -66.7,148.98 -148.98,148.98 l 0,0"
           style="fill:url(#linearGradient336);fill-opacity:1;fill-rule:nonzero;stroke:none"
           id="path344" />
      </g>
    </g>
    <g
       id="g362"
       transform="matrix(0.3723217,0,0,-0.39235575,-459.06559,1774.3165)">
      <g
         id="g364"
         clip-path="url(#clipPath366)">
        <path
           d="m 2535.2686,4078.32 -584.6174,0 c -66.297,0 -120.222,-51.05 -120.222,-113.78 l 0,-257.15 c 42.1448,-12.19 87.7021,-18.36 135.7846,-18.36 l 0.011,0 c 66.8041,0 138.0244,11.87 211.6325,35.25 184.1417,58.5 352.3722,125.53 477.6232,175.78 l 0,64.48 c 0,62.73 -53.925,113.78 -120.2114,113.78 l 0,0"
           style="fill:url(#linearGradient370);fill-opacity:1;fill-rule:nonzero;stroke:none"
           id="path378"
           inkscape:connector-curvature="0" />
      </g>
    </g>
    <path
       d="m 470.26945,327.15686 36.72735,-34.80988 -40.93504,-57.3845 c 0,0 -7.65417,-9.17997 -25.25314,-12.23879 -8.88758,-1.54702 -15.81581,-4.22877 -20.49571,-6.50879 -2.34348,12.78853 -9.84964,41.67812 -31.92764,62.69162 l -2.86503,2.72756 -2.86503,-2.72756 c -22.07447,-21.0135 -29.57712,-49.90309 -31.91707,-62.69162 -4.68695,2.28002 -11.6046,4.96177 -20.50276,6.50879 -17.59544,3.05882 -25.24609,12.23879 -25.24609,12.23879 l -40.93152,57.3845 36.72736,34.80988 19.12487,-20.65757 c 3.05885,35.19399 -6.88594,124.07936 -6.88594,124.07936 23.33607,11.86172 72.49618,11.95686 72.49618,11.95686 0,0 49.17068,-0.095 72.50675,-11.95686 0,0 -9.95183,-88.88537 -6.88594,-124.07936 l 19.1284,20.65757"
       style="fill:#ffffff;fill-opacity:1;fill-rule:nonzero;stroke:none"
       id="path936"
       inkscape:connector-curvature="0" />
    <path
       inkscape:connector-curvature="0"
       d="m 416.45058,214.16395 c -2.07917,-1.20873 -3.18571,-2.03334 -3.18571,-2.03334 0,0 -17.60954,-2.41393 -27.74463,-2.41393 -10.12452,0 -27.7411,2.41393 -27.7411,2.41393 0,0 -1.0995,0.82461 -3.18219,2.03334 1.88535,11.09349 8.79948,40.66321 30.92329,61.73309 22.13438,-21.06988 29.04147,-50.6396 30.93034,-61.73309"
       style="fill:#ffffff;fill-opacity:1;fill-rule:nonzero;stroke:none"
       id="path938" />
  </g>
</svg>
