<?xml version="1.0" encoding="UTF-8" standalone="no"?>
<!-- Created with Inkscape (http://www.inkscape.org/) -->

<svg
   xmlns:dc="http://purl.org/dc/elements/1.1/"
   xmlns:cc="http://creativecommons.org/ns#"
   xmlns:rdf="http://www.w3.org/1999/02/22-rdf-syntax-ns#"
   xmlns:svg="http://www.w3.org/2000/svg"
   xmlns="http://www.w3.org/2000/svg"
   xmlns:sodipodi="http://sodipodi.sourceforge.net/DTD/sodipodi-0.dtd"
   xmlns:inkscape="http://www.inkscape.org/namespaces/inkscape"
   width="300"
   height="300"
   id="svg5480"
   version="1.1"
   inkscape:version="0.48.4 r9939"
   sodipodi:docname="New document 24">
  <defs
     id="defs5482">
    <clipPath
       clipPathUnits="userSpaceOnUse"
       id="clipPath314">
      <path
         inkscape:connector-curvature="0"
         d="m 1127.08,4078.32 -553.33,0 c -62.754,0 -113.789,-51.05 -113.789,-113.78 l 0,-257.15 c 39.883,-12.19 83,-18.36 128.508,-18.36 l 0.027,0 c 63.234,0 130.637,11.87 200.313,35.25 174.265,58.5 333.511,125.53 452.061,175.78 l 0,64.48 c 0,62.73 -51.03,113.78 -113.79,113.78 l 0,0"
         id="path316" />
    </clipPath>
    <linearGradient
       x1="0"
       y1="0"
       x2="1"
       y2="0"
       gradientUnits="userSpaceOnUse"
       gradientTransform="matrix(-4e-6,-84.4207,415.773,-2e-5,-122.846,408.9)"
       spreadMethod="pad"
       id="linearGradient318">
      <stop
         style="stop-color:#393536;stop-opacity:1;"
         offset="0"
         id="stop320" />
      <stop
         style="stop-opacity:1;stop-color:#5d5a5b"
         offset="0.0484848"
         id="stop322" />
      <stop
         style="stop-opacity:1;stop-color:#343131"
         offset="1"
         id="stop324" />
    </linearGradient>
    <clipPath
       clipPathUnits="userSpaceOnUse"
       id="clipPath280">
      <path
         inkscape:connector-curvature="0"
         d="m 588.469,3689.03 c -45.508,0 -88.625,6.17 -128.508,18.36 l 0,257.15 c 0,62.73 51.035,113.78 113.789,113.78 l 553.33,0 c 62.76,0 113.79,-51.05 113.79,-113.78 l 0,-64.48 C 1122.32,3849.81 963.074,3782.78 788.809,3724.28 719.133,3700.9 651.73,3689.03 588.496,3689.03 l -0.027,0 0,0 z m 538.611,424.49 -553.35,0 c -82.277,0 -148.972,-66.7 -148.972,-148.98 l 0,-553.34 c 0,-82.28 66.695,-148.99 148.972,-148.99 l 553.35,0 c 82.27,0 148.97,66.71 148.97,148.99 l 0,553.34 c 0,82.28 -66.7,148.98 -148.97,148.98 l 0,0"
         id="path282" />
    </clipPath>
    <linearGradient
       x1="0"
       y1="0"
       x2="1"
       y2="0"
       gradientUnits="userSpaceOnUse"
       gradientTransform="matrix(-4e-6,-84.4207,422.813,-2e-5,-126.366,408.9)"
       spreadMethod="pad"
       id="linearGradient284">
      <stop
         style="stop-opacity:1;stop-color:#393536"
         offset="0"
         id="stop286" />
      <stop
         style="stop-opacity:1;stop-color:#4f4c4d"
         offset="0.0484848"
         id="stop288" />
      <stop
         style="stop-opacity:1;stop-color:#231f20"
         offset="1"
         id="stop290" />
    </linearGradient>
  </defs>
  <sodipodi:namedview
     id="base"
     pagecolor="#ffffff"
     bordercolor="#666666"
     borderopacity="1.0"
     inkscape:pageopacity="0.0"
     inkscape:pageshadow="2"
     inkscape:zoom="0.35"
     inkscape:cx="219.63431"
     inkscape:cy="61.778312"
     inkscape:document-units="px"
     inkscape:current-layer="layer1"
     showgrid="false"
     fit-margin-top="0"
     fit-margin-left="0"
     fit-margin-right="0"
     fit-margin-bottom="0"
     inkscape:window-width="1855"
     inkscape:window-height="1056"
     inkscape:window-x="2625"
     inkscape:window-y="24"
     inkscape:window-maximized="1" />
  <metadata
     id="metadata5485">
    <rdf:RDF>
      <cc:Work
         rdf:about="">
        <dc:format>image/svg+xml</dc:format>
        <dc:type
           rdf:resource="http://purl.org/dc/dcmitype/StillImage" />
        <dc:title></dc:title>
      </cc:Work>
    </rdf:RDF>
  </metadata>
  <g
     inkscape:label="Layer 1"
     inkscape:groupmode="layer"
     id="layer1"
     transform="translate(-155.36568,-294.14049)">
    <g
       transform="matrix(0.35240552,0,0,-0.35239807,5.67862,1743.737)"
       id="g276">
      <g
         id="g278"
         clip-path="url(#clipPath280)">
        <path
           inkscape:connector-curvature="0"
           d="m 588.469,3689.03 c -45.508,0 -88.625,6.17 -128.508,18.36 l 0,257.15 c 0,62.73 51.035,113.78 113.789,113.78 l 553.33,0 c 62.76,0 113.79,-51.05 113.79,-113.78 l 0,-64.48 C 1122.32,3849.81 963.074,3782.78 788.809,3724.28 719.133,3700.9 651.73,3689.03 588.496,3689.03 l -0.027,0 0,0 z m 538.611,424.49 -553.35,0 c -82.277,0 -148.972,-66.7 -148.972,-148.98 l 0,-553.34 c 0,-82.28 66.695,-148.99 148.972,-148.99 l 553.35,0 c 82.27,0 148.97,66.71 148.97,148.99 l 0,553.34 c 0,82.28 -66.7,148.98 -148.97,148.98 l 0,0"
           style="fill:url(#linearGradient284);fill-opacity:1;fill-rule:nonzero;stroke:none"
           id="path292" />
      </g>
    </g>
    <g
       id="g310"
       transform="matrix(0.36663385,0,0,-0.41518875,-7.5325,1994.179)">
      <g
         id="g312"
         clip-path="url(#clipPath314)">
        <path
           d="m 1127.08,4078.32 -553.33,0 c -62.754,0 -113.789,-51.05 -113.789,-113.78 l 0,-257.15 c 39.883,-12.19 83,-18.36 128.508,-18.36 l 0.027,0 c 63.234,0 130.637,11.87 200.313,35.25 174.265,58.5 333.511,125.53 452.061,175.78 l 0,64.48 c 0,62.73 -51.03,113.78 -113.79,113.78 l 0,0"
           style="fill:url(#linearGradient318);fill-opacity:1;fill-rule:nonzero;stroke:none"
           id="path326"
           inkscape:connector-curvature="0" />
      </g>
    </g>
    <path
       inkscape:connector-curvature="0"
       d="m 419.94188,388.21665 -25.33444,100.62022 c -5.59267,22.6592 -12.26018,26.48272 -25.10184,26.48272 l -126.60698,0 c -12.83814,0 -19.51058,-3.82352 -25.1089,-26.51443 l -25.32809,-100.58851 -13.51932,0 26.1291,103.76361 c 6.55122,26.57082 16.80658,36.44854 37.82721,36.44854 l 126.60698,0 c 21.02099,0 31.27599,-9.87772 37.82016,-36.42387 l 26.13792,-103.78828 -13.5218,0"
       style="fill:#ffffff;fill-opacity:1;fill-rule:nonzero;stroke:none"
       id="path928" />
    <path
       inkscape:connector-curvature="0"
       d="m 367.57089,446.60197 c 4.85263,0 8.78195,-3.93277 8.78195,-8.78176 0,-4.85253 -3.92932,-8.78529 -8.78195,-8.78529 -4.85615,0 -8.78547,3.93276 -8.78547,8.78529 0,4.84899 3.92932,8.78176 8.78547,8.78176"
       style="fill:#ffffff;fill-opacity:1;fill-rule:nonzero;stroke:none"
       id="path930" />
    <path
       inkscape:connector-curvature="0"
       d="m 325.86122,482.97649 c 1.75921,0 3.28972,-0.61669 4.58127,-1.85361 1.29229,-1.23692 2.24096,-3.18568 2.84921,-5.85686 0.61141,-2.66765 0.91978,-6.82947 0.91978,-12.47841 0,-8.29193 -0.70058,-13.86334 -2.10916,-16.71777 -1.40398,-2.8509 -3.51137,-4.28163 -6.32813,-4.28163 -2.86331,0 -4.93368,1.45893 -6.21503,4.36973 -1.27748,2.90729 -1.91638,8.29898 -1.91638,16.16098 0,7.9501 0.702,13.38055 2.10914,16.29136 1.4068,2.91081 3.44125,4.36621 6.1093,4.36621"
       style="fill:#ffffff;fill-opacity:1;fill-rule:nonzero;stroke:none"
       id="path932" />
    <path
       inkscape:connector-curvature="0"
       d="m 242.67838,504.66659 126.6052,0 c 8.03485,0 12.05932,0 17.05643,-20.23117 l 17.66961,-70.18007 c -90.76627,-8.51042 -104.85158,10.16316 -195.61537,1.74084 l 17.24602,68.50971 c 4.97913,20.16069 9.00678,20.16069 17.03811,20.16069 z m 124.89251,-79.73358 c 7.11507,0 12.88395,5.76875 12.88395,12.8872 0,7.11491 -5.76888,12.88367 -12.88395,12.88367 -7.12211,0 -12.88572,-5.76876 -12.88572,-12.88367 0,-7.11845 5.76361,-12.8872 12.88572,-12.8872 z m -60.72195,12.42555 c 4.27011,-4.73975 10.77727,-7.11139 19.52679,-7.11139 4.19997,0 7.65109,0.51803 10.35086,1.55408 2.69237,1.03605 4.89773,2.38926 6.59632,4.04905 1.70424,1.65979 3.04797,3.40769 4.028,5.23664 0.97864,1.83247 1.76484,3.968 2.36219,6.41012 1.16468,4.6587 1.74545,9.51474 1.74545,14.56461 0,11.3296 -1.91075,19.62152 -5.75126,24.87578 -3.82676,5.25073 -10.43191,7.87609 -19.80096,7.87609 -5.25155,0 -9.49697,-0.8387 -12.73453,-2.51612 -3.23931,-1.67036 -5.89185,-4.1301 -7.96648,-7.36512 -1.50299,-2.29411 -2.67617,-5.44102 -3.51419,-9.43369 -0.83695,-3.98915 -1.25278,-8.39413 -1.25278,-13.22198 0,-11.86877 2.1338,-20.17126 6.41059,-24.91807 z m -33.24312,27.7725 c -1.59109,-1.7338 -3.70553,-2.6007 -6.34716,-2.6007 -1.67392,0 -3.29288,0.40878 -4.85967,1.23691 -1.15908,0.59556 -2.4376,1.6739 -3.83242,3.23502 l -14.77459,-2.12849 5.49118,-33.56239 41.18879,0 0,13.84572 -27.89783,0 -1.49242,9.36674 c 1.93293,-0.90918 3.84085,-1.58931 5.72659,-2.04391 1.88993,-0.45459 3.75416,-0.68012 5.60536,-0.68012 6.24426,0 11.31292,1.88885 15.20452,5.66303 3.88881,3.77771 5.83409,8.53156 5.83409,14.2686 0,4.03144 -0.99942,7.90781 -3.00109,11.62561 -2.00307,3.72133 -4.84416,6.55813 -8.52116,8.52099 -3.67948,1.95581 -8.38198,2.93547 -14.12089,2.93547 -4.1161,0 -7.64015,-0.39116 -10.57888,-1.17348 -2.93906,-0.7788 -5.43902,-1.94171 -7.49566,-3.48874 -2.06087,-1.55055 -3.73057,-3.3055 -5.00943,-5.2613 -1.27185,-1.95934 -2.33752,-4.39793 -3.18964,-7.32284 l 17.54486,-1.91704 c 0.42537,2.81213 1.42197,4.94767 2.98276,6.40659 1.56116,1.46246 3.41834,2.19544 5.57929,2.19544 2.41609,0 4.40648,-0.91623 5.9828,-2.7487 1.5763,-1.82895 2.36639,-4.56356 2.36639,-8.19678 0,-3.72132 -0.79432,-6.44536 -2.38579,-8.17563"
       style="fill:#ffffff;fill-opacity:1;fill-rule:nonzero;stroke:none"
       id="path934" />
  </g>
</svg>
