<?xml version="1.0" encoding="UTF-8" standalone="no"?>
<!-- Created with Inkscape (http://www.inkscape.org/) -->

<svg
   xmlns:dc="http://purl.org/dc/elements/1.1/"
   xmlns:cc="http://creativecommons.org/ns#"
   xmlns:rdf="http://www.w3.org/1999/02/22-rdf-syntax-ns#"
   xmlns:svg="http://www.w3.org/2000/svg"
   xmlns="http://www.w3.org/2000/svg"
   xmlns:sodipodi="http://sodipodi.sourceforge.net/DTD/sodipodi-0.dtd"
   xmlns:inkscape="http://www.inkscape.org/namespaces/inkscape"
   width="300"
   height="300"
   id="svg6385"
   version="1.1"
   inkscape:version="0.48.4 r9939"
   sodipodi:docname="New document 50">
  <defs
     id="defs6387">
    <clipPath
       clipPathUnits="userSpaceOnUse"
       id="clipPath210">
      <path
         inkscape:connector-curvature="0"
         d="m 3956.32,2641.63 -553.34,0 c -62.73,0 -113.79,-51.04 -113.79,-113.79 l 0,-257.13 c 39.9,-12.2 83.02,-18.37 128.52,-18.37 l 0.02,0 c 63.23,0 130.64,11.88 200.31,35.25 174.27,58.5 333.51,125.54 452.07,175.79 l 0,64.46 c 0,62.75 -51.05,113.79 -113.79,113.79 l 0,0"
         id="path212" />
    </clipPath>
    <linearGradient
       x1="0"
       y1="0"
       x2="1"
       y2="0"
       gradientUnits="userSpaceOnUse"
       gradientTransform="matrix(-4e-6,-84.4207,415.775,-2e-5,160.077,265.275)"
       spreadMethod="pad"
       id="linearGradient214">
      <stop
         style="stop-color:#78bc24;stop-opacity:1;"
         offset="0"
         id="stop216" />
      <stop
         style="stop-opacity:1;stop-color:#8ad142"
         offset="0.0545455"
         id="stop218" />
      <stop
         style="stop-opacity:1;stop-color:#60912d"
         offset="1"
         id="stop220" />
    </linearGradient>
    <clipPath
       clipPathUnits="userSpaceOnUse"
       id="clipPath176">
      <path
         inkscape:connector-curvature="0"
         d="m 3417.71,2252.34 c -45.5,0 -88.62,6.17 -128.52,18.37 l 0,257.13 c 0,62.75 51.06,113.79 113.79,113.79 l 553.34,0 c 62.74,0 113.79,-51.04 113.79,-113.79 l 0,-64.46 c -118.56,-50.25 -277.8,-117.29 -452.07,-175.79 -69.67,-23.37 -137.08,-35.25 -200.31,-35.25 l -0.02,0 0,0 z m 538.61,424.5 -553.34,0 c -82.27,0 -148.98,-66.7 -148.98,-149 l 0,-553.33 c 0,-82.28 66.71,-148.98 148.98,-148.98 l 553.34,0 c 82.29,0 148.98,66.7 148.98,148.98 l 0,553.33 c 0,82.3 -66.69,149 -148.98,149 l 0,0"
         id="path178" />
    </clipPath>
    <linearGradient
       x1="0"
       y1="0"
       x2="1"
       y2="0"
       gradientUnits="userSpaceOnUse"
       gradientTransform="matrix(-4e-6,-84.4207,422.813,-2e-5,156.559,265.275)"
       spreadMethod="pad"
       id="linearGradient180">
      <stop
         style="stop-opacity:1;stop-color:#78bc24"
         offset="0"
         id="stop182" />
      <stop
         style="stop-opacity:1;stop-color:#69c52f"
         offset="0.0545455"
         id="stop184" />
      <stop
         style="stop-opacity:1;stop-color:#3e751a"
         offset="1"
         id="stop186" />
    </linearGradient>
  </defs>
  <sodipodi:namedview
     id="base"
     pagecolor="#ffffff"
     bordercolor="#666666"
     borderopacity="1.0"
     inkscape:pageopacity="0.0"
     inkscape:pageshadow="2"
     inkscape:zoom="0.35"
     inkscape:cx="99.634819"
     inkscape:cy="-83.936031"
     inkscape:document-units="px"
     inkscape:current-layer="layer1"
     showgrid="false"
     fit-margin-top="0"
     fit-margin-left="0"
     fit-margin-right="0"
     fit-margin-bottom="0"
     inkscape:window-width="1855"
     inkscape:window-height="1056"
     inkscape:window-x="2625"
     inkscape:window-y="24"
     inkscape:window-maximized="1" />
  <metadata
     id="metadata6390">
    <rdf:RDF>
      <cc:Work
         rdf:about="">
        <dc:format>image/svg+xml</dc:format>
        <dc:type
           rdf:resource="http://purl.org/dc/dcmitype/StillImage" />
        <dc:title></dc:title>
      </cc:Work>
    </rdf:RDF>
  </metadata>
  <g
     inkscape:label="Layer 1"
     inkscape:groupmode="layer"
     id="layer1"
     transform="translate(-275.36518,-148.42615)">
    <g
       transform="matrix(0.35240221,0,0,-0.35239807,-871.35161,1091.7394)"
       id="g172">
      <g
         id="g174"
         clip-path="url(#clipPath176)">
        <path
           inkscape:connector-curvature="0"
           d="m 3417.71,2252.34 c -45.5,0 -88.62,6.17 -128.52,18.37 l 0,257.13 c 0,62.75 51.06,113.79 113.79,113.79 l 553.34,0 c 62.74,0 113.79,-51.04 113.79,-113.79 l 0,-64.46 c -118.56,-50.25 -277.8,-117.29 -452.07,-175.79 -69.67,-23.37 -137.08,-35.25 -200.31,-35.25 l -0.02,0 0,0 z m 538.61,424.5 -553.34,0 c -82.27,0 -148.98,-66.7 -148.98,-149 l 0,-553.33 c 0,-82.28 66.71,-148.98 148.98,-148.98 l 553.34,0 c 82.29,0 148.98,66.7 148.98,148.98 l 0,553.33 c 0,82.3 -66.69,149 -148.98,149 l 0,0"
           style="fill:url(#linearGradient180);fill-opacity:1;fill-rule:nonzero;stroke:none"
           id="path188" />
      </g>
    </g>
    <g
       transform="matrix(0.35240221,0,0,-0.35239807,-871.35161,1091.7394)"
       id="g206">
      <g
         id="g208"
         clip-path="url(#clipPath210)"
         transform="matrix(1.0565241,0,0,1.178181,-207.7534,-454.68834)">
        <path
           d="m 3956.32,2641.63 -553.34,0 c -62.73,0 -113.79,-51.04 -113.79,-113.79 l 0,-257.13 c 39.9,-12.2 83.02,-18.37 128.52,-18.37 l 0.02,0 c 63.23,0 130.64,11.88 200.31,35.25 174.27,58.5 333.51,125.54 452.07,175.79 l 0,64.46 c 0,62.75 -51.05,113.79 -113.79,113.79 l 0,0"
           style="fill:url(#linearGradient214);fill-opacity:1;fill-rule:nonzero;stroke:none"
           id="path222"
           inkscape:connector-curvature="0" />
      </g>
    </g>
    <path
       inkscape:connector-curvature="0"
       d="m 448.68692,298.06852 0,-78.0456 c 0,-8.82758 -7.15024,-15.97421 -15.97086,-15.97421 l -15.30483,0 c -8.81711,0 -15.97087,7.14663 -15.97087,15.97421 l 0,78.0456 c -17.45096,8.68308 -29.43616,26.7012 -29.43616,47.5103 0,29.30543 23.75544,53.0641 53.05768,53.0641 29.30577,0 53.0612,-23.75867 53.0612,-53.0641 0,-20.8091 -11.98872,-38.82722 -29.43616,-47.5103 z m -23.62504,93.02956 c -3.55574,0 -7.00928,-0.42288 -10.33948,-1.20168 7.77047,-5.47626 14.91014,-11.79828 21.32738,-18.79338 l 15.81934,11.23445 c -7.53084,5.49741 -16.78845,8.76061 -26.80724,8.76061 z m 29.05556,-10.50146 -16.23517,-11.51989 c 4.96535,-5.6419 9.45143,-11.71019 13.39481,-18.14146 l 17.71173,6.56518 c -2.48091,9.15883 -7.76694,17.18998 -14.87137,23.09617 z m 16.46776,-35.0178 c 0,3.17511 -0.32421,6.25507 -0.94797,9.25045 l -16.93997,-6.26916 c 4.77857,-8.13687 8.71491,-16.81996 11.68918,-25.95764 3.9751,6.82947 6.19876,14.70205 6.19876,22.97635"
       style="fill:#ffffff;fill-opacity:1;fill-rule:nonzero;stroke:none"
       id="path952" />
    <path
       inkscape:connector-curvature="0"
       d="m 483.66989,185.2377 -117.2125,0 c -8.8171,0 -15.97087,7.14664 -15.97087,15.97421 l 0,200.27487 c 0,8.817 7.15377,15.96363 15.97087,15.96363 l 117.2125,0 c 8.82063,0 15.97439,-7.14663 15.97439,-15.96363 l 0,-200.27487 c 0,-8.82757 -7.15376,-15.97421 -15.97439,-15.97421 z m -23.14578,32.62502 13.81417,0 c 2.09327,0 3.7848,1.69855 3.7848,3.78827 l 0,2.0862 c 0,2.0862 -1.69153,3.78476 -3.7848,3.78476 l -13.81417,0 0,-9.65923 z m 0,20.12897 13.81417,0 c 2.09327,0 3.7848,1.69151 3.7848,3.78476 l 0,2.07562 c 0,2.1003 -1.69153,3.80238 -3.7848,3.80238 l -13.81417,0 0,-9.66276 z m 0,20.11841 13.81417,0 c 2.09327,0 3.7848,1.69151 3.7848,3.79533 l 0,2.07562 c 0,2.09325 -1.69153,3.79533 -3.7848,3.79533 l -13.81417,0 0,-9.66628 z m 0,20.1184 13.81417,0 c 2.09327,0 3.7848,1.70209 3.7848,3.79533 l 0,2.08267 c 0,2.08268 -1.69153,3.78124 -3.7848,3.78124 l -13.81417,0 0,-9.65924 z M 372.0042,221.65099 c 0,-2.08619 1.69506,-3.78827 3.78833,-3.78827 l 13.81064,0 0,9.65923 -13.81064,0 c -2.09327,0 -3.78833,-1.68799 -3.78833,-3.77771 l 0,-2.09325 z m 0,20.12546 c 0,-2.09325 1.69506,-3.78476 3.78833,-3.78476 l 13.81064,0 0,9.66276 -13.81064,0 c -2.09327,0 -3.78833,-1.70208 -3.78833,-3.7918 l 0,-2.0862 z m 0,20.12898 c 0,-2.09325 1.69506,-3.79533 3.78833,-3.79533 l 13.81064,0 0,9.66628 -13.81064,0 c -2.09327,0 -3.78833,-1.70208 -3.78833,-3.79533 l 0,-2.07562 z m 0,20.1184 c 0,-2.09324 1.69506,-3.79533 3.78833,-3.79533 l 13.81064,0 0,9.65924 -13.81064,0 c -2.09327,0 -3.78833,-1.69856 -3.78833,-3.78124 l 0,-2.08267 z m 53.05768,124.15689 c -33.41125,0 -60.60613,-27.17694 -60.60613,-60.6019 0,-21.54561 11.17115,-41.05085 29.4432,-51.97871 l 0,-73.57719 c 0,-12.9753 10.55092,-23.51905 23.51228,-23.51905 l 15.30483,0 c 12.96487,0 23.51579,10.54375 23.51579,23.51905 l 0,73.57719 c 18.27206,10.92786 29.43968,30.4331 29.43968,51.97871 0,33.42496 -27.18783,60.6019 -60.60965,60.6019"
       style="fill:#ffffff;fill-opacity:1;fill-rule:nonzero;stroke:none"
       id="path954" />
  </g>
</svg>
