<?xml version="1.0" encoding="UTF-8" standalone="no"?>
<!-- Created with Inkscape (http://www.inkscape.org/) -->

<svg
   xmlns:dc="http://purl.org/dc/elements/1.1/"
   xmlns:cc="http://creativecommons.org/ns#"
   xmlns:rdf="http://www.w3.org/1999/02/22-rdf-syntax-ns#"
   xmlns:svg="http://www.w3.org/2000/svg"
   xmlns="http://www.w3.org/2000/svg"
   xmlns:xlink="http://www.w3.org/1999/xlink"
   xmlns:sodipodi="http://sodipodi.sourceforge.net/DTD/sodipodi-0.dtd"
   xmlns:inkscape="http://www.inkscape.org/namespaces/inkscape"
   width="300"
   height="300"
   id="svg6988"
   version="1.1"
   inkscape:version="0.48.4 r9939"
   sodipodi:docname="trash.svg">
  <defs
     id="defs6990">
    <clipPath
       clipPathUnits="userSpaceOnUse"
       id="clipPath834">
      <path
         inkscape:connector-curvature="0"
         d="m 3956.33,1204.96 -553.33,0 c -62.75,0 -113.79,-51.05 -113.79,-113.79 l 0,-257.147 c 39.88,-12.187 83,-18.359 128.5,-18.359 l 0.04,0 c 63.23,0 130.63,11.875 200.31,35.254 174.26,58.496 333.51,125.516 452.06,175.782 l 0,64.47 c 0,62.74 -51.04,113.79 -113.79,113.79 l 0,0"
         id="path836" />
    </clipPath>
    <linearGradient
       x1="0"
       y1="0"
       x2="1"
       y2="0"
       gradientUnits="userSpaceOnUse"
       gradientTransform="matrix(-4.0968997e-6,-107.66848,425.84917,-2.5507329e-5,71.663398,-160.0986)"
       spreadMethod="pad"
       id="linearGradient838">
      <stop
         style="stop-color:#393536;stop-opacity:1;"
         offset="0"
         id="stop840" />
      <stop
         style="stop-opacity:1;stop-color:#5d5a5b"
         offset="0.0484848"
         id="stop842" />
      <stop
         style="stop-opacity:1;stop-color:#343131"
         offset="1"
         id="stop844" />
    </linearGradient>
    <clipPath
       clipPathUnits="userSpaceOnUse"
       id="clipPath800">
      <path
         inkscape:connector-curvature="0"
         d="m 3417.71,815.664 c -45.5,0 -88.62,6.172 -128.5,18.359 l 0,257.147 c 0,62.74 51.04,113.79 113.79,113.79 l 553.33,0 c 62.75,0 113.79,-51.05 113.79,-113.79 l 0,-64.47 c -118.55,-50.266 -277.8,-117.286 -452.06,-175.782 -69.68,-23.379 -137.08,-35.254 -200.31,-35.254 l -0.04,0 0,0 z m 538.62,424.496 -553.35,0 c -82.28,0 -148.98,-66.7 -148.98,-148.99 l 0,-553.338 c 0,-82.285 66.7,-148.984 148.98,-148.984 l 553.35,0 c 82.26,0 148.97,66.699 148.97,148.984 l 0,553.338 c 0,82.29 -66.71,148.99 -148.97,148.99 l 0,0"
         id="path802" />
    </clipPath>
    <linearGradient
       x1="0"
       y1="0"
       x2="1"
       y2="0"
       gradientUnits="userSpaceOnUse"
       gradientTransform="matrix(-4e-6,-84.4216,422.816,-2e-5,156.557,122.088)"
       spreadMethod="pad"
       id="linearGradient804">
      <stop
         style="stop-opacity:1;stop-color:#393536"
         offset="0"
         id="stop806" />
      <stop
         style="stop-opacity:1;stop-color:#4f4c4d"
         offset="0.0484848"
         id="stop808" />
      <stop
         style="stop-opacity:1;stop-color:#231f20"
         offset="1"
         id="stop810" />
    </linearGradient>
    <linearGradient
       inkscape:collect="always"
       xlink:href="#linearGradient804"
       id="linearGradient3013"
       gradientUnits="userSpaceOnUse"
       gradientTransform="matrix(-4e-6,-84.4216,422.816,-2e-5,156.557,122.088)"
       spreadMethod="pad"
       x1="0"
       y1="0"
       x2="1"
       y2="0" />
    <linearGradient
       inkscape:collect="always"
       xlink:href="#linearGradient838"
       id="linearGradient3015"
       gradientUnits="userSpaceOnUse"
       gradientTransform="matrix(-4.0968997e-6,-107.66848,425.84917,-2.5507329e-5,71.663398,-160.0986)"
       spreadMethod="pad"
       x1="0"
       y1="0"
       x2="1"
       y2="0" />
  </defs>
  <sodipodi:namedview
     id="base"
     pagecolor="#ffffff"
     bordercolor="#666666"
     borderopacity="1.0"
     inkscape:pageopacity="0.0"
     inkscape:pageshadow="2"
     inkscape:zoom="0.98994949"
     inkscape:cx="113.49521"
     inkscape:cy="66.625107"
     inkscape:document-units="px"
     inkscape:current-layer="layer1"
     showgrid="false"
     inkscape:window-width="2495"
     inkscape:window-height="1416"
     inkscape:window-x="1985"
     inkscape:window-y="24"
     inkscape:window-maximized="1"
     fit-margin-top="0"
     fit-margin-left="0"
     fit-margin-right="0"
     fit-margin-bottom="0" />
  <metadata
     id="metadata6993">
    <rdf:RDF>
      <cc:Work
         rdf:about="">
        <dc:format>image/svg+xml</dc:format>
        <dc:type
           rdf:resource="http://purl.org/dc/dcmitype/StillImage" />
        <dc:title />
      </cc:Work>
    </rdf:RDF>
  </metadata>
  <g
     inkscape:label="Layer 1"
     inkscape:groupmode="layer"
     id="layer1"
     transform="translate(-343.93657,-259.85489)">
    <path
       sodipodi:type="arc"
       style="fill:#000000;fill-opacity:1;stroke:none"
       id="path3017"
       sodipodi:cx="-609.12201"
       sodipodi:cy="-66.685371"
       sodipodi:rx="127.27922"
       sodipodi:ry="199.00005"
       d="m -481.84279,-66.685371 a 127.27922,199.00005 0 1 1 -254.55844,0 127.27922,199.00005 0 1 1 254.55844,0 z"
       transform="matrix(1.1706546,0,0,0.74874355,1207.0589,459.77498)" />
    <g
       id="g3019"
       transform="translate(-0.9492373,-41.456865)">
      <path
         id="path1010"
         style="fill:#ffffff;fill-opacity:1;fill-rule:nonzero;stroke:none"
         d="m 582.41078,369.95684 -171.7749,0 c -1.59653,0 -2.8897,1.28977 -2.8897,2.89352 l 0,1.12203 c 0,1.59391 1.29317,2.88791 2.8897,2.88791 l 171.7749,0 c 1.59991,0 2.89675,-1.294 2.89675,-2.88791 l 0,-1.12203 c 0,-1.60375 -1.29684,-2.89352 -2.89675,-2.89352"
         inkscape:connector-curvature="0" />
      <path
         id="path1018"
         style="fill:#ffffff;fill-opacity:1;fill-rule:nonzero;stroke:none"
         d="m 434.78245,515.54376 c 1.52237,10.51271 8.02419,17.93386 17.93022,17.93386 l 82.61013,0 c 9.90602,0 16.4008,-7.42115 17.93374,-17.93386 l 24.93951,-135.30115 -168.36732,0 24.95372,135.30115 z m 82.20486,-118.73039 c 0,-3.01192 2.4351,-5.43712 5.43757,-5.43712 l 4.98296,0 c 3.00247,0 5.43757,2.4252 5.43757,5.43712 l 0,120.09594 c 0,3.00911 -2.4351,5.43467 -5.43757,5.43467 l -4.98296,0 c -3.00247,0 -5.43757,-2.42556 -5.43757,-5.43467 l 0,-120.09594 z m -30.89863,0 c 0,-3.01192 2.42805,-5.43712 5.43052,-5.43712 l 4.98297,0 c 3.00951,0 5.44461,2.4252 5.44461,5.43712 l 0,120.09594 c 0,3.00911 -2.4351,5.43467 -5.44461,5.43467 l -4.98297,0 c -3.00247,0 -5.43052,-2.42556 -5.43052,-5.43467 l 0,-120.09594 z m -30.8951,0 c 0,-3.01192 2.42805,-5.43712 5.43404,-5.43712 l 4.97945,0 c 2.99894,0 5.44461,2.4252 5.44461,5.43712 l 0,120.09594 c 0,3.00911 -2.44567,5.43467 -5.44461,5.43467 l -4.97945,0 c -3.00599,0 -5.43404,-2.42556 -5.43404,-5.43467 l 0,-120.09594"
         inkscape:connector-curvature="0" />
    </g>
  </g>
</svg>
