<?xml version="1.0" encoding="UTF-8" standalone="no"?>
<!-- Created with Inkscape (http://www.inkscape.org/) -->

<svg
   xmlns:dc="http://purl.org/dc/elements/1.1/"
   xmlns:cc="http://creativecommons.org/ns#"
   xmlns:rdf="http://www.w3.org/1999/02/22-rdf-syntax-ns#"
   xmlns:svg="http://www.w3.org/2000/svg"
   xmlns="http://www.w3.org/2000/svg"
   xmlns:xlink="http://www.w3.org/1999/xlink"
   xmlns:sodipodi="http://sodipodi.sourceforge.net/DTD/sodipodi-0.dtd"
   xmlns:inkscape="http://www.inkscape.org/namespaces/inkscape"
   width="600"
   height="600"
   id="svg4915"
   version="1.1"
   inkscape:version="0.48.4 r9939"
   sodipodi:docname="washingMachine.svg">
  <defs
     id="defs4917">
    <clipPath
       clipPathUnits="userSpaceOnUse"
       id="clipPath522">
      <path
         inkscape:connector-curvature="0"
         d="m 1127.07,5515.02 -553.34,0 c -62.738,0 -113.789,-51.05 -113.789,-113.79 l 0,-257.14 c 39.899,-12.19 83.02,-18.36 128.52,-18.36 l 0.016,0 c 63.234,0 130.64,11.86 200.312,35.25 174.281,58.49 333.511,125.52 452.071,175.77 l 0,64.48 c 0,62.74 -51.05,113.79 -113.79,113.79 l 0,0"
         id="path524" />
    </clipPath>
    <clipPath
       clipPathUnits="userSpaceOnUse"
       id="clipPath488">
      <path
         inkscape:connector-curvature="0"
         d="m 588.461,5125.73 c -45.5,0 -88.621,6.17 -128.52,18.36 l 0,257.14 c 0,62.74 51.051,113.79 113.789,113.79 l 553.34,0 c 62.74,0 113.79,-51.05 113.79,-113.79 l 0,-64.48 C 1122.3,5286.5 963.07,5219.47 788.789,5160.98 719.117,5137.59 651.711,5125.73 588.477,5125.73 l -0.016,0 0,0 z m 538.609,424.48 -553.34,0 c -82.269,0 -148.972,-66.7 -148.972,-148.98 l 0,-553.34 c 0,-82.27 66.703,-148.98 148.972,-148.98 l 553.34,0 c 82.29,0 148.98,66.71 148.98,148.98 l 0,553.34 c 0,82.28 -66.69,148.98 -148.98,148.98 l 0,0"
         id="path490" />
    </clipPath>
    <linearGradient
       x1="0"
       y1="0"
       x2="1"
       y2="0"
       gradientUnits="userSpaceOnUse"
       gradientTransform="matrix(-4e-6,-84.4207,422.813,-2e-5,-126.366,552.713)"
       spreadMethod="pad"
       id="linearGradient492">
      <stop
         style="stop-opacity:1;stop-color:#78bc24"
         offset="0"
         id="stop494" />
      <stop
         style="stop-opacity:1;stop-color:#69c52f"
         offset="0.0545455"
         id="stop496" />
      <stop
         style="stop-opacity:1;stop-color:#3e751a"
         offset="1"
         id="stop498" />
    </linearGradient>
    <linearGradient
       inkscape:collect="always"
       xlink:href="#linearGradient492"
       id="linearGradient3024"
       gradientUnits="userSpaceOnUse"
       gradientTransform="matrix(-4e-6,-84.4207,422.813,-2e-5,-126.366,552.713)"
       spreadMethod="pad"
       x1="0"
       y1="0"
       x2="1"
       y2="0" />
  </defs>
  <sodipodi:namedview
     id="base"
     pagecolor="#ffffff"
     bordercolor="#666666"
     borderopacity="1.0"
     inkscape:pageopacity="0.0"
     inkscape:pageshadow="2"
     inkscape:zoom="0.98994949"
     inkscape:cx="-34.026888"
     inkscape:cy="278.29926"
     inkscape:document-units="px"
     inkscape:current-layer="layer1"
     showgrid="false"
     fit-margin-top="0"
     fit-margin-left="0"
     fit-margin-right="0"
     fit-margin-bottom="0"
     inkscape:window-width="1855"
     inkscape:window-height="1056"
     inkscape:window-x="65"
     inkscape:window-y="24"
     inkscape:window-maximized="1" />
  <metadata
     id="metadata4920">
    <rdf:RDF>
      <cc:Work
         rdf:about="">
        <dc:format>image/svg+xml</dc:format>
        <dc:type
           rdf:resource="http://purl.org/dc/dcmitype/StillImage" />
        <dc:title />
      </cc:Work>
    </rdf:RDF>
  </metadata>
  <g
     inkscape:label="Layer 1"
     inkscape:groupmode="layer"
     id="layer1"
     transform="translate(-243.937,-231.28274)">
    <g
       id="g3014"
       transform="matrix(2,0,0,2,-243.937,-831.28272)">
      <g
         id="g484"
         transform="matrix(0.35240552,0,0,-0.35240221,94.249936,2487.189)">
        <g
           clip-path="url(#clipPath488)"
           id="g486">
          <g
             id="g3006">
            <g
               id="g3009">
              <path
                 id="path500"
                 style="fill:url(#linearGradient3024);fill-opacity:1;fill-rule:nonzero;stroke:none"
                 d="m 588.461,5125.73 c -45.5,0 -88.621,6.17 -128.52,18.36 l 0,257.14 c 0,62.74 51.051,113.79 113.789,113.79 l 553.34,0 c 62.74,0 113.79,-51.05 113.79,-113.79 l 0,-64.48 C 1122.3,5286.5 963.07,5219.47 788.789,5160.98 719.117,5137.59 651.711,5125.73 588.477,5125.73 l -0.016,0 0,0 z m 538.609,424.48 -553.34,0 c -82.269,0 -148.972,-66.7 -148.972,-148.98 l 0,-553.34 c 0,-82.27 66.703,-148.98 148.972,-148.98 l 553.34,0 c 82.29,0 148.98,66.71 148.98,148.98 l 0,553.34 c 0,82.28 -66.69,148.98 -148.98,148.98 l 0,0"
                 inkscape:connector-curvature="0" />
            </g>
          </g>
        </g>
      </g>
      <g
         transform="matrix(0.36378805,0,0,-0.44373514,84.570061,2984.2252)"
         id="g518">
        <g
           clip-path="url(#clipPath522)"
           id="g520">
          <path
             inkscape:connector-curvature="0"
             id="path534"
             style="fill:#78bc24;fill-opacity:1;fill-rule:nonzero;stroke:none"
             d="m 1127.07,5515.02 -553.34,0 c -62.738,0 -113.789,-51.05 -113.789,-113.79 l 0,-257.14 c 39.899,-12.19 83.02,-18.36 128.52,-18.36 l 0.016,0 c 63.234,0 130.64,11.86 200.312,35.25 174.281,58.49 333.511,125.52 452.071,175.77 l 0,64.48 c 0,62.74 -51.05,113.79 -113.79,113.79 l 0,0" />
        </g>
      </g>
    </g>
    <path
       inkscape:connector-curvature="0"
       d="m 567.42354,579.74097 c 0,-39.39856 16.32906,-75.97792 45.12144,-102.16846 -18.33298,-11.35438 -39.94532,-17.93726 -63.11104,-17.93726 -66.33738,0 -120.11222,53.76952 -120.11222,120.10572 0,66.32914 53.77484,120.09866 120.11222,120.09866 23.16572,0 44.77806,-6.56876 63.11104,-17.9302 -28.79238,-26.20464 -45.12144,-62.77694 -45.12144,-102.16846"
       style="fill:#ffffff;fill-opacity:1;fill-rule:nonzero;stroke:none"
       id="path1066" />
    <path
       inkscape:connector-curvature="0"
       d="m 502.74048,375.26311 93.3762,0 0,-52.83276 -93.3762,0 0,52.83276 z"
       style="fill:#ffffff;fill-opacity:1;fill-rule:nonzero;stroke:none"
       id="path1068" />
    <path
       inkscape:connector-curvature="0"
       d="m 397.71856,760.08633 c 0,3.70022 2.99742,6.69564 6.70078,6.69564 l 19.64902,0 c 3.70336,0 6.70414,-2.99542 6.70414,-6.69564 l 0,-3.9751 -33.05394,0 0,3.9751"
       style="fill:#ffffff;fill-opacity:1;fill-rule:nonzero;stroke:none"
       id="path1070" />
    <path
       inkscape:connector-curvature="0"
       d="m 668.07506,760.08633 c 0,3.70022 2.99518,6.69564 6.7098,6.69564 l 19.65014,0 c 3.69996,0 6.68836,-2.99542 6.68836,-6.69564 l 0,-3.9751 -33.0483,0 0,3.9751"
       style="fill:#ffffff;fill-opacity:1;fill-rule:nonzero;stroke:none"
       id="path1072" />
    <path
       inkscape:connector-curvature="0"
       d="m 411.96816,365.08573 c 8.95616,0 16.23828,-7.28062 16.23828,-16.23868 0,-8.95806 -7.28212,-16.24576 -16.23828,-16.24576 -8.96352,0 -16.24618,7.2877 -16.24618,16.24576 0,8.95806 7.28266,16.23868 16.24618,16.23868"
       style="fill:#ffffff;fill-opacity:1;fill-rule:nonzero;stroke:none"
       id="path1074" />
    <path
       inkscape:connector-curvature="0"
       d="m 461.44026,365.08573 c 8.95052,0 16.23544,-7.28062 16.23544,-16.23868 0,-8.95806 -7.28492,-16.24576 -16.23544,-16.24576 -8.95844,0 -16.24054,7.2877 -16.24054,16.24576 0,8.95806 7.2821,16.23868 16.24054,16.23868"
       style="fill:#ffffff;fill-opacity:1;fill-rule:nonzero;stroke:none"
       id="path1076" />
    <path
       inkscape:connector-curvature="0"
       d="m 637.41184,365.08573 c 8.95842,0 16.2428,-7.28062 16.2428,-16.23868 0,-8.95806 -7.28438,-16.24576 -16.2428,-16.24576 -8.95844,0 -16.2304,7.2877 -16.2304,16.24576 0,8.95806 7.27196,16.23868 16.2304,16.23868"
       style="fill:#ffffff;fill-opacity:1;fill-rule:nonzero;stroke:none"
       id="path1078" />
    <path
       d="m 715.07598,298.79887 -329.85834,0 c -10.63814,0 -19.26106,8.6268 -19.26106,19.26936 l 0,415.36944 c 0,10.63548 8.62292,19.2623 19.26106,19.2623 l 329.85834,0 c 10.64942,0 19.2622,-8.62682 19.2622,-19.2623 l 0,-415.36944 c 0,-10.64256 -8.61278,-19.26936 -19.2622,-19.26936 z m -27.45268,29.1648 c 11.52396,0 20.86974,9.34572 20.86974,20.88338 0,11.53764 -9.34578,20.8763 -20.86974,20.8763 -11.55158,0 -20.89736,-9.33866 -20.89736,-20.8763 0,-11.53766 9.34578,-20.88338 20.89736,-20.88338 z m -49.48844,0 c 11.54142,0 20.88722,9.34572 20.88722,20.88338 0,11.53764 -9.3458,20.8763 -20.88722,20.8763 -11.53072,0 -20.8799,-9.33866 -20.8799,-20.8763 0,-11.53766 9.34918,-20.88338 20.8799,-20.88338 z m -143.95512,-6.0613 c 0,-4.83496 3.91762,-8.75368 8.76052,-8.75368 l 94.42268,0 c 4.8429,0 8.75826,3.91872 8.75826,8.75368 l 0,53.88934 c 0,4.8279 -3.91536,8.75368 -8.75826,8.75368 l -94.42268,0 c -4.8429,0 -8.76052,-3.92578 -8.76052,-8.75368 l 0,-53.88934 z m -32.01646,6.0613 c 11.53578,0 20.88496,9.34572 20.88496,20.88338 0,11.53764 -9.34918,20.8763 -20.88496,20.8763 -11.54086,0 -20.89962,-9.33866 -20.89962,-20.8763 0,-11.53766 9.35876,-20.88338 20.89962,-20.88338 z m -49.4721,0 c 11.52788,0 20.87762,9.34572 20.87762,20.88338 0,11.53764 -9.34974,20.8763 -20.87762,20.8763 -11.54086,0 -20.8906,-9.33866 -20.8906,-20.8763 0,-11.53766 9.34974,-20.88338 20.8906,-20.88338 z m 137.46578,389.58066 c -76.1196,0 -137.8069,-61.69858 -137.8069,-137.80336 0,-76.11888 61.6873,-137.81746 137.8069,-137.81746 76.10888,0 137.80466,61.69858 137.80466,137.81746 0,76.10478 -61.69578,137.80336 -137.80466,137.80336 z m 159.351,-310.03642 -318.71216,0 0,-11.26982 318.71216,0 0,11.26982"
       style="fill:#ffffff;fill-opacity:1;fill-rule:nonzero;stroke:none"
       id="path1080"
       inkscape:connector-curvature="0" />
    <path
       inkscape:connector-curvature="0"
       d="m 686.90028,365.08573 c 8.94434,0 16.23208,-7.28062 16.23208,-16.23868 0,-8.95806 -7.28774,-16.24576 -16.23208,-16.24576 -8.97196,0 -16.25294,7.2877 -16.25294,16.24576 0,8.95806 7.28098,16.23868 16.25294,16.23868"
       style="fill:#ffffff;fill-opacity:1;fill-rule:nonzero;stroke:none"
       id="path1082" />
    <path
       inkscape:connector-curvature="0"
       d="m 623.42838,483.40829 c -0.1354,0.0918 -0.25372,0.20412 -0.37778,0.30336 l -2.68222,2.43862 c -26.6616,24.25232 -41.35832,57.48386 -41.35832,93.59098 0,36.09304 14.69672,69.32456 41.35832,93.57688 l 2.68222,2.45272 c 0.124,0.0914 0.24246,0.1974 0.37778,0.29602 29.01398,-22.11678 47.75462,-57.03278 47.75462,-96.32562 0,-39.2999 -18.74064,-74.2159 -47.75462,-96.33268"
       style="fill:#ffffff;fill-opacity:1;fill-rule:nonzero;stroke:none"
       id="path1084" />
  </g>
</svg>
